<mxfile host="Electron" modified="2023-11-28T10:44:31.932Z" agent="Mozilla/5.0 (Windows NT 10.0; Win64; x64) AppleWebKit/537.36 (KHTML, like Gecko) draw.io/22.1.2 Chrome/114.0.5735.289 Electron/25.9.4 Safari/537.36" etag="Wy0_9S8wq2-Z1SezWINl" version="22.1.2" type="device">
  <diagram name="Page-1" id="Ha8s6_4_4nTsxysomdbX">
    <mxGraphModel dx="1418" dy="828" grid="1" gridSize="10" guides="1" tooltips="1" connect="1" arrows="1" fold="1" page="1" pageScale="1" pageWidth="827" pageHeight="1169" math="0" shadow="0">
      <root>
        <mxCell id="0" />
        <mxCell id="1" parent="0" />
        <mxCell id="b05tRreRK-wASMQT4Ede-18" value="&lt;font style=&quot;font-size: 16px;&quot;&gt;Without CDN&lt;/font&gt;" style="rounded=1;whiteSpace=wrap;html=1;strokeColor=#7C8A9A;strokeWidth=1;fontColor=#212121;fillColor=none;dashed=1;fontFamily=VK Sans Display;verticalAlign=top;spacing=10;fontStyle=1;arcSize=12;absoluteArcSize=1;fontSize=16;" parent="1" vertex="1">
          <mxGeometry x="43" y="40" width="311" height="440" as="geometry" />
        </mxCell>
        <mxCell id="ORFmp-qxtVZmML3bKdfE-1" value="" style="shape=image;verticalLabelPosition=bottom;labelBackgroundColor=default;verticalAlign=top;aspect=fixed;imageAspect=0;image=data:image/svg+xml,PHN2ZyB4bWxucz0iaHR0cDovL3d3dy53My5vcmcvMjAwMC9zdmciIGZpbGw9Im5vbmUiIHZpZXdCb3g9IjAgMCAyOCAyOCIgaGVpZ2h0PSIyOCIgd2lkdGg9IjI4Ij4mI3hhOzxwYXRoIGZpbGw9IiMyNjg4RUIiIGQ9Ik0xNy41IDguNUMxNy41IDYuNTY2MDMgMTUuOTM0IDUgMTQgNUMxMi4wNjYgNSAxMC41IDYuNTY2MDMgMTAuNSA4LjVDMTAuNSAxMC40MzQgMTIuMDY2IDEyIDE0IDEyQzE1LjkzNCAxMiAxNy41IDEwLjQzNCAxNy41IDguNVpNMTkuNSA4LjVDMTkuNSAxMS41Mzg1IDE3LjAzODUgMTQgMTQgMTRDMTAuOTYxNSAxNCA4LjUgMTEuNTM4NSA4LjUgOC41QzguNSA1LjQ2MTQ3IDEwLjk2MTUgMyAxNCAzQzE3LjAzODUgMyAxOS41IDUuNDYxNDcgMTkuNSA4LjVaTTcgMjAuNjQyOUM3IDIxLjU4NjIgNi45MTk4NyAyMS41IDcuNDU1ODggMjEuNUgyMS4wNDQxQzIxLjU4MDEgMjEuNSAyMS41IDIxLjU4NjIgMjEuNSAyMC42NDI5QzIxLjUgMTguMzU0NyAxOC4xOTYgMTcgMTQuMjUgMTdDMTAuMzA0IDE3IDcgMTguMzU0NyA3IDIwLjY0MjlaTTUgMjAuNjQyOUM1IDE2Ljc2MjYgOS4yOTg5MiAxNSAxNC4yNSAxNUMxOS4yMDExIDE1IDIzLjUgMTYuNzYyNiAyMy41IDIwLjY0MjlDMjMuNSAyMi42NTkzIDIyLjcxODkgMjMuNSAyMS4wNDQxIDIzLjVINy40NTU4OEM1Ljc4MTExIDIzLjUgNSAyMi42NTkzIDUgMjAuNjQyOVoiLz4mI3hhOzwvc3ZnPg==;fontFamily=VK Sans Display;spacing=-7;fontColor=#212121;fontSize=16;" parent="1" vertex="1">
          <mxGeometry x="115" y="100" width="40" height="40" as="geometry" />
        </mxCell>
        <mxCell id="9j2e3ir7Lk6FHDookw-K-1" value="&lt;font style=&quot;font-size: 16px;&quot;&gt;With CDN&lt;/font&gt;" style="rounded=1;whiteSpace=wrap;html=1;strokeColor=#7C8A9A;strokeWidth=1;fontColor=#212121;fillColor=none;dashed=1;fontFamily=VK Sans Display;verticalAlign=top;spacing=10;fontStyle=1;arcSize=12;absoluteArcSize=1;" parent="1" vertex="1">
          <mxGeometry x="364" y="40" width="430" height="440" as="geometry" />
        </mxCell>
        <mxCell id="9j2e3ir7Lk6FHDookw-K-2" value="Origin&#xa;servers" style="shape=image;verticalLabelPosition=bottom;labelBackgroundColor=default;verticalAlign=bottom;aspect=fixed;imageAspect=0;image=data:image/svg+xml,PHN2ZyB4bWxucz0iaHR0cDovL3d3dy53My5vcmcvMjAwMC9zdmciIHhtbDpzcGFjZT0icHJlc2VydmUiIGlkPSJzdmcxIiB2ZXJzaW9uPSIxLjEiIGZpbGw9Im5vbmUiIHZpZXdCb3g9IjAgMCAzOC4wNzUyODcgMzQuNjkxNTUxIiBoZWlnaHQ9IjM0LjY5MTU1MSIgd2lkdGg9IjM4LjA3NTI4NyI+PGRlZnMgaWQ9ImRlZnMxIi8+PGcgdHJhbnNmb3JtPSJ0cmFuc2xhdGUoLTIuODY0NDQwMSwxNC4zNzUyNDYpIiBpZD0ibGF5ZXIxIj48cGF0aCBpZD0icGF0aDEiIGZpbGw9IiMwMDc3ZmYiIGQ9Im0gMi45ODE4MiwtOC4zOTc4MTkgYyAwLjEyOTY1MSwxLjAwNTMxIDAuNjEzMzQzMSwxLjg5MzA4IDEuMzE5OTkzMSwyLjUyOTUyIC0wLjcwNjY1LDAuNjM2NDMgLTEuMTkwMzQyMSwxLjUyNDE0OTUgLTEuMzE5OTkzMSwyLjUyOTU0OTUgLTAuMDM0MjIxLDAuMjY1MyAtMC4wMzQyMjEsMC41ODE0IC0wLjAzNDIyMSwxLjIxMzUgMCwwLjYzMjEgMCwwLjk0ODIgMC4wMzQyMjEsMS4yMTM0OTk5NiAwLjEyOTY1MSwxLjAwNTQgMC42MTMzNDMxLDEuODkzMSAxLjMxOTk5MzEsMi41Mjk2MDAwNCAtMC43MDY2NSwwLjYzNjQgLTEuMTkwMzQyMSwxLjUyNDIgLTEuMzE5OTkzMSwyLjUyOTUgLTAuMDM0MjIxLDAuMjY1MyAtMC4wMzQyMjEsMC41ODE0IC0wLjAzNDIyMSwxLjIxMzUgMCwwLjYzMjEgMCwwLjk0ODIgMC4wMzQyMjEsMS4yMTM1IDAuMjM2MzA4MSwxLjgzMjQgMS42NDg3NDMxLDMuMjc0MiAzLjQ0MzY3MzEsMy41MTU0OTk1IDAuMjU5OTMsMC4wMzQ5IDYuNTY5NTQ5OSwwLjAzNDkgNy4xODg3Njk5LDAuMDM0OSBoIDIuNjQ1ODUgYyAwLjU2Mzc5LDAgMS4wMjA4MywtMC40NTY5OTk1IDEuMDIwODMsLTEuMDIwNzk5NSAwLC0wLjU2MzggLTAuNDU3MDQsLTEuMDIwOSAtMS4wMjA4MywtMS4wMjA5IGggLTIuNjQ1ODUgYyAtMC42ODI4LDAgLTYuODMwNTA5OSwtMC4wMDQ0IC02LjkyNzcxOTksLTAuMDE3NCAtMC44OTc0NiwtMC4xMjA2IC0xLjYwMzY4LC0wLjg0MTYgLTEuNzIxODMsLTEuNzU3NyAtMC4wMTI4LC0wLjA5OTMgLTAuMDE3MTEsLTAuMjUwMSAtMC4wMTcxMSwtMC45NDcxIDAsLTAuNjk3IDAuMDA0MzEsLTAuODQ3OCAwLjAxNzExLC0wLjk0NyAwLjExODE1LC0wLjkxNjIgMC44MjQzNywtMS42MzcxIDEuNzIxODMsLTEuNzU3NyAwLjA5NzIxLC0wLjAxMzEgMC4yNDQ5MywtMC4wMTc1IDAuOTI3NzIsLTAuMDE3NSBoIDIuNjY2Njc5OSA1IDIuNTk0NCBjIDIuNDkxMSwwIDMuNTc4MiwtMS44MzcxMDAwNCAzLjcwNDcsLTMuNTUwNDAwMDQgMC4wMzQyLC0wLjQ2MzQ5OTk2IDAuMDM0MiwtMC41ODEzOTk5NiAwLjAzNDIsLTEuMjEzNDk5OTYgMCwtMC42MzIxIDAsLTAuOTQ4MiAtMC4wMzQyLC0xLjIxMzUgLTAuMTI5NywtMS4wMDU0IC0wLjYxMzMsLTEuODkzMTE5NSAtMS4zMiwtMi41Mjk1NDk1IDAuNzA2NywtMC42MzY0NCAxLjE5MDMsLTEuNTI0MjEgMS4zMiwtMi41Mjk1MiAwLjAzNDIsLTAuMjY1MzUgMC4wMzQyLC0wLjU4MTQxIDAuMDM0MiwtMS4yMTM1NCAwLC0wLjYzMjEzIDAsLTAuOTQ4MTkgLTAuMDM0MiwtMS4yMTM1NCAtMC4yMzYzLC0xLjgzMjMzIC0xLjY0ODcsLTMuMjc0MTg2IC0zLjQ0MzcsLTMuNTE1NDE3IC0wLjI1OTksLTAuMDM0OTMgLTAuNTY5NSwtMC4wMzQ5MyAtMS4xODg3LC0wLjAzNDkzIEggNy42MTQyNjMxIGMgLTAuNjE5MjIsMCAtMC45Mjg4NCwwIC0xLjE4ODc3LDAuMDM0OTMgLTEuNzk0OTMsMC4yNDEyMzQgLTMuMjA3MzY1LDEuNjgzMDkgLTMuNDQzNjczMSwzLjUxNTQyIC0wLjAzNDIyMSwwLjI2NTM1IC0wLjAzNDIyMSwwLjU4MTQxIC0wLjAzNDIyMSwxLjIxMzU0IDAsMC42MzIxMyAwLDAuOTQ4MTkgMC4wMzQyMjEsMS4yMTM1NCB6IG0gMTMuOTY1ODIzLC0zLjkzNTc2IEggNy42MTQyNjMxIGMgLTAuNjgyNzksMCAtMC44MzA1MSwwLjAwNDQgLTAuOTI3NzIsMC4wMTc0NiAtMC44OTc0NiwwLjEyMDYyIC0xLjYwMzY4LDAuODQxNTUgLTEuNzIxODMsMS43NTc3MSAtMC4wMTI4LDAuMDk5MjMgLTAuMDE3MTEsMC4yNTAwMyAtMC4wMTcxMSwwLjk0NzA1IDAsMC42OTcwMiAwLjAwNDMxLDAuODQ3ODIgMC4wMTcxMSwwLjk0NzA1IDAuMTE4MTUsMC45MTYxNiAwLjgyNDM3LDEuNjM3MDkgMS43MjE4MywxLjc1NzcgMC4wOTcyMSwwLjAxMzA3IDAuMjQ0OTIsMC4wMTc0NyAwLjkyNzcyLDAuMDE3NDcgaCA5LjMzMzM3OTkgYyAwLjY4MjgsMCAwLjgzMDUsLTAuMDA0NCAwLjkyNzcsLTAuMDE3NDcgMC44OTc0LC0wLjEyMDYxIDEuNjAzNywtMC44NDE1NCAxLjcyMTgsLTEuNzU3NyAwLjAxMjgsLTAuMDk5MjMgMC4wMTcxLC0wLjI1MDAzIDAuMDE3MSwtMC45NDcwNSAwLC0wLjY5NzAyIC0wLjAwNDMsLTAuODQ3ODIgLTAuMDE3MSwtMC45NDcwNSAtMC4xMTgxLC0wLjkxNjE2IC0wLjgyNDQsLTEuNjM3MDkgLTEuNzIxOCwtMS43NTc3MSAtMC4wOTcyLC0wLjAxMzA2IC0wLjI0NDksLTAuMDE3NDYgLTAuOTI3NywtMC4wMTc0NiB6IG0gMCwxMi45MzA1Mjk0NiBjIDAuNjgyOCwwIDAuODMwNSwtMC4wMDQ0IDAuOTI3NywtMC4wMTc0IDAuODk3NCwtMC4xMjA3IDEuNjAzNywtMC44NDE2IDEuNzIxOCwtMS43NTc3OTk5NiAwLjAxMjgsLTAuMDk5MiAwLjAxNzEsLTAuMjUgMC4wMTcxLC0wLjk0NyAwLC0wLjY5NyAtMC4wMDQzLC0wLjg0NzggLTAuMDE3MSwtMC45NDcgLTAuMTE4MSwtMC45MTYyIC0wLjgyNDQsLTEuNjM3MTQgLTEuNzIxOCwtMS43NTc3NDk1IC0wLjA5NzIsLTAuMDEzMDcgLTAuMjQ0OSwtMC4wMTc0NyAtMC45Mjc3LC0wLjAxNzQ3IEggNy42MTQyNjMxIGMgLTAuNjgyNzksMCAtMC44MzA1MSwwLjAwNDQgLTAuOTI3NzIsMC4wMTc0NyAtMC44OTc0NiwwLjEyMDYwOTUgLTEuNjAzNjgsMC44NDE1NDk1IC0xLjcyMTgzLDEuNzU3NzQ5NSAtMC4wMTI4LDAuMDk5MiAtMC4wMTcxMSwwLjI1IC0wLjAxNzExLDAuOTQ3IDAsMC42OTcgMC4wMDQzMSwwLjg0NzggMC4wMTcxMSwwLjk0NyAwLjExODE1LDAuOTE2MTk5OTYgMC44MjQzNywxLjYzNzA5OTk2IDEuNzIxODMsMS43NTc3OTk5NiAwLjA5NzIxLDAuMDEzIDAuMjQ0OTIsMC4wMTc0IDAuOTI3NzIsMC4wMTc0IGggMi42NjY2Nzk5IHoiIGNsaXAtcnVsZT0iZXZlbm9kZCIgZmlsbC1ydWxlPSJldmVub2RkIi8+PC9nPjxwYXRoIHN0eWxlPSJmaWxsOiMwMDc3ZmY7ZmlsbC1vcGFjaXR5OjEiIGlkPSJwYXRoMS05IiBmaWxsPSIjMDA3N2ZmIiBkPSJtIDM4LjA0MTA2Nyw1Ljk3NzQyNyBjIC0wLjEyOTY1MSwxLjAwNTMxIC0wLjYxMzM0MywxLjg5MzA4IC0xLjMxOTk5MywyLjUyOTUyIDAuNzA2NjUsMC42MzY0MzAxIDEuMTkwMzQyLDEuNTI0MTUgMS4zMTk5OTMsMi41Mjk1NSAwLjAzNDIyLDAuMjY1MyAwLjAzNDIyLDAuNTgxNCAwLjAzNDIyLDEuMjEzNSAwLDAuNjMyMSAwLDAuOTQ4MiAtMC4wMzQyMiwxLjIxMzUgLTAuMTI5NjUxLDEuMDA1NCAtMC42MTMzNDMsMS44OTMxIC0xLjMxOTk5MywyLjUyOTYgMC43MDY2NSwwLjYzNjQgMS4xOTAzNDIsMS41MjQyIDEuMzE5OTkzLDIuNTI5NSAwLjAzNDIyLDAuMjY1MyAwLjAzNDIyLDAuNTgxNCAwLjAzNDIyLDEuMjEzNSAwLDAuNjMyMSAwLDAuOTQ4MiAtMC4wMzQyMiwxLjIxMzUgLTAuMjM2MzA3LDEuODMyNCAtMS42NDg3NDIsMy4yNzQyIC0zLjQ0MzY3MiwzLjUxNTUgLTAuMjU5OTMsMC4wMzQ5IC02LjU2OTU1LDAuMDM0OSAtNy4xODg3NywwLjAzNDkgaCAtMi42NDU4NSBjIC0wLjU2Mzc5LDAgLTEuMDIwODMsLTAuNDU3IC0xLjAyMDgzLC0xLjAyMDggMCwtMC41NjM4IDAuNDU3MDQsLTEuMDIwOSAxLjAyMDgzLC0xLjAyMDkgaCAyLjY0NTg1IGMgMC42ODI4LDAgNi44MzA1MSwtMC4wMDQ0IDYuOTI3NzIsLTAuMDE3NCAwLjg5NzQ2LC0wLjEyMDYgMS42MDM2OCwtMC44NDE2IDEuNzIxODMsLTEuNzU3NyAwLjAxMjgsLTAuMDk5MyAwLjAxNzExLC0wLjI1MDEgMC4wMTcxMSwtMC45NDcxIDAsLTAuNjk3IC0wLjAwNDMsLTAuODQ3OCAtMC4wMTcxMSwtMC45NDcgLTAuMTE4MTUsLTAuOTE2MiAtMC44MjQzNywtMS42MzcxIC0xLjcyMTgzLC0xLjc1NzcgLTAuMDk3MjEsLTAuMDEzMSAtMC4yNDQ5MywtMC4wMTc1IC0wLjkyNzcyLC0wLjAxNzUgaCAtMi42NjY2OCAtNSAtMi41OTQ0IGMgLTIuNDkxMSwwIC0zLjU3ODIsLTEuODM3MSAtMy43MDQ3LC0zLjU1MDQgLTAuMDM0MiwtMC40NjM1IC0wLjAzNDIsLTAuNTgxNCAtMC4wMzQyLC0xLjIxMzUgMCwtMC42MzIxIDAsLTAuOTQ4MiAwLjAzNDIsLTEuMjEzNSAwLjEyOTcsLTEuMDA1NCAwLjYxMzMsLTEuODkzMTE5OSAxLjMyLC0yLjUyOTU1IC0wLjcwNjcsLTAuNjM2NDQgLTEuMTkwMywtMS41MjQyMSAtMS4zMiwtMi41Mjk1MiAtMC4wMzQyLC0wLjI2NTM0OTkgLTAuMDM0MiwtMC41ODE0MSAtMC4wMzQyLC0xLjIxMzU0IDAsLTAuNjMyMTMgMCwtMC45NDgxOSAwLjAzNDIsLTEuMjEzNTM5OSAwLjIzNjMsLTEuODMyMzMgMS42NDg3LC0zLjI3NDE4NjEgMy40NDM3LC0zLjUxNTQxNzEgQyAyMy4xNDY0NDQsMCAyMy40NTYwNDQsMCAyNC4wNzUyNDQsMCBoIDkuMzMzMzggYyAwLjYxOTIyLDAgMC45Mjg4NCwwIDEuMTg4NzcsMC4wMzQ5MyAxLjc5NDkzLDAuMjQxMjM0IDMuMjA3MzY1LDEuNjgzMDkgMy40NDM2NzMsMy41MTU0MjAxIDAuMDM0MjIsMC4yNjUzNSAwLjAzNDIyLDAuNTgxNDA5OSAwLjAzNDIyLDEuMjEzNTM5OSAwLDAuNjMyMTMgMCwwLjk0ODE5IC0wLjAzNDIyLDEuMjEzNTQgeiBNIDI0LjA3NTI0NCwyLjA0MTY2NzEgaCA5LjMzMzM4IGMgMC42ODI3OSwwIDAuODMwNTEsMC4wMDQ0IDAuOTI3NzIsMC4wMTc0NiAwLjg5NzQ2LDAuMTIwNjIgMS42MDM2OCwwLjg0MTU1IDEuNzIxODMsMS43NTc3MSAwLjAxMjgsMC4wOTkyMyAwLjAxNzExLDAuMjUwMDI5OSAwLjAxNzExLDAuOTQ3MDQ5OSAwLDAuNjk3MDIwMSAtMC4wMDQzLDAuODQ3ODIwMSAtMC4wMTcxMSwwLjk0NzA1IC0wLjExODE1LDAuOTE2MTYgLTAuODI0MzcsMS42MzcwOSAtMS43MjE4MywxLjc1NzcgLTAuMDk3MjEsMC4wMTMwNyAtMC4yNDQ5MiwwLjAxNzQ3IC0wLjkyNzcyLDAuMDE3NDcgaCAtOS4zMzMzOCBjIC0wLjY4MjgsMCAtMC44MzA1LC0wLjAwNDQgLTAuOTI3NywtMC4wMTc0NyAtMC44OTc0LC0wLjEyMDYxIC0xLjYwMzcsLTAuODQxNTQgLTEuNzIxOCwtMS43NTc3IC0wLjAxMjgsLTAuMDk5MjMgLTAuMDE3MSwtMC4yNTAwMjk5IC0wLjAxNzEsLTAuOTQ3MDUgMCwtMC42OTcwMiAwLjAwNDMsLTAuODQ3ODIgMC4wMTcxLC0wLjk0NzA0OTkgMC4xMTgxLC0wLjkxNjE2IDAuODI0NCwtMS42MzcwOSAxLjcyMTgsLTEuNzU3NzEwMSAwLjA5NzIsLTAuMDEzMDYgMC4yNDQ5LC0wLjAxNzQ2IDAuOTI3NywtMC4wMTc0NiB6IG0gMCwxMi45MzA1Mjk5IGMgLTAuNjgyOCwwIC0wLjgzMDUsLTAuMDA0NCAtMC45Mjc3LC0wLjAxNzQgLTAuODk3NCwtMC4xMjA3IC0xLjYwMzcsLTAuODQxNiAtMS43MjE4LC0xLjc1NzggLTAuMDEyOCwtMC4wOTkyIC0wLjAxNzEsLTAuMjUgLTAuMDE3MSwtMC45NDcgMCwtMC42OTcgMC4wMDQzLC0wLjg0NzggMC4wMTcxLC0wLjk0NyAwLjExODEsLTAuOTE2MiAwLjgyNDQsLTEuNjM3MTM5OSAxLjcyMTgsLTEuNzU3NzQ5OSAwLjA5NzIsLTAuMDEzMDcgMC4yNDQ5LC0wLjAxNzQ3IDAuOTI3NywtMC4wMTc0NyBoIDkuMzMzMzggYyAwLjY4Mjc5LDAgMC44MzA1MSwwLjAwNDQgMC45Mjc3MiwwLjAxNzQ3IDAuODk3NDYsMC4xMjA2MSAxLjYwMzY4LDAuODQxNTQ5OSAxLjcyMTgzLDEuNzU3NzQ5OSAwLjAxMjgsMC4wOTkyIDAuMDE3MTEsMC4yNSAwLjAxNzExLDAuOTQ3IDAsMC42OTcgLTAuMDA0MywwLjg0NzggLTAuMDE3MTEsMC45NDcgLTAuMTE4MTUsMC45MTYyIC0wLjgyNDM3LDEuNjM3MSAtMS43MjE4MywxLjc1NzggLTAuMDk3MjEsMC4wMTMgLTAuMjQ0OTIsMC4wMTc0IC0wLjkyNzcyLDAuMDE3NCBoIC0yLjY2NjY4IHoiIGNsaXAtcnVsZT0iZXZlbm9kZCIgZmlsbC1ydWxlPSJldmVub2RkIi8+PGcgdHJhbnNmb3JtPSJ0cmFuc2xhdGUoLTIuODY0NDQwMSwxNC4zNzUyNDYpIiBpZD0ibGF5ZXIyIi8+PGcgdHJhbnNmb3JtPSJ0cmFuc2xhdGUoLTIuODY0NDQwMSwxNC4zNzUyNDYpIiBpZD0ibGF5ZXI0Ij48cmVjdCByeT0iMC4zMDU5MjIiIHk9Ii00LjE3NTExNDYiIHg9IjE0LjA1MjA2NyIgaGVpZ2h0PSIyNC40MjI3ODMiIHdpZHRoPSIxNS42MTg4NTIiIGlkPSJyZWN0MiIgc3R5bGU9ImZpbGw6I2ZmZmZmZjtmaWxsLXJ1bGU6ZXZlbm9kZDtzdHJva2Utd2lkdGg6MC44MjE4NjciLz48ZyB0cmFuc2Zvcm09InRyYW5zbGF0ZSgxMS45ODUyODQsLTQuMjUxNzQ4KSIgaWQ9ImcyIiBzdHlsZT0iZmlsbDpub25lIj48ZyBpZD0ibGF5ZXIxLTIiPjxwYXRoIGlkPSJwYXRoMS02IiBmaWxsPSIjMDA3N2ZmIiBkPSJNIDAuNzAwODc3LDUuOTc3NDMgQyAwLjgzMDUyOCw2Ljk4Mjc0IDEuMzE0MjIsNy44NzA1MSAyLjAyMDg3LDguNTA2OTUgMS4zMTQyMiw5LjE0MzM4IDAuODMwNTI4LDEwLjAzMTEgMC43MDA4NzcsMTEuMDM2NSAwLjY2NjY1NiwxMS4zMDE4IDAuNjY2NjU2LDExLjYxNzkgMC42NjY2NTYsMTIuMjUgYyAwLDAuNjMyMSAwLDAuOTQ4MiAwLjAzNDIyMSwxLjIxMzUgMC4xMjk2NTEsMS4wMDU0IDAuNjEzMzQzLDEuODkzMSAxLjMxOTk5MywyLjUyOTYgLTAuNzA2NjUsMC42MzY0IC0xLjE5MDM0MiwxLjUyNDIgLTEuMzE5OTkzLDIuNTI5NSAtMC4wMzQyMjEsMC4yNjUzIC0wLjAzNDIyMSwwLjU4MTQgLTAuMDM0MjIxLDEuMjEzNSAwLDAuNjMyMSAwLDAuOTQ4MiAwLjAzNDIyMSwxLjIxMzUgQyAwLjkzNzE4NSwyMi43ODIgMi4zNDk2MiwyNC4yMjM4IDQuMTQ0NTUsMjQuNDY1MSA0LjQwNDQ4LDI0LjUgMTAuNzE0MSwyNC41IDExLjMzMzMyLDI0LjUgaCA0LjY0NTg1IEMgMTYuNTQyOTYsMjQuNSAxNywyNC4wNDMgMTcsMjMuNDc5MiAxNywyMi45MTU0IDE2LjU0Mjk2LDIyLjQ1ODMgMTUuOTc5MTcsMjIuNDU4MyBoIC00LjY0NTg1IGMgLTAuNjgyOCwwIC02LjgzMDUxLC0wLjAwNDQgLTYuOTI3NzIsLTAuMDE3NCBDIDMuNTA4MTQsMjIuMzIwMyAyLjgwMTkyLDIxLjU5OTMgMi42ODM3NywyMC42ODMyIDIuNjcwOTcsMjAuNTgzOSAyLjY2NjY2LDIwLjQzMzEgMi42NjY2NiwxOS43MzYxIGMgMCwtMC42OTcgMC4wMDQzMSwtMC44NDc4IDAuMDE3MTEsLTAuOTQ3IEMgMi44MDE5MiwxNy44NzI5IDMuNTA4MTQsMTcuMTUyIDQuNDA1NiwxNy4wMzE0IDQuNTAyODEsMTcuMDE4MyA0LjY1MDUzLDE3LjAxMzkgNS4zMzMzMiwxNy4wMTM5IEggOCBoIDUgMi41OTQ0IGMgMi40OTExLDAgMy41NzgyLC0xLjgzNzEgMy43MDQ3LC0zLjU1MDQgMC4wMzQyLC0wLjQ2MzUgMC4wMzQyLC0wLjU4MTQgMC4wMzQyLC0xLjIxMzUgMCwtMC42MzIxIDAsLTAuOTQ4MiAtMC4wMzQyLC0xLjIxMzUgLTAuMTI5NywtMS4wMDU0IC0wLjYxMzMsLTEuODkzMTIgLTEuMzIsLTIuNTI5NTUgMC43MDY3LC0wLjYzNjQ0IDEuMTkwMywtMS41MjQyMSAxLjMyLC0yLjUyOTUyIDAuMDM0MiwtMC4yNjUzNSAwLjAzNDIsLTAuNTgxNDEgMC4wMzQyLC0xLjIxMzU0IDAsLTAuNjMyMTMgMCwtMC45NDgxOSAtMC4wMzQyLC0xLjIxMzU0IEMgMTkuMDYyOCwxLjcxODAyIDE3LjY1MDQsMC4yNzYxNjQgMTUuODU1NCwwLjAzNDkzMzQgMTUuNTk1NSwwIDE1LjI4NTksMCAxNC42NjY3LDAgSCA1LjMzMzMyIEMgNC43MTQxLDAgNC40MDQ0OCwwIDQuMTQ0NTUsMC4wMzQ5MzM0IDIuMzQ5NjIsMC4yNzYxNjQgMC45MzcxODUsMS43MTgwMiAwLjcwMDg3NywzLjU1MDM1IDAuNjY2NjU2LDMuODE1NyAwLjY2NjY1Niw0LjEzMTc2IDAuNjY2NjU2LDQuNzYzODkgYyAwLDAuNjMyMTMgMCwwLjk0ODE5IDAuMDM0MjIxLDEuMjEzNTQgeiBNIDE0LjY2NjcsMi4wNDE2NyBIIDUuMzMzMzIgYyAtMC42ODI3OSwwIC0wLjgzMDUxLDAuMDA0NCAtMC45Mjc3MiwwLjAxNzQ2IEMgMy41MDgxNCwyLjE3OTc1IDIuODAxOTIsMi45MDA2OCAyLjY4Mzc3LDMuODE2ODQgMi42NzA5NywzLjkxNjA3IDIuNjY2NjYsNC4wNjY4NyAyLjY2NjY2LDQuNzYzODkgYyAwLDAuNjk3MDIgMC4wMDQzMSwwLjg0NzgyIDAuMDE3MTEsMC45NDcwNSAwLjExODE1LDAuOTE2MTYgMC44MjQzNywxLjYzNzA5IDEuNzIxODMsMS43NTc3IDAuMDk3MjEsMC4wMTMwNyAwLjI0NDkyLDAuMDE3NDcgMC45Mjc3MiwwLjAxNzQ3IGggOS4zMzMzOCBjIDAuNjgyOCwwIDAuODMwNSwtMC4wMDQ0IDAuOTI3NywtMC4wMTc0NyAwLjg5NzQsLTAuMTIwNjEgMS42MDM3LC0wLjg0MTU0IDEuNzIxOCwtMS43NTc3IDAuMDEyOCwtMC4wOTkyMyAwLjAxNzEsLTAuMjUwMDMgMC4wMTcxLC0wLjk0NzA1IDAsLTAuNjk3MDIgLTAuMDA0MywtMC44NDc4MiAtMC4wMTcxLC0wLjk0NzA1IEMgMTcuMTk4MSwyLjkwMDY4IDE2LjQ5MTgsMi4xNzk3NSAxNS41OTQ0LDIuMDU5MTMgMTUuNDk3MiwyLjA0NjA3IDE1LjM0OTUsMi4wNDE2NyAxNC42NjY3LDIuMDQxNjcgWiBtIDAsMTIuOTMwNTMgYyAwLjY4MjgsMCAwLjgzMDUsLTAuMDA0NCAwLjkyNzcsLTAuMDE3NCAwLjg5NzQsLTAuMTIwNyAxLjYwMzcsLTAuODQxNiAxLjcyMTgsLTEuNzU3OCAwLjAxMjgsLTAuMDk5MiAwLjAxNzEsLTAuMjUgMC4wMTcxLC0wLjk0NyAwLC0wLjY5NyAtMC4wMDQzLC0wLjg0NzggLTAuMDE3MSwtMC45NDcgQyAxNy4xOTgxLDEwLjM4NjggMTYuNDkxOCw5LjY2NTg2IDE1LjU5NDQsOS41NDUyNSAxNS40OTcyLDkuNTMyMTggMTUuMzQ5NSw5LjUyNzc4IDE0LjY2NjcsOS41Mjc3OCBIIDUuMzMzMzIgYyAtMC42ODI3OSwwIC0wLjgzMDUxLDAuMDA0NCAtMC45Mjc3MiwwLjAxNzQ3IC0wLjg5NzQ2LDAuMTIwNjEgLTEuNjAzNjgsMC44NDE1NSAtMS43MjE4MywxLjc1Nzc1IC0wLjAxMjgsMC4wOTkyIC0wLjAxNzExLDAuMjUgLTAuMDE3MTEsMC45NDcgMCwwLjY5NyAwLjAwNDMxLDAuODQ3OCAwLjAxNzExLDAuOTQ3IDAuMTE4MTUsMC45MTYyIDAuODI0MzcsMS42MzcxIDEuNzIxODMsMS43NTc4IDAuMDk3MjEsMC4wMTMgMC4yNDQ5MiwwLjAxNzQgMC45Mjc3MiwwLjAxNzQgSCA4IFoiIGNsaXAtcnVsZT0iZXZlbm9kZCIgZmlsbC1ydWxlPSJldmVub2RkIi8+PHBhdGggaWQ9InBhdGgxLTQiIGZpbGw9IiMwMDc3ZmYiIGQ9Im0gMC41NzcxMDgsMTguNTU3NTAzIGMgMC4xMjk2NTEsLTEuMDA1MzEgMC42MTMzNDMsLTEuODkzMDggMS4zMTk5OTMsLTIuNTI5NTIgLTAuNzA2NjUsLTAuNjM2NDMgLTEuMTkwMzQyLC0xLjUyNDE1IC0xLjMxOTk5MywtMi41Mjk1NSAtMC4wMzQyMjEsLTAuMjY1MyAtMC4wMzQyMjEsLTAuNTgxNCAtMC4wMzQyMjEsLTEuMjEzNSAwLC0wLjYzMjEgMCwtMC45NDgyIDAuMDM0MjIsLTEuMjEzNSAwLjEyOTY1MSwtMS4wMDU0IDAuNjEzMzQzLC0xLjg5MzEgMS4zMTk5OTMsLTIuNTI5NiBDIDEuMTkwNDUsNy45MDU0MzM0IDAuNzA2NzU4LDcuMDE3NjMzNCAwLjU3NzEwNyw2LjAxMjMzMzQgYyAtMC4wMzQyMiwtMC4yNjUzIC0wLjAzNDIyLC0wLjU4MTQgLTAuMDM0MjIsLTEuMjEzNSAwLC0wLjYzMjEgMCwtMC45NDgyIDAuMDM0MjIsLTEuMjEzNSAwLjIzNjMwOCwtMS44MzI0IDEuNjQ4NzQzLC0zLjI3NDIgMy40NDM2NzMsLTMuNTE1NSAwLjI1OTkzLC0wLjAzNDkgNi41Njk1NSwtMC4wMzQ5IDcuMTg4NzcsLTAuMDM0OSBoIDQuNjQ1ODUgYyAwLjU2Mzc5LDAgMS4wMjA4MywwLjQ1NyAxLjAyMDgzLDEuMDIwOCAwLDAuNTYzOCAtMC40NTcwNCwxLjAyMDkgLTEuMDIwODMsMS4wMjA5IGggLTQuNjQ1ODUgYyAtMC42ODI4LDAgLTYuODMwNTEsMC4wMDQ0IC02LjkyNzcyLDAuMDE3NCAtMC44OTc0NiwwLjEyMDYgLTEuNjAzNjgsMC44NDE2IC0xLjcyMTgzLDEuNzU3NyAtMC4wMTI4LDAuMDk5MyAtMC4wMTcxMSwwLjI1MDEgLTAuMDE3MTEsMC45NDcxIDAsMC42OTcgMC4wMDQzLDAuODQ3OCAwLjAxNzExLDAuOTQ3IDAuMTE4MTUsMC45MTYyIDAuODI0MzcsMS42MzcxIDEuNzIxODMsMS43NTc3IDAuMDk3MjEsMC4wMTMxIDAuMjQ0OTMsMC4wMTc1IDAuOTI3NzIsMC4wMTc1IGggMi42NjY2OCA1IDIuNTk0NCBjIDIuNDkxMSwwIDMuNTc4MiwxLjgzNzA5OTYgMy43MDQ3LDMuNTUwMzk5NiAwLjAzNDIsMC40NjM1IDAuMDM0MiwwLjU4MTQgMC4wMzQyLDEuMjEzNSAwLDAuNjMyMSAwLDAuOTQ4MiAtMC4wMzQyLDEuMjEzNSAtMC4xMjk3LDEuMDA1NCAtMC42MTMzLDEuODkzMTIgLTEuMzIsMi41Mjk1NSAwLjcwNjcsMC42MzY0NCAxLjE5MDMsMS41MjQyMSAxLjMyLDIuNTI5NTIgMC4wMzQyLDAuMjY1MzUgMC4wMzQyLDAuNTgxNDEgMC4wMzQyLDEuMjEzNTQgMCwwLjYzMjEzIDAsMC45NDgxOSAtMC4wMzQyLDEuMjEzNTQgLTAuMjM2MywxLjgzMjMzIC0xLjY0ODcsMy4yNzQxODYgLTMuNDQzNywzLjUxNTQxNyAtMC4yNTk4OTksMC4wMzQ5MyAtMC41Njk0OTksMC4wMzQ5MyAtMS4xODg2OTksMC4wMzQ5MyBoIC05LjMzMzM4IGMgLTAuNjE5MjIsMCAtMC45Mjg4NCwwIC0xLjE4ODc3LC0wLjAzNDkzIC0xLjc5NDkzLC0wLjI0MTIzMSAtMy4yMDczNjUsLTEuNjgzMDg3IC0zLjQ0MzY3MywtMy41MTU0MTcgLTAuMDM0MjIxLC0wLjI2NTM1IC0wLjAzNDIyMSwtMC41ODE0MSAtMC4wMzQyMjEsLTEuMjEzNTQgMCwtMC42MzIxMyAwLC0wLjk0ODE5IDAuMDM0MjIxLC0xLjIxMzU0IHogbSAxMy45NjU4MjMsMy45MzU3NiBoIC05LjMzMzM4IGMgLTAuNjgyNzksMCAtMC44MzA1MSwtMC4wMDQ0IC0wLjkyNzcyLC0wLjAxNzQ2IC0wLjg5NzQ2LC0wLjEyMDYyIC0xLjYwMzY4LC0wLjg0MTU1IC0xLjcyMTgzLC0xLjc1NzcxIC0wLjAxMjgsLTAuMDk5MjMgLTAuMDE3MTEsLTAuMjUwMDMgLTAuMDE3MTEsLTAuOTQ3MDUgMCwtMC42OTcwMiAwLjAwNDMsLTAuODQ3ODIgMC4wMTcxMSwtMC45NDcwNSAwLjExODE1LC0wLjkxNjE2IDAuODI0MzcsLTEuNjM3MDkgMS43MjE4MywtMS43NTc3IDAuMDk3MjEsLTAuMDEzMDcgMC4yNDQ5MiwtMC4wMTc0NyAwLjkyNzcyLC0wLjAxNzQ3IGggOS4zMzMzOCBjIDAuNjgyOCwwIDAuODMwNSwwLjAwNDQgMC45Mjc3LDAuMDE3NDcgMC44OTc0LDAuMTIwNjEgMS42MDM3LDAuODQxNTQgMS43MjE4LDEuNzU3NyAwLjAxMjgsMC4wOTkyMyAwLjAxNzEsMC4yNTAwMyAwLjAxNzEsMC45NDcwNSAwLDAuNjk3MDIgLTAuMDA0MywwLjg0NzgyIC0wLjAxNzEsMC45NDcwNSAtMC4xMTgxLDAuOTE2MTYgLTAuODI0NCwxLjYzNzA5IC0xLjcyMTgsMS43NTc3MSAtMC4wOTcyLDAuMDEzMDYgLTAuMjQ0OSwwLjAxNzQ2IC0wLjkyNzcsMC4wMTc0NiB6IG0gMCwtMTIuOTMwNTMgYyAwLjY4MjgsMCAwLjgzMDUsMC4wMDQ0IDAuOTI3NywwLjAxNzQgMC44OTc0LDAuMTIwNyAxLjYwMzcsMC44NDE2IDEuNzIxOCwxLjc1NzggMC4wMTI4LDAuMDk5MiAwLjAxNzEsMC4yNSAwLjAxNzEsMC45NDcgMCwwLjY5NyAtMC4wMDQzLDAuODQ3OCAtMC4wMTcxLDAuOTQ3IC0wLjExODEsMC45MTYyIC0wLjgyNDQsMS42MzcxNCAtMS43MjE4LDEuNzU3NzUgLTAuMDk3MiwwLjAxMzA3IC0wLjI0NDksMC4wMTc0NyAtMC45Mjc3LDAuMDE3NDcgaCAtOS4zMzMzOCBjIC0wLjY4Mjc5LDAgLTAuODMwNTEsLTAuMDA0NCAtMC45Mjc3MiwtMC4wMTc0NyAtMC44OTc0NiwtMC4xMjA2MSAtMS42MDM2OCwtMC44NDE1NSAtMS43MjE4MywtMS43NTc3NSAtMC4wMTI4LC0wLjA5OTIgLTAuMDE3MTEsLTAuMjUgLTAuMDE3MTEsLTAuOTQ3IDAsLTAuNjk3IDAuMDA0MywtMC44NDc4IDAuMDE3MTEsLTAuOTQ3IDAuMTE4MTUsLTAuOTE2MiAwLjgyNDM3LC0xLjYzNzEgMS43MjE4MywtMS43NTc4IDAuMDk3MjEsLTAuMDEzIDAuMjQ0OTIsLTAuMDE3NCAwLjkyNzcyLC0wLjAxNzQgaCAyLjY2NjY4IHoiIGNsaXAtcnVsZT0iZXZlbm9kZCIgZmlsbC1ydWxlPSJldmVub2RkIi8+PC9nPjwvZz48L2c+PC9zdmc+;fontFamily=VK Sans Display;fontSize=16;" parent="1" vertex="1">
          <mxGeometry x="229.27999999999997" y="100" width="43.45" height="40" as="geometry" />
        </mxCell>
        <mxCell id="9j2e3ir7Lk6FHDookw-K-5" value="Servers&#xa;load" style="shape=image;verticalLabelPosition=bottom;labelBackgroundColor=default;verticalAlign=bottom;imageAspect=0;image=data:image/svg+xml,PHN2ZyB4bWxucz0iaHR0cDovL3d3dy53My5vcmcvMjAwMC9zdmciIGlkPSJzdmcxIiB2ZXJzaW9uPSIxLjEiIGZpbGw9Im5vbmUiIHZpZXdCb3g9IjAgMCAyOCAyOCIgaGVpZ2h0PSIyOCIgd2lkdGg9IjI4Ij4mI3hhOyAgPGRlZnMgaWQ9ImRlZnMxIi8+JiN4YTsgICYjeGE7ICA8cGF0aCBpZD0icGF0aDEiIGZpbGw9IiMyNjg4RUIiIGQ9Ik0xMi4zNTcyIDJIMTIuNEgxNS42SDE1LjY0MjhDMTYuNzI2NiAxLjk5OTk5IDE3LjYwMDcgMS45OTk5OCAxOC4zMDg2IDIuMDU3ODJDMTkuMDM3NSAyLjExNzM3IDE5LjY3NzcgMi4yNDMxOCAyMC4yNyAyLjU0NDk3QzIxLjIxMDggMy4wMjQzNCAyMS45NzU3IDMuNzg5MjQgMjIuNDU1IDQuNzMwMDVDMjIuNzU2OCA1LjMyMjM0IDIyLjg4MjYgNS45NjI1MyAyMi45NDIyIDYuNjkxMzhDMjMgNy4zOTkyMyAyMyA4LjI3MzM0IDIzIDkuMzU3MDZWOS4zNTcxN1Y5LjRWMTguNlYxOC42NDI4VjE4LjY0MjlDMjMgMTkuNzI2NyAyMyAyMC42MDA4IDIyLjk0MjIgMjEuMzA4NkMyMi44ODI2IDIyLjAzNzUgMjIuNzU2OCAyMi42Nzc3IDIyLjQ1NSAyMy4yN0MyMS45NzU3IDI0LjIxMDggMjEuMjEwOCAyNC45NzU3IDIwLjI3IDI1LjQ1NUMxOS42Nzc3IDI1Ljc1NjggMTkuMDM3NSAyNS44ODI2IDE4LjMwODYgMjUuOTQyMkMxNy42MDA4IDI2IDE2LjcyNjcgMjYgMTUuNjQyOSAyNkgxNS42NDI4SDE1LjZIMTIuNEgxMi4zNTcySDEyLjM1NzFDMTEuMjczMyAyNiAxMC4zOTkyIDI2IDkuNjkxMzggMjUuOTQyMkM4Ljk2MjUzIDI1Ljg4MjYgOC4zMjIzNCAyNS43NTY4IDcuNzMwMDUgMjUuNDU1QzYuNzg5MjQgMjQuOTc1NyA2LjAyNDMzIDI0LjIxMDggNS41NDQ5NyAyMy4yN0M1LjI0MzE4IDIyLjY3NzcgNS4xMTczNyAyMi4wMzc1IDUuMDU3ODIgMjEuMzA4NkM0Ljk5OTk4IDIwLjYwMDcgNC45OTk5OSAxOS43MjY2IDUgMTguNjQyOFYxOC42VjkuNFY5LjM1NzE5QzQuOTk5OTkgOC4yNzM0MSA0Ljk5OTk4IDcuMzk5MjYgNS4wNTc4MiA2LjY5MTM4QzUuMTE3MzcgNS45NjI1MyA1LjI0MzE4IDUuMzIyMzQgNS41NDQ5NyA0LjczMDA1QzYuMDI0MzMgMy43ODkyNCA2Ljc4OTI0IDMuMDI0MzQgNy43MzAwNSAyLjU0NDk3QzguMzIyMzQgMi4yNDMxOCA4Ljk2MjUzIDIuMTE3MzcgOS42OTEzOCAyLjA1NzgyQzEwLjM5OTMgMS45OTk5OCAxMS4yNzM0IDEuOTk5OTkgMTIuMzU3MiAySDEyLjM1NzJaTTkuODU0MjQgNC4wNTExOEM5LjI0OTA3IDQuMTAwNjIgOC45MDEzOCA0LjE5Mjc5IDguNjM4MDMgNC4zMjY5OEM4LjA3MzU0IDQuNjE0NiA3LjYxNDYgNS4wNzM1NCA3LjMyNjk4IDUuNjM4MDNDNy4xOTI3OSA1LjkwMTM4IDcuMTAwNjIgNi4yNDkwNyA3LjA1MTE4IDYuODU0MjRDNy4wMDA3OCA3LjQ3MTA4IDcgOC4yNjMzOSA3IDkuNFY5LjVMMjEgOS41VjkuNEMyMSA4LjI2MzM5IDIwLjk5OTIgNy40NzEwOCAyMC45NDg4IDYuODU0MjRDMjAuODk5NCA2LjI0OTA3IDIwLjgwNzIgNS45MDEzOCAyMC42NzMgNS42MzgwM0MyMC4zODU0IDUuMDczNTQgMTkuOTI2NSA0LjYxNDYgMTkuMzYyIDQuMzI2OThDMTkuMDk4NiA0LjE5Mjc5IDE4Ljc1MDkgNC4xMDA2MiAxOC4xNDU4IDQuMDUxMThDMTcuNTI4OSA0LjAwMDc4IDE2LjczNjYgNCAxNS42IDRIMTIuNEMxMS4yNjM0IDQgMTAuNDcxMSA0LjAwMDc4IDkuODU0MjQgNC4wNTExOFpNMjEgMTEuNUg3VjE2LjVMMjEgMTYuNVYxMS41Wk03IDE4LjZWMTguNUgyMVYxOC42QzIxIDE5LjczNjYgMjAuOTk5MiAyMC41Mjg5IDIwLjk0ODggMjEuMTQ1OEMyMC44OTk0IDIxLjc1MDkgMjAuODA3MiAyMi4wOTg2IDIwLjY3MyAyMi4zNjJDMjAuMzg1NCAyMi45MjY1IDE5LjkyNjUgMjMuMzg1NCAxOS4zNjIgMjMuNjczQzE5LjA5ODYgMjMuODA3MiAxOC43NTA5IDIzLjg5OTQgMTguMTQ1OCAyMy45NDg4QzE3LjUyODkgMjMuOTk5MiAxNi43MzY2IDI0IDE1LjYgMjRIMTIuNEMxMS4yNjM0IDI0IDEwLjQ3MTEgMjMuOTk5MiA5Ljg1NDI0IDIzLjk0ODhDOS4yNDkwNyAyMy44OTk0IDguOTAxMzggMjMuODA3MiA4LjYzODAzIDIzLjY3M0M4LjA3MzU0IDIzLjM4NTQgNy42MTQ2IDIyLjkyNjUgNy4zMjY5OCAyMi4zNjJDNy4xOTI3OSAyMi4wOTg2IDcuMTAwNjIgMjEuNzUwOSA3LjA1MTE4IDIxLjE0NThDNy4wMDA3OCAyMC41Mjg5IDcgMTkuNzM2NiA3IDE4LjZaIiBjbGlwLXJ1bGU9ImV2ZW5vZGQiIGZpbGwtcnVsZT0iZXZlbm9kZCIvPiYjeGE7ICA8cGF0aCBpZD0icGF0aDYiIGQ9Ik0gNy4wMTU2OTM5LDguNjc3Nzk5NiBDIDcuMDE4MDg0Niw3LjY3ODU5NzQgNy4wOTQ3NjQyLDYuNTIxMDk5MiA3LjE4MjYxNTgsNi4xNTgwNjkgNy4zNDEwMDg1LDUuNTAzNTQxNCA3Ljg5MDY2MTcsNC43ODUyODc5IDguNDk5MDE3Nyw0LjQzNzg3NDcgOS4xNDIwMjksNC4wNzA2NzEgOS4xNDExOTA4LDQuMDcwNzI2OSAxNCw0LjA3MDcyNjkgYyA0Ljg0ODIwNywwIDQuODYwMDQxLDcuNzg0ZS00IDUuNDg5ODI1LDAuMzYxMDc1NiAwLjYxNDk2MywwLjM1MTgxODkgMS4xNjk0MjMsMS4wNzI4MDA4IDEuMzI3NTU5LDEuNzI2MjY2NSAwLjA4Nzg1LDAuMzYzMDMwMiAwLjE2NDUzMiwxLjUyMDUyODQgMC4xNjY5MjIsMi41MTk3MzA2IGwgMC4wMDE5LDAuODExMzk0OSBIIDE0IDcuMDEzNzUyNSBaIiBzdHlsZT0iZmlsbDojZWZhZTk4O2ZpbGwtb3BhY2l0eToxO3N0cm9rZS13aWR0aDowLjA1NTAwOTgiLz4mI3hhOyAgPHBhdGggaWQ9InBhdGg3IiBkPSJNIDcuMDEzNzUyNSwxNCBWIDExLjUyNDU1OCBIIDE0IDIwLjk4NjI0OCBWIDE0IDE2LjQ3NTQ0MiBIIDE0IDcuMDEzNzUyNSBaIiBzdHlsZT0iZmlsbDojZWZhZTk4O2ZpbGwtb3BhY2l0eToxO3N0cm9rZS13aWR0aDowLjA1NTAwOTgiLz4mI3hhOyAgPHBhdGggaWQ9InBhdGg4IiBkPSJNIDkuNjQzNzgyNCwyMy45MDA5NDMgQyA5LjQ0MTM3OTUsMjMuODc2NDk0IDkuMTQ0MzI2NSwyMy44MTgxNjUgOC45ODM2NjQ2LDIzLjc3MTMyMiA4LjE3NTEwMjcsMjMuNTM1NTc5IDcuMzg4NTcwMiwyMi42OTI5OTggNy4xODI2MTU4LDIxLjg0MTkzMSA3LjA5NDc2NDIsMjEuNDc4OTAxIDcuMDE4MDg0NiwyMC4zMjE0MDMgNy4wMTU2OTM5LDE5LjMyMjIgbCAtMC4wMDE5NCwtMC44MTEzOTQgSCAxNCAyMC45ODYyNDggbCAtMC4wMDE5LDAuODExMzk0IGMgLTAuMDAyNCwwLjk5OTIwMyAtMC4wNzkwNywyLjE1NjcwMSAtMC4xNjY5MjIsMi41MTk3MzEgLTAuMjIxMDc1LDAuOTEzNTUxIC0xLjA0MDg3NywxLjczNTU2NCAtMS45ODAyNDIsMS45ODU1ODIgLTAuMzE3NDE4LDAuMDg0NDggLTAuNzg5ODU3LDAuMDk1NCAtNC41ODk1OTgsMC4xMDYwMyAtMi4zMjk2NjYsMC4wMDY1IC00LjQwMTM1ODYsLTAuMDA4MiAtNC42MDM3NjE2LC0wLjAzMjYgeiIgc3R5bGU9ImZpbGw6I2VmYWU5ODtmaWxsLW9wYWNpdHk6MTtzdHJva2Utd2lkdGg6MC4wNTUwMDk4Ii8+JiN4YTsgIDxwYXRoIGlkPSJwYXRoOSIgZD0iTSA3LjAxNTEwMTQsOS4zMzc5MTc1IEMgNy4wMjE0NDQsOC42MjY2Mjg0IDcuMTMxNTU5Niw2LjU5NDQwODMgNy4xNzY4MDQ0LDYuMzUzNjM0NiA3LjMyMjIwMzksNS41Nzk4OCA3Ljk3MzEwOTUsNC43MjI4NjQ1IDguNjc5NDk5LDQuMzc1MTEwMSA5LjE4NDE3MzQsNC4xMjY2NTk3IDkuNjk5MzcxOSw0LjEwMDAyMjIgMTQsNC4xMDAwMjIyIGMgNC4zNDU1NzIsMCA0LjgyMDA0MSwwLjAyNTM1NyA1LjMzMTQyNiwwLjI4NDkyMTggMC43MDYyNiwwLjM1ODQ3ODUgMS4zNDcxLDEuMTk1MDYwMSAxLjQ4Njk5MywxLjk0MTE4NTcgMC4wNDY5OSwwLjI1MDYzNzkgMC4xNDk0NCwyLjE0MjI1OTIgMC4xNjYwOTUsMy4wNjY3OTc2IDAuMDAxNiwwLjA5MTE4NyAtMC4zNjY5NTgsMC4wOTYyNjcgLTYuOTg0NTE0LDAuMDk2MjY3IEggNy4wMTM3NTI1IFoiIHN0eWxlPSJmaWxsOiNlZmFlOTg7ZmlsbC1vcGFjaXR5OjE7c3Ryb2tlLXdpZHRoOjAuMDU1MDA5OCIvPiYjeGE7ICA8cGF0aCBpZD0icGF0aDEwIiBkPSJNIDcuMDEzNzUyNSwxNCBWIDExLjUyNDU1OCBIIDE0IDIwLjk4NjI0OCBWIDE0IDE2LjQ3NTQ0MiBIIDE0IDcuMDEzNzUyNSBaIiBzdHlsZT0iZmlsbDojZWZhZTk4O2ZpbGwtb3BhY2l0eToxO3N0cm9rZS13aWR0aDowLjA1NTAwOTgiLz4mI3hhOyAgPHBhdGggaWQ9InBhdGgxMSIgZD0iTSA5LjMyMTU3ODUsMjMuODE5NjE1IEMgOC44NjY3MTE0LDIzLjcyODkxMyA4LjU1MzczNDIsMjMuNTgxNjkzIDguMTYyOTIxOSwyMy4yNzQ1OTkgNy44MjA4NTE3LDIzLjAwNTgwNiA3LjQwMzM3MTYsMjIuNDIwMzgxIDcuMjY5MjAzMSwyMi4wMjEzNTIgNy4xNjAzNzkzLDIxLjY5NzcgNy4wODQ1NTE3LDIwLjg2ODE1NyA3LjA0MjU5MDMsMTkuNTQyMjQgbCAtMC4wMzI2NDIsLTEuMDMxNDM0IGggNi45ODczNTk3IDYuOTg3MzYgbCAtMC4wMzAwNCwxLjAzMTQzNCBjIC0wLjA2MDUyLDIuMDc3OTIxIC0wLjE0Nzg4NywyLjU0NDcxNyAtMC41OTMwMzgsMy4xNjg1NDEgLTAuNDgxOTYsMC42NzU0MDYgLTEuMTQ2Njk3LDEuMDU4NjYyIC0xLjk3NTI0OCwxLjEzODgzNiAtMC44NDE2MzEsMC4wODE0NCAtOC42MzUyNTEsMC4wNTU2NCAtOS4wNjQ3NjM3LC0wLjAzIHoiIHN0eWxlPSJmaWxsOiNlZmFlOTg7ZmlsbC1vcGFjaXR5OjE7c3Ryb2tlLXdpZHRoOjAuMDU1MDA5OCIvPiYjeGE7PC9zdmc+;fontFamily=VK Sans Display;fontSize=16;" parent="1" vertex="1">
          <mxGeometry x="298" y="100" width="25" height="40" as="geometry" />
        </mxCell>
        <mxCell id="9j2e3ir7Lk6FHDookw-K-11" value="" style="shape=image;verticalLabelPosition=bottom;labelBackgroundColor=default;verticalAlign=top;aspect=fixed;imageAspect=0;image=data:image/svg+xml,PHN2ZyB4bWxucz0iaHR0cDovL3d3dy53My5vcmcvMjAwMC9zdmciIGZpbGw9Im5vbmUiIHZpZXdCb3g9IjAgMCAyOCAyOCIgaGVpZ2h0PSIyOCIgd2lkdGg9IjI4Ij4mI3hhOzxwYXRoIGZpbGw9IiMyNjg4RUIiIGQ9Ik0xNy41IDguNUMxNy41IDYuNTY2MDMgMTUuOTM0IDUgMTQgNUMxMi4wNjYgNSAxMC41IDYuNTY2MDMgMTAuNSA4LjVDMTAuNSAxMC40MzQgMTIuMDY2IDEyIDE0IDEyQzE1LjkzNCAxMiAxNy41IDEwLjQzNCAxNy41IDguNVpNMTkuNSA4LjVDMTkuNSAxMS41Mzg1IDE3LjAzODUgMTQgMTQgMTRDMTAuOTYxNSAxNCA4LjUgMTEuNTM4NSA4LjUgOC41QzguNSA1LjQ2MTQ3IDEwLjk2MTUgMyAxNCAzQzE3LjAzODUgMyAxOS41IDUuNDYxNDcgMTkuNSA4LjVaTTcgMjAuNjQyOUM3IDIxLjU4NjIgNi45MTk4NyAyMS41IDcuNDU1ODggMjEuNUgyMS4wNDQxQzIxLjU4MDEgMjEuNSAyMS41IDIxLjU4NjIgMjEuNSAyMC42NDI5QzIxLjUgMTguMzU0NyAxOC4xOTYgMTcgMTQuMjUgMTdDMTAuMzA0IDE3IDcgMTguMzU0NyA3IDIwLjY0MjlaTTUgMjAuNjQyOUM1IDE2Ljc2MjYgOS4yOTg5MiAxNSAxNC4yNSAxNUMxOS4yMDExIDE1IDIzLjUgMTYuNzYyNiAyMy41IDIwLjY0MjlDMjMuNSAyMi42NTkzIDIyLjcxODkgMjMuNSAyMS4wNDQxIDIzLjVINy40NTU4OEM1Ljc4MTExIDIzLjUgNSAyMi42NTkzIDUgMjAuNjQyOVoiLz4mI3hhOzwvc3ZnPg==;fontFamily=VK Sans Display;spacing=-7;fontColor=#212121;fontSize=16;" parent="1" vertex="1">
          <mxGeometry x="189.28000000000003" y="255" width="40" height="40" as="geometry" />
        </mxCell>
        <mxCell id="9j2e3ir7Lk6FHDookw-K-12" value="" style="shape=image;verticalLabelPosition=bottom;labelBackgroundColor=default;verticalAlign=top;aspect=fixed;imageAspect=0;image=data:image/svg+xml,PHN2ZyB4bWxucz0iaHR0cDovL3d3dy53My5vcmcvMjAwMC9zdmciIGZpbGw9Im5vbmUiIHZpZXdCb3g9IjAgMCAyOCAyOCIgaGVpZ2h0PSIyOCIgd2lkdGg9IjI4Ij4mI3hhOzxwYXRoIGZpbGw9IiMyNjg4RUIiIGQ9Ik0xNy41IDguNUMxNy41IDYuNTY2MDMgMTUuOTM0IDUgMTQgNUMxMi4wNjYgNSAxMC41IDYuNTY2MDMgMTAuNSA4LjVDMTAuNSAxMC40MzQgMTIuMDY2IDEyIDE0IDEyQzE1LjkzNCAxMiAxNy41IDEwLjQzNCAxNy41IDguNVpNMTkuNSA4LjVDMTkuNSAxMS41Mzg1IDE3LjAzODUgMTQgMTQgMTRDMTAuOTYxNSAxNCA4LjUgMTEuNTM4NSA4LjUgOC41QzguNSA1LjQ2MTQ3IDEwLjk2MTUgMyAxNCAzQzE3LjAzODUgMyAxOS41IDUuNDYxNDcgMTkuNSA4LjVaTTcgMjAuNjQyOUM3IDIxLjU4NjIgNi45MTk4NyAyMS41IDcuNDU1ODggMjEuNUgyMS4wNDQxQzIxLjU4MDEgMjEuNSAyMS41IDIxLjU4NjIgMjEuNSAyMC42NDI5QzIxLjUgMTguMzU0NyAxOC4xOTYgMTcgMTQuMjUgMTdDMTAuMzA0IDE3IDcgMTguMzU0NyA3IDIwLjY0MjlaTTUgMjAuNjQyOUM1IDE2Ljc2MjYgOS4yOTg5MiAxNSAxNC4yNSAxNUMxOS4yMDExIDE1IDIzLjUgMTYuNzYyNiAyMy41IDIwLjY0MjlDMjMuNSAyMi42NTkzIDIyLjcxODkgMjMuNSAyMS4wNDQxIDIzLjVINy40NTU4OEM1Ljc4MTExIDIzLjUgNSAyMi42NTkzIDUgMjAuNjQyOVoiLz4mI3hhOzwvc3ZnPg==;fontFamily=VK Sans Display;spacing=-7;fontColor=#212121;fontSize=16;" parent="1" vertex="1">
          <mxGeometry x="272.73" y="429" width="40" height="40" as="geometry" />
        </mxCell>
        <mxCell id="9j2e3ir7Lk6FHDookw-K-14" value="" style="shape=image;verticalLabelPosition=bottom;labelBackgroundColor=default;verticalAlign=top;aspect=fixed;imageAspect=0;image=data:image/svg+xml,PHN2ZyB4bWxucz0iaHR0cDovL3d3dy53My5vcmcvMjAwMC9zdmciIGlkPSJzdmc0IiB2ZXJzaW9uPSIxLjEiIGZpbGw9Im5vbmUiIHZpZXdCb3g9IjAgMCAyOCAyOCIgaGVpZ2h0PSIyOCIgd2lkdGg9IjI4Ij4mI3hhOyAgPGRlZnMgaWQ9ImRlZnM0Ii8+JiN4YTsgICYjeGE7ICA8cGF0aCBkPSJNIDYuODQ5NjA5NCw0IEMgNi41NDcyMDk3LDQgNi4yNDc5NDg1LDQuMDA3OTQ3NSA1Ljk0OTIxODgsNC4wMjM0Mzc1IDUuNjg3NDU0Myw0LjAzNzAxMTIgNS40NTY2NDkzLDQuMTUyMTQ3NiA1LjI4NzEwOTQsNC4zMjYxNzE5IDUuMzE0NTkyOCw0LjQ1MjI3NDYgNS4zNDIyNTI3LDQuNTc4MTc5NCA1LjM3NSw0LjcwMzEyNSBjIDAuMDgyMDYsMC4yNDU4MTgzIDAuMTU3MDA4NiwwLjUwOTA5MSAwLjMyMDMxMjUsMC43MTQ4NDM4IDAuMTU4MDM3NywwLjE2NTQ0IDAuMzQ3MzQ4OSwwLjI5ODQ2NzggMC41NDI5Njg3LDAuNDE2MDE1NiAwLjEwMDIxMDQsMC4wNzA5NTUgMC4yMDg5MDMsMC4xMjU3OTQ2IDAuMzIwMzEyNiwwLjE3MzgyODEgQyA2LjY1NTk0MjgsNi4wMDU5NzAxIDYuNzUxNzkyLDYgNi44NDk2MDk0LDYgYyAwLjU0MjQ2ODgsMCAxLjA3NzczNTgsMC4wMzAzMzMgMS42MDU0Njg3LDAuMDg1OTM3IDAuMDczMjI3LC0wLjAxNjE1NSAwLjE0NjMwNzMsLTAuMDMzNDY3IDAuMjE4NzUsLTAuMDUyNzM0IDAuMjE0NDUyLC0wLjA1NzAzOCAwLjI5MzY3NywtMC4wOTAyNTQgMC41LC0wLjE2NjAxNTYgQyA5LjY2MzczMDksNS42Nzg1OTc0IDEwLjAyNzEwOSw1LjMxNzQ4NjIgMTAuMzQzNzUsNC45MTIxMDk0IDEwLjM5NzQwNyw0LjgxNjY2MzEgMTAuNTQ5NjIyLDQuNjI1MTUyOCAxMC41MDc4MTIsNC41IGMgLTAuMDA5MiwtMC4wMjc1OTUgLTAuMDQwNTEsLTAuMDQxNDkzIC0wLjA2MjUsLTAuMDYwNTQ3IC0wLjAzNjY0LC0wLjAyOTQxOCAtMC4wNzM2LC0wLjA1ODE1NCAtMC4xMTEzMjgsLTAuMDg1OTM3IEMgOS4yMDkwNTc5LDQuMTIxMzk0MSA4LjA0MzI4MTEsNCA2Ljg0OTYwOTQsNCBaIE0gMTEuMDU4NTk0LDQuNTIxNDg0NCBDIDExLjA3MDg1MSw0Ljc4MzkwNjQgMTAuOTE3MDMzLDUuMDQxMTU4IDEwLjc3NTM5MSw1LjI1MTk1MzEgMTAuNDQwMjUyLDUuNjc2Njk0MSAxMC4wOTU4NDUsNi4wMTg4Njk2IDkuNjMwODU5NCw2LjI1OTc2NTYgMTYuNjY4OTQ1LDcuNTY2MzIwMyAyMiwxMy43MzM4MTQgMjIsMjEuMTUwMzkxIGMgMCwwLjI2Nzc5OSAtMC4wMDc4LDAuNTMyNjc1IC0wLjAyMTQ4LDAuNzk2ODc1IC0wLjAyODYsMC41NTE1OTkgMC4zOTU2NjYsMS4wMjIxODEgMC45NDcyNjUsMS4wNTA3ODEgMC41NTE1LDAuMDI4NiAxLjAyMjE4MiwtMC4zOTM4MTMgMS4wNTA3ODEsLTAuOTQ1MzEzIEMgMjMuOTkyMDYyLDIxLjc1NDAzNSAyNCwyMS40NTI3OSAyNCwyMS4xNTAzOTEgMjQsMTMuMTMwODI4IDE4LjQ5NTQyMiw2LjM5Nzc3MTYgMTEuMDU4NTk0LDQuNTIxNDg0NCBaIiBpZD0icGF0aDEiLz4mI3hhOyAgPHBhdGggc3R5bGU9ImZpbGw6I2VmYWU5ODtmaWxsLW9wYWNpdHk6MSIgaWQ9InBhdGgyIiBmaWxsPSIjMjY4OEVCIiBkPSJNNi4xNjU0OSAxNi4wNjkyQzYuNDM2MjUgMTYuMDIzOCA2LjcxNDk5IDE2IDcuMDAwMDQgMTZDOS43NjE0NiAxNiAxMiAxOC4yMzg2IDEyIDIxQzEyIDIxLjI4NSAxMS45NzYzIDIxLjU2MzggMTEuOTMwOSAyMS44MzQ1QzExLjgzOTUgMjIuMzc5MiAxMi4yMDY5IDIyLjg5NDggMTIuNzUxNiAyMi45ODYyQzEzLjI5NjMgMjMuMDc3NiAxMy44MTE5IDIyLjcxMDEgMTMuOTAzMyAyMi4xNjU1QzEzLjk2NyAyMS43ODU4IDE0IDIxLjM5NjQgMTQgMjFDMTQgMTcuMTM0IDEwLjg2NiAxNCA3LjAwMDA0IDE0QzYuNjAzNjYgMTQgNi4yMTQyNCAxNC4wMzMgNS44MzQ1OCAxNC4wOTY3QzUuMjg5OTEgMTQuMTg4MSA0LjkyMjQ0IDE0LjcwMzcgNS4wMTM4MiAxNS4yNDg0QzUuMTA1MiAxNS43OTMxIDUuNjIwODIgMTYuMTYwNiA2LjE2NTQ5IDE2LjA2OTJaIi8+JiN4YTsgIDxwYXRoIHN0eWxlPSJmaWxsOiNlZmFlOTg7ZmlsbC1vcGFjaXR5OjEiIGlkPSJwYXRoMyIgZmlsbD0iIzI2ODhFQiIgZD0iTTkuMDAwMDEgMjFDOS4wMDAwMSAyMi4xMDQ2IDguMTA0NTggMjMgNy4wMDAwMSAyM0M1Ljg5NTQ0IDIzIDUuMDAwMDEgMjIuMTA0NiA1LjAwMDAxIDIxQzUuMDAwMDEgMTkuODk1NCA1Ljg5NTQ0IDE5IDcuMDAwMDEgMTlDOC4xMDQ1OCAxOSA5LjAwMDAxIDE5Ljg5NTQgOS4wMDAwMSAyMVoiLz4mI3hhOyAgPHBhdGggc3R5bGU9ImZpbGw6I2VmYWU5ODtmaWxsLW9wYWNpdHk6MSIgaWQ9InBhdGg0IiBmaWxsPSIjMjY4OEVCIiBkPSJNNi4wODk3OSAxMS4wNDA4QzYuMzg5MzUgMTEuMDEzOCA2LjY5Mjk1IDExIDcuMDAwMDQgMTFDMTIuNTIyOSAxMSAxNyAxNS40NzcyIDE3IDIxQzE3IDIxLjMwNzEgMTYuOTg2MiAyMS42MTA3IDE2Ljk1OTIgMjEuOTEwMkMxNi45MDk3IDIyLjQ2MDMgMTcuMzE1NCAyMi45NDY0IDE3Ljg2NTQgMjIuOTk2QzE4LjQxNTUgMjMuMDQ1NSAxOC45MDE2IDIyLjYzOTggMTguOTUxMiAyMi4wODk4QzE4Ljk4MzUgMjEuNzMwNiAxOSAyMS4zNjcxIDE5IDIxQzE5IDE0LjM3MjYgMTMuNjI3NSA5IDcuMDAwMDQgOUM2LjYzMjk0IDkgNi4yNjk0NSA5LjAxNjUxIDUuOTEwMjggOS4wNDg4OEM1LjM2MDIzIDkuMDk4NDUgNC45NTQ1IDkuNTg0NTQgNS4wMDQwNyAxMC4xMzQ2QzUuMDUzNjQgMTAuNjg0NiA1LjUzOTczIDExLjA5MDQgNi4wODk3OSAxMS4wNDA4WiIvPiYjeGE7PC9zdmc+;" parent="1" vertex="1">
          <mxGeometry x="163" y="255" width="40" height="40" as="geometry" />
        </mxCell>
        <mxCell id="9j2e3ir7Lk6FHDookw-K-17" value="" style="shape=image;verticalLabelPosition=bottom;labelBackgroundColor=default;verticalAlign=top;aspect=fixed;imageAspect=0;image=data:image/svg+xml,PHN2ZyB4bWxucz0iaHR0cDovL3d3dy53My5vcmcvMjAwMC9zdmciIGlkPSJzdmc0IiB2ZXJzaW9uPSIxLjEiIGZpbGw9Im5vbmUiIHZpZXdCb3g9IjAgMCAyOCAyOCIgaGVpZ2h0PSIyOCIgd2lkdGg9IjI4Ij4mI3hhOyAgPGRlZnMgaWQ9ImRlZnM0Ii8+JiN4YTsgICYjeGE7ICA8cGF0aCBzdHlsZT0iZmlsbDojZTE4OGQwO2ZpbGwtb3BhY2l0eToxIiBpZD0icGF0aDIiIGZpbGw9IiMyNjg4RUIiIGQ9Ik02LjE2NTQ5IDE2LjA2OTJDNi40MzYyNSAxNi4wMjM4IDYuNzE0OTkgMTYgNy4wMDAwNCAxNkM5Ljc2MTQ2IDE2IDEyIDE4LjIzODYgMTIgMjFDMTIgMjEuMjg1IDExLjk3NjMgMjEuNTYzOCAxMS45MzA5IDIxLjgzNDVDMTEuODM5NSAyMi4zNzkyIDEyLjIwNjkgMjIuODk0OCAxMi43NTE2IDIyLjk4NjJDMTMuMjk2MyAyMy4wNzc2IDEzLjgxMTkgMjIuNzEwMSAxMy45MDMzIDIyLjE2NTVDMTMuOTY3IDIxLjc4NTggMTQgMjEuMzk2NCAxNCAyMUMxNCAxNy4xMzQgMTAuODY2IDE0IDcuMDAwMDQgMTRDNi42MDM2NiAxNCA2LjIxNDI0IDE0LjAzMyA1LjgzNDU4IDE0LjA5NjdDNS4yODk5MSAxNC4xODgxIDQuOTIyNDQgMTQuNzAzNyA1LjAxMzgyIDE1LjI0ODRDNS4xMDUyIDE1Ljc5MzEgNS42MjA4MiAxNi4xNjA2IDYuMTY1NDkgMTYuMDY5MloiLz4mI3hhOyAgPHBhdGggc3R5bGU9ImZpbGw6I2UxODhkMDtmaWxsLW9wYWNpdHk6MSIgaWQ9InBhdGgzIiBmaWxsPSIjMjY4OEVCIiBkPSJNOS4wMDAwMSAyMUM5LjAwMDAxIDIyLjEwNDYgOC4xMDQ1OCAyMyA3LjAwMDAxIDIzQzUuODk1NDQgMjMgNS4wMDAwMSAyMi4xMDQ2IDUuMDAwMDEgMjFDNS4wMDAwMSAxOS44OTU0IDUuODk1NDQgMTkgNy4wMDAwMSAxOUM4LjEwNDU4IDE5IDkuMDAwMDEgMTkuODk1NCA5LjAwMDAxIDIxWiIvPiYjeGE7ICA8cGF0aCBkPSJtIDcsOSBjIC0wLjM2NzA5OTYsMCAtMC43MzA2NzQxLDAuMDE2NDU4IC0xLjA4OTg0MzgsMC4wNDg4MjggLTAuNTUwMDQ5NCwwLjA0OTU3IC0wLjk1NTgxOTksMC41MzU4NzgxIC0wLjkwNjI1LDEuMDg1OTM3OSAwLjAyMTQ0MiwwLjIzNzkwMiAwLjEyODU2NjMsMC40NDQ3NTggMC4yODMyMDMyLDAuNjAzNTE1IDAuMjE0NzQ2OSwwLjEzMTc4NCAwLjQ2NzE3MDcsMC4yMjIxNTggMC43MDg5ODQ0LDAuMzA2NjQxIDAuMDMxMjQxLDEuMWUtNCAwLjA2MjAxMiwtMC4wMDEgMC4wOTM3NSwtMC4wMDM5IEMgNi4zODk0MDM1LDExLjAxNDAxNiA2LjY5MjkxMDMsMTEgNywxMSBjIDUuNTIyODU0LDAgMTAsNC40NzcyMDYgMTAsMTAgMCwwLjMwNzEgLTAuMDE0MDIsMC42MTA2NTcgLTAuMDQxMDIsMC45MTAxNTYgLTAuMDQ5NSwwLjU1MDEgMC4zNTYyNTEsMS4wMzYzMzggMC45MDYyNSwxLjA4NTkzOCAwLjU1MDEsMC4wNDk1IDEuMDM2MzM4LC0wLjM1NjI1MSAxLjA4NTkzOCwtMC45MDYyNSBDIDE4Ljk4MzQ3MiwyMS43MzA2NDQgMTksMjEuMzY3MSAxOSwyMSAxOSwxNC4zNzI2MDcgMTMuNjI3NDUzLDkgNyw5IFoiIGlkPSJwYXRoNCIvPiYjeGE7PC9zdmc+;" parent="1" vertex="1">
          <mxGeometry x="254.73000000000002" y="429" width="40" height="40" as="geometry" />
        </mxCell>
        <mxCell id="9j2e3ir7Lk6FHDookw-K-23" value="" style="endArrow=open;html=1;fontFamily=VK Sans Display;fontColor=#212121;rounded=1;strokeColor=#7C8A9A;endFill=0;strokeWidth=2;arcSize=8;exitX=0.5;exitY=0;exitDx=0;exitDy=0;edgeStyle=orthogonalEdgeStyle;entryX=0;entryY=0.75;entryDx=0;entryDy=0;" parent="1" source="9j2e3ir7Lk6FHDookw-K-11" edge="1" target="9j2e3ir7Lk6FHDookw-K-2">
          <mxGeometry width="50" height="50" relative="1" as="geometry">
            <mxPoint x="187.23000000000002" y="331.9999999999998" as="sourcePoint" />
            <mxPoint x="241" y="180" as="targetPoint" />
          </mxGeometry>
        </mxCell>
        <mxCell id="9j2e3ir7Lk6FHDookw-K-24" value="" style="endArrow=open;html=1;fontFamily=VK Sans Display;fontColor=#212121;strokeColor=#7C8A9A;endFill=0;strokeWidth=2;arcSize=8;rounded=0;entryX=0;entryY=0.5;entryDx=0;entryDy=0;" parent="1" edge="1">
          <mxGeometry width="50" height="50" relative="1" as="geometry">
            <mxPoint x="149" y="112" as="sourcePoint" />
            <mxPoint x="229.27999999999997" y="112" as="targetPoint" />
            <Array as="points" />
          </mxGeometry>
        </mxCell>
        <mxCell id="9j2e3ir7Lk6FHDookw-K-25" value="" style="endArrow=none;html=1;fontFamily=VK Sans Display;fontColor=#212121;rounded=1;strokeColor=#7C8A9A;endFill=0;arcsize=8;startArrow=open;startFill=0;strokeWidth=2;arcSize=8;entryX=0.5;entryY=0;entryDx=0;entryDy=0;edgeStyle=orthogonalEdgeStyle;" parent="1" target="9j2e3ir7Lk6FHDookw-K-12" edge="1">
          <mxGeometry width="50" height="50" relative="1" as="geometry">
            <mxPoint x="251" y="180" as="sourcePoint" />
            <mxPoint x="414" y="410" as="targetPoint" />
            <Array as="points">
              <mxPoint x="251" y="300" />
              <mxPoint x="293" y="300" />
            </Array>
          </mxGeometry>
        </mxCell>
        <mxCell id="9j2e3ir7Lk6FHDookw-K-26" value="Origin&#xa;servers" style="shape=image;verticalLabelPosition=bottom;labelBackgroundColor=default;verticalAlign=bottom;aspect=fixed;imageAspect=0;image=data:image/svg+xml,PHN2ZyB4bWxucz0iaHR0cDovL3d3dy53My5vcmcvMjAwMC9zdmciIHhtbDpzcGFjZT0icHJlc2VydmUiIGlkPSJzdmcxIiB2ZXJzaW9uPSIxLjEiIGZpbGw9Im5vbmUiIHZpZXdCb3g9IjAgMCAzOC4wNzUyODcgMzQuNjkxNTUxIiBoZWlnaHQ9IjM0LjY5MTU1MSIgd2lkdGg9IjM4LjA3NTI4NyI+PGRlZnMgaWQ9ImRlZnMxIi8+PGcgdHJhbnNmb3JtPSJ0cmFuc2xhdGUoLTIuODY0NDQwMSwxNC4zNzUyNDYpIiBpZD0ibGF5ZXIxIj48cGF0aCBpZD0icGF0aDEiIGZpbGw9IiMwMDc3ZmYiIGQ9Im0gMi45ODE4MiwtOC4zOTc4MTkgYyAwLjEyOTY1MSwxLjAwNTMxIDAuNjEzMzQzMSwxLjg5MzA4IDEuMzE5OTkzMSwyLjUyOTUyIC0wLjcwNjY1LDAuNjM2NDMgLTEuMTkwMzQyMSwxLjUyNDE0OTUgLTEuMzE5OTkzMSwyLjUyOTU0OTUgLTAuMDM0MjIxLDAuMjY1MyAtMC4wMzQyMjEsMC41ODE0IC0wLjAzNDIyMSwxLjIxMzUgMCwwLjYzMjEgMCwwLjk0ODIgMC4wMzQyMjEsMS4yMTM0OTk5NiAwLjEyOTY1MSwxLjAwNTQgMC42MTMzNDMxLDEuODkzMSAxLjMxOTk5MzEsMi41Mjk2MDAwNCAtMC43MDY2NSwwLjYzNjQgLTEuMTkwMzQyMSwxLjUyNDIgLTEuMzE5OTkzMSwyLjUyOTUgLTAuMDM0MjIxLDAuMjY1MyAtMC4wMzQyMjEsMC41ODE0IC0wLjAzNDIyMSwxLjIxMzUgMCwwLjYzMjEgMCwwLjk0ODIgMC4wMzQyMjEsMS4yMTM1IDAuMjM2MzA4MSwxLjgzMjQgMS42NDg3NDMxLDMuMjc0MiAzLjQ0MzY3MzEsMy41MTU0OTk1IDAuMjU5OTMsMC4wMzQ5IDYuNTY5NTQ5OSwwLjAzNDkgNy4xODg3Njk5LDAuMDM0OSBoIDIuNjQ1ODUgYyAwLjU2Mzc5LDAgMS4wMjA4MywtMC40NTY5OTk1IDEuMDIwODMsLTEuMDIwNzk5NSAwLC0wLjU2MzggLTAuNDU3MDQsLTEuMDIwOSAtMS4wMjA4MywtMS4wMjA5IGggLTIuNjQ1ODUgYyAtMC42ODI4LDAgLTYuODMwNTA5OSwtMC4wMDQ0IC02LjkyNzcxOTksLTAuMDE3NCAtMC44OTc0NiwtMC4xMjA2IC0xLjYwMzY4LC0wLjg0MTYgLTEuNzIxODMsLTEuNzU3NyAtMC4wMTI4LC0wLjA5OTMgLTAuMDE3MTEsLTAuMjUwMSAtMC4wMTcxMSwtMC45NDcxIDAsLTAuNjk3IDAuMDA0MzEsLTAuODQ3OCAwLjAxNzExLC0wLjk0NyAwLjExODE1LC0wLjkxNjIgMC44MjQzNywtMS42MzcxIDEuNzIxODMsLTEuNzU3NyAwLjA5NzIxLC0wLjAxMzEgMC4yNDQ5MywtMC4wMTc1IDAuOTI3NzIsLTAuMDE3NSBoIDIuNjY2Njc5OSA1IDIuNTk0NCBjIDIuNDkxMSwwIDMuNTc4MiwtMS44MzcxMDAwNCAzLjcwNDcsLTMuNTUwNDAwMDQgMC4wMzQyLC0wLjQ2MzQ5OTk2IDAuMDM0MiwtMC41ODEzOTk5NiAwLjAzNDIsLTEuMjEzNDk5OTYgMCwtMC42MzIxIDAsLTAuOTQ4MiAtMC4wMzQyLC0xLjIxMzUgLTAuMTI5NywtMS4wMDU0IC0wLjYxMzMsLTEuODkzMTE5NSAtMS4zMiwtMi41Mjk1NDk1IDAuNzA2NywtMC42MzY0NCAxLjE5MDMsLTEuNTI0MjEgMS4zMiwtMi41Mjk1MiAwLjAzNDIsLTAuMjY1MzUgMC4wMzQyLC0wLjU4MTQxIDAuMDM0MiwtMS4yMTM1NCAwLC0wLjYzMjEzIDAsLTAuOTQ4MTkgLTAuMDM0MiwtMS4yMTM1NCAtMC4yMzYzLC0xLjgzMjMzIC0xLjY0ODcsLTMuMjc0MTg2IC0zLjQ0MzcsLTMuNTE1NDE3IC0wLjI1OTksLTAuMDM0OTMgLTAuNTY5NSwtMC4wMzQ5MyAtMS4xODg3LC0wLjAzNDkzIEggNy42MTQyNjMxIGMgLTAuNjE5MjIsMCAtMC45Mjg4NCwwIC0xLjE4ODc3LDAuMDM0OTMgLTEuNzk0OTMsMC4yNDEyMzQgLTMuMjA3MzY1LDEuNjgzMDkgLTMuNDQzNjczMSwzLjUxNTQyIC0wLjAzNDIyMSwwLjI2NTM1IC0wLjAzNDIyMSwwLjU4MTQxIC0wLjAzNDIyMSwxLjIxMzU0IDAsMC42MzIxMyAwLDAuOTQ4MTkgMC4wMzQyMjEsMS4yMTM1NCB6IG0gMTMuOTY1ODIzLC0zLjkzNTc2IEggNy42MTQyNjMxIGMgLTAuNjgyNzksMCAtMC44MzA1MSwwLjAwNDQgLTAuOTI3NzIsMC4wMTc0NiAtMC44OTc0NiwwLjEyMDYyIC0xLjYwMzY4LDAuODQxNTUgLTEuNzIxODMsMS43NTc3MSAtMC4wMTI4LDAuMDk5MjMgLTAuMDE3MTEsMC4yNTAwMyAtMC4wMTcxMSwwLjk0NzA1IDAsMC42OTcwMiAwLjAwNDMxLDAuODQ3ODIgMC4wMTcxMSwwLjk0NzA1IDAuMTE4MTUsMC45MTYxNiAwLjgyNDM3LDEuNjM3MDkgMS43MjE4MywxLjc1NzcgMC4wOTcyMSwwLjAxMzA3IDAuMjQ0OTIsMC4wMTc0NyAwLjkyNzcyLDAuMDE3NDcgaCA5LjMzMzM3OTkgYyAwLjY4MjgsMCAwLjgzMDUsLTAuMDA0NCAwLjkyNzcsLTAuMDE3NDcgMC44OTc0LC0wLjEyMDYxIDEuNjAzNywtMC44NDE1NCAxLjcyMTgsLTEuNzU3NyAwLjAxMjgsLTAuMDk5MjMgMC4wMTcxLC0wLjI1MDAzIDAuMDE3MSwtMC45NDcwNSAwLC0wLjY5NzAyIC0wLjAwNDMsLTAuODQ3ODIgLTAuMDE3MSwtMC45NDcwNSAtMC4xMTgxLC0wLjkxNjE2IC0wLjgyNDQsLTEuNjM3MDkgLTEuNzIxOCwtMS43NTc3MSAtMC4wOTcyLC0wLjAxMzA2IC0wLjI0NDksLTAuMDE3NDYgLTAuOTI3NywtMC4wMTc0NiB6IG0gMCwxMi45MzA1Mjk0NiBjIDAuNjgyOCwwIDAuODMwNSwtMC4wMDQ0IDAuOTI3NywtMC4wMTc0IDAuODk3NCwtMC4xMjA3IDEuNjAzNywtMC44NDE2IDEuNzIxOCwtMS43NTc3OTk5NiAwLjAxMjgsLTAuMDk5MiAwLjAxNzEsLTAuMjUgMC4wMTcxLC0wLjk0NyAwLC0wLjY5NyAtMC4wMDQzLC0wLjg0NzggLTAuMDE3MSwtMC45NDcgLTAuMTE4MSwtMC45MTYyIC0wLjgyNDQsLTEuNjM3MTQgLTEuNzIxOCwtMS43NTc3NDk1IC0wLjA5NzIsLTAuMDEzMDcgLTAuMjQ0OSwtMC4wMTc0NyAtMC45Mjc3LC0wLjAxNzQ3IEggNy42MTQyNjMxIGMgLTAuNjgyNzksMCAtMC44MzA1MSwwLjAwNDQgLTAuOTI3NzIsMC4wMTc0NyAtMC44OTc0NiwwLjEyMDYwOTUgLTEuNjAzNjgsMC44NDE1NDk1IC0xLjcyMTgzLDEuNzU3NzQ5NSAtMC4wMTI4LDAuMDk5MiAtMC4wMTcxMSwwLjI1IC0wLjAxNzExLDAuOTQ3IDAsMC42OTcgMC4wMDQzMSwwLjg0NzggMC4wMTcxMSwwLjk0NyAwLjExODE1LDAuOTE2MTk5OTYgMC44MjQzNywxLjYzNzA5OTk2IDEuNzIxODMsMS43NTc3OTk5NiAwLjA5NzIxLDAuMDEzIDAuMjQ0OTIsMC4wMTc0IDAuOTI3NzIsMC4wMTc0IGggMi42NjY2Nzk5IHoiIGNsaXAtcnVsZT0iZXZlbm9kZCIgZmlsbC1ydWxlPSJldmVub2RkIi8+PC9nPjxwYXRoIHN0eWxlPSJmaWxsOiMwMDc3ZmY7ZmlsbC1vcGFjaXR5OjEiIGlkPSJwYXRoMS05IiBmaWxsPSIjMDA3N2ZmIiBkPSJtIDM4LjA0MTA2Nyw1Ljk3NzQyNyBjIC0wLjEyOTY1MSwxLjAwNTMxIC0wLjYxMzM0MywxLjg5MzA4IC0xLjMxOTk5MywyLjUyOTUyIDAuNzA2NjUsMC42MzY0MzAxIDEuMTkwMzQyLDEuNTI0MTUgMS4zMTk5OTMsMi41Mjk1NSAwLjAzNDIyLDAuMjY1MyAwLjAzNDIyLDAuNTgxNCAwLjAzNDIyLDEuMjEzNSAwLDAuNjMyMSAwLDAuOTQ4MiAtMC4wMzQyMiwxLjIxMzUgLTAuMTI5NjUxLDEuMDA1NCAtMC42MTMzNDMsMS44OTMxIC0xLjMxOTk5MywyLjUyOTYgMC43MDY2NSwwLjYzNjQgMS4xOTAzNDIsMS41MjQyIDEuMzE5OTkzLDIuNTI5NSAwLjAzNDIyLDAuMjY1MyAwLjAzNDIyLDAuNTgxNCAwLjAzNDIyLDEuMjEzNSAwLDAuNjMyMSAwLDAuOTQ4MiAtMC4wMzQyMiwxLjIxMzUgLTAuMjM2MzA3LDEuODMyNCAtMS42NDg3NDIsMy4yNzQyIC0zLjQ0MzY3MiwzLjUxNTUgLTAuMjU5OTMsMC4wMzQ5IC02LjU2OTU1LDAuMDM0OSAtNy4xODg3NywwLjAzNDkgaCAtMi42NDU4NSBjIC0wLjU2Mzc5LDAgLTEuMDIwODMsLTAuNDU3IC0xLjAyMDgzLC0xLjAyMDggMCwtMC41NjM4IDAuNDU3MDQsLTEuMDIwOSAxLjAyMDgzLC0xLjAyMDkgaCAyLjY0NTg1IGMgMC42ODI4LDAgNi44MzA1MSwtMC4wMDQ0IDYuOTI3NzIsLTAuMDE3NCAwLjg5NzQ2LC0wLjEyMDYgMS42MDM2OCwtMC44NDE2IDEuNzIxODMsLTEuNzU3NyAwLjAxMjgsLTAuMDk5MyAwLjAxNzExLC0wLjI1MDEgMC4wMTcxMSwtMC45NDcxIDAsLTAuNjk3IC0wLjAwNDMsLTAuODQ3OCAtMC4wMTcxMSwtMC45NDcgLTAuMTE4MTUsLTAuOTE2MiAtMC44MjQzNywtMS42MzcxIC0xLjcyMTgzLC0xLjc1NzcgLTAuMDk3MjEsLTAuMDEzMSAtMC4yNDQ5MywtMC4wMTc1IC0wLjkyNzcyLC0wLjAxNzUgaCAtMi42NjY2OCAtNSAtMi41OTQ0IGMgLTIuNDkxMSwwIC0zLjU3ODIsLTEuODM3MSAtMy43MDQ3LC0zLjU1MDQgLTAuMDM0MiwtMC40NjM1IC0wLjAzNDIsLTAuNTgxNCAtMC4wMzQyLC0xLjIxMzUgMCwtMC42MzIxIDAsLTAuOTQ4MiAwLjAzNDIsLTEuMjEzNSAwLjEyOTcsLTEuMDA1NCAwLjYxMzMsLTEuODkzMTE5OSAxLjMyLC0yLjUyOTU1IC0wLjcwNjcsLTAuNjM2NDQgLTEuMTkwMywtMS41MjQyMSAtMS4zMiwtMi41Mjk1MiAtMC4wMzQyLC0wLjI2NTM0OTkgLTAuMDM0MiwtMC41ODE0MSAtMC4wMzQyLC0xLjIxMzU0IDAsLTAuNjMyMTMgMCwtMC45NDgxOSAwLjAzNDIsLTEuMjEzNTM5OSAwLjIzNjMsLTEuODMyMzMgMS42NDg3LC0zLjI3NDE4NjEgMy40NDM3LC0zLjUxNTQxNzEgQyAyMy4xNDY0NDQsMCAyMy40NTYwNDQsMCAyNC4wNzUyNDQsMCBoIDkuMzMzMzggYyAwLjYxOTIyLDAgMC45Mjg4NCwwIDEuMTg4NzcsMC4wMzQ5MyAxLjc5NDkzLDAuMjQxMjM0IDMuMjA3MzY1LDEuNjgzMDkgMy40NDM2NzMsMy41MTU0MjAxIDAuMDM0MjIsMC4yNjUzNSAwLjAzNDIyLDAuNTgxNDA5OSAwLjAzNDIyLDEuMjEzNTM5OSAwLDAuNjMyMTMgMCwwLjk0ODE5IC0wLjAzNDIyLDEuMjEzNTQgeiBNIDI0LjA3NTI0NCwyLjA0MTY2NzEgaCA5LjMzMzM4IGMgMC42ODI3OSwwIDAuODMwNTEsMC4wMDQ0IDAuOTI3NzIsMC4wMTc0NiAwLjg5NzQ2LDAuMTIwNjIgMS42MDM2OCwwLjg0MTU1IDEuNzIxODMsMS43NTc3MSAwLjAxMjgsMC4wOTkyMyAwLjAxNzExLDAuMjUwMDI5OSAwLjAxNzExLDAuOTQ3MDQ5OSAwLDAuNjk3MDIwMSAtMC4wMDQzLDAuODQ3ODIwMSAtMC4wMTcxMSwwLjk0NzA1IC0wLjExODE1LDAuOTE2MTYgLTAuODI0MzcsMS42MzcwOSAtMS43MjE4MywxLjc1NzcgLTAuMDk3MjEsMC4wMTMwNyAtMC4yNDQ5MiwwLjAxNzQ3IC0wLjkyNzcyLDAuMDE3NDcgaCAtOS4zMzMzOCBjIC0wLjY4MjgsMCAtMC44MzA1LC0wLjAwNDQgLTAuOTI3NywtMC4wMTc0NyAtMC44OTc0LC0wLjEyMDYxIC0xLjYwMzcsLTAuODQxNTQgLTEuNzIxOCwtMS43NTc3IC0wLjAxMjgsLTAuMDk5MjMgLTAuMDE3MSwtMC4yNTAwMjk5IC0wLjAxNzEsLTAuOTQ3MDUgMCwtMC42OTcwMiAwLjAwNDMsLTAuODQ3ODIgMC4wMTcxLC0wLjk0NzA0OTkgMC4xMTgxLC0wLjkxNjE2IDAuODI0NCwtMS42MzcwOSAxLjcyMTgsLTEuNzU3NzEwMSAwLjA5NzIsLTAuMDEzMDYgMC4yNDQ5LC0wLjAxNzQ2IDAuOTI3NywtMC4wMTc0NiB6IG0gMCwxMi45MzA1Mjk5IGMgLTAuNjgyOCwwIC0wLjgzMDUsLTAuMDA0NCAtMC45Mjc3LC0wLjAxNzQgLTAuODk3NCwtMC4xMjA3IC0xLjYwMzcsLTAuODQxNiAtMS43MjE4LC0xLjc1NzggLTAuMDEyOCwtMC4wOTkyIC0wLjAxNzEsLTAuMjUgLTAuMDE3MSwtMC45NDcgMCwtMC42OTcgMC4wMDQzLC0wLjg0NzggMC4wMTcxLC0wLjk0NyAwLjExODEsLTAuOTE2MiAwLjgyNDQsLTEuNjM3MTM5OSAxLjcyMTgsLTEuNzU3NzQ5OSAwLjA5NzIsLTAuMDEzMDcgMC4yNDQ5LC0wLjAxNzQ3IDAuOTI3NywtMC4wMTc0NyBoIDkuMzMzMzggYyAwLjY4Mjc5LDAgMC44MzA1MSwwLjAwNDQgMC45Mjc3MiwwLjAxNzQ3IDAuODk3NDYsMC4xMjA2MSAxLjYwMzY4LDAuODQxNTQ5OSAxLjcyMTgzLDEuNzU3NzQ5OSAwLjAxMjgsMC4wOTkyIDAuMDE3MTEsMC4yNSAwLjAxNzExLDAuOTQ3IDAsMC42OTcgLTAuMDA0MywwLjg0NzggLTAuMDE3MTEsMC45NDcgLTAuMTE4MTUsMC45MTYyIC0wLjgyNDM3LDEuNjM3MSAtMS43MjE4MywxLjc1NzggLTAuMDk3MjEsMC4wMTMgLTAuMjQ0OTIsMC4wMTc0IC0wLjkyNzcyLDAuMDE3NCBoIC0yLjY2NjY4IHoiIGNsaXAtcnVsZT0iZXZlbm9kZCIgZmlsbC1ydWxlPSJldmVub2RkIi8+PGcgdHJhbnNmb3JtPSJ0cmFuc2xhdGUoLTIuODY0NDQwMSwxNC4zNzUyNDYpIiBpZD0ibGF5ZXIyIi8+PGcgdHJhbnNmb3JtPSJ0cmFuc2xhdGUoLTIuODY0NDQwMSwxNC4zNzUyNDYpIiBpZD0ibGF5ZXI0Ij48cmVjdCByeT0iMC4zMDU5MjIiIHk9Ii00LjE3NTExNDYiIHg9IjE0LjA1MjA2NyIgaGVpZ2h0PSIyNC40MjI3ODMiIHdpZHRoPSIxNS42MTg4NTIiIGlkPSJyZWN0MiIgc3R5bGU9ImZpbGw6I2ZmZmZmZjtmaWxsLXJ1bGU6ZXZlbm9kZDtzdHJva2Utd2lkdGg6MC44MjE4NjciLz48ZyB0cmFuc2Zvcm09InRyYW5zbGF0ZSgxMS45ODUyODQsLTQuMjUxNzQ4KSIgaWQ9ImcyIiBzdHlsZT0iZmlsbDpub25lIj48ZyBpZD0ibGF5ZXIxLTIiPjxwYXRoIGlkPSJwYXRoMS02IiBmaWxsPSIjMDA3N2ZmIiBkPSJNIDAuNzAwODc3LDUuOTc3NDMgQyAwLjgzMDUyOCw2Ljk4Mjc0IDEuMzE0MjIsNy44NzA1MSAyLjAyMDg3LDguNTA2OTUgMS4zMTQyMiw5LjE0MzM4IDAuODMwNTI4LDEwLjAzMTEgMC43MDA4NzcsMTEuMDM2NSAwLjY2NjY1NiwxMS4zMDE4IDAuNjY2NjU2LDExLjYxNzkgMC42NjY2NTYsMTIuMjUgYyAwLDAuNjMyMSAwLDAuOTQ4MiAwLjAzNDIyMSwxLjIxMzUgMC4xMjk2NTEsMS4wMDU0IDAuNjEzMzQzLDEuODkzMSAxLjMxOTk5MywyLjUyOTYgLTAuNzA2NjUsMC42MzY0IC0xLjE5MDM0MiwxLjUyNDIgLTEuMzE5OTkzLDIuNTI5NSAtMC4wMzQyMjEsMC4yNjUzIC0wLjAzNDIyMSwwLjU4MTQgLTAuMDM0MjIxLDEuMjEzNSAwLDAuNjMyMSAwLDAuOTQ4MiAwLjAzNDIyMSwxLjIxMzUgQyAwLjkzNzE4NSwyMi43ODIgMi4zNDk2MiwyNC4yMjM4IDQuMTQ0NTUsMjQuNDY1MSA0LjQwNDQ4LDI0LjUgMTAuNzE0MSwyNC41IDExLjMzMzMyLDI0LjUgaCA0LjY0NTg1IEMgMTYuNTQyOTYsMjQuNSAxNywyNC4wNDMgMTcsMjMuNDc5MiAxNywyMi45MTU0IDE2LjU0Mjk2LDIyLjQ1ODMgMTUuOTc5MTcsMjIuNDU4MyBoIC00LjY0NTg1IGMgLTAuNjgyOCwwIC02LjgzMDUxLC0wLjAwNDQgLTYuOTI3NzIsLTAuMDE3NCBDIDMuNTA4MTQsMjIuMzIwMyAyLjgwMTkyLDIxLjU5OTMgMi42ODM3NywyMC42ODMyIDIuNjcwOTcsMjAuNTgzOSAyLjY2NjY2LDIwLjQzMzEgMi42NjY2NiwxOS43MzYxIGMgMCwtMC42OTcgMC4wMDQzMSwtMC44NDc4IDAuMDE3MTEsLTAuOTQ3IEMgMi44MDE5MiwxNy44NzI5IDMuNTA4MTQsMTcuMTUyIDQuNDA1NiwxNy4wMzE0IDQuNTAyODEsMTcuMDE4MyA0LjY1MDUzLDE3LjAxMzkgNS4zMzMzMiwxNy4wMTM5IEggOCBoIDUgMi41OTQ0IGMgMi40OTExLDAgMy41NzgyLC0xLjgzNzEgMy43MDQ3LC0zLjU1MDQgMC4wMzQyLC0wLjQ2MzUgMC4wMzQyLC0wLjU4MTQgMC4wMzQyLC0xLjIxMzUgMCwtMC42MzIxIDAsLTAuOTQ4MiAtMC4wMzQyLC0xLjIxMzUgLTAuMTI5NywtMS4wMDU0IC0wLjYxMzMsLTEuODkzMTIgLTEuMzIsLTIuNTI5NTUgMC43MDY3LC0wLjYzNjQ0IDEuMTkwMywtMS41MjQyMSAxLjMyLC0yLjUyOTUyIDAuMDM0MiwtMC4yNjUzNSAwLjAzNDIsLTAuNTgxNDEgMC4wMzQyLC0xLjIxMzU0IDAsLTAuNjMyMTMgMCwtMC45NDgxOSAtMC4wMzQyLC0xLjIxMzU0IEMgMTkuMDYyOCwxLjcxODAyIDE3LjY1MDQsMC4yNzYxNjQgMTUuODU1NCwwLjAzNDkzMzQgMTUuNTk1NSwwIDE1LjI4NTksMCAxNC42NjY3LDAgSCA1LjMzMzMyIEMgNC43MTQxLDAgNC40MDQ0OCwwIDQuMTQ0NTUsMC4wMzQ5MzM0IDIuMzQ5NjIsMC4yNzYxNjQgMC45MzcxODUsMS43MTgwMiAwLjcwMDg3NywzLjU1MDM1IDAuNjY2NjU2LDMuODE1NyAwLjY2NjY1Niw0LjEzMTc2IDAuNjY2NjU2LDQuNzYzODkgYyAwLDAuNjMyMTMgMCwwLjk0ODE5IDAuMDM0MjIxLDEuMjEzNTQgeiBNIDE0LjY2NjcsMi4wNDE2NyBIIDUuMzMzMzIgYyAtMC42ODI3OSwwIC0wLjgzMDUxLDAuMDA0NCAtMC45Mjc3MiwwLjAxNzQ2IEMgMy41MDgxNCwyLjE3OTc1IDIuODAxOTIsMi45MDA2OCAyLjY4Mzc3LDMuODE2ODQgMi42NzA5NywzLjkxNjA3IDIuNjY2NjYsNC4wNjY4NyAyLjY2NjY2LDQuNzYzODkgYyAwLDAuNjk3MDIgMC4wMDQzMSwwLjg0NzgyIDAuMDE3MTEsMC45NDcwNSAwLjExODE1LDAuOTE2MTYgMC44MjQzNywxLjYzNzA5IDEuNzIxODMsMS43NTc3IDAuMDk3MjEsMC4wMTMwNyAwLjI0NDkyLDAuMDE3NDcgMC45Mjc3MiwwLjAxNzQ3IGggOS4zMzMzOCBjIDAuNjgyOCwwIDAuODMwNSwtMC4wMDQ0IDAuOTI3NywtMC4wMTc0NyAwLjg5NzQsLTAuMTIwNjEgMS42MDM3LC0wLjg0MTU0IDEuNzIxOCwtMS43NTc3IDAuMDEyOCwtMC4wOTkyMyAwLjAxNzEsLTAuMjUwMDMgMC4wMTcxLC0wLjk0NzA1IDAsLTAuNjk3MDIgLTAuMDA0MywtMC44NDc4MiAtMC4wMTcxLC0wLjk0NzA1IEMgMTcuMTk4MSwyLjkwMDY4IDE2LjQ5MTgsMi4xNzk3NSAxNS41OTQ0LDIuMDU5MTMgMTUuNDk3MiwyLjA0NjA3IDE1LjM0OTUsMi4wNDE2NyAxNC42NjY3LDIuMDQxNjcgWiBtIDAsMTIuOTMwNTMgYyAwLjY4MjgsMCAwLjgzMDUsLTAuMDA0NCAwLjkyNzcsLTAuMDE3NCAwLjg5NzQsLTAuMTIwNyAxLjYwMzcsLTAuODQxNiAxLjcyMTgsLTEuNzU3OCAwLjAxMjgsLTAuMDk5MiAwLjAxNzEsLTAuMjUgMC4wMTcxLC0wLjk0NyAwLC0wLjY5NyAtMC4wMDQzLC0wLjg0NzggLTAuMDE3MSwtMC45NDcgQyAxNy4xOTgxLDEwLjM4NjggMTYuNDkxOCw5LjY2NTg2IDE1LjU5NDQsOS41NDUyNSAxNS40OTcyLDkuNTMyMTggMTUuMzQ5NSw5LjUyNzc4IDE0LjY2NjcsOS41Mjc3OCBIIDUuMzMzMzIgYyAtMC42ODI3OSwwIC0wLjgzMDUxLDAuMDA0NCAtMC45Mjc3MiwwLjAxNzQ3IC0wLjg5NzQ2LDAuMTIwNjEgLTEuNjAzNjgsMC44NDE1NSAtMS43MjE4MywxLjc1Nzc1IC0wLjAxMjgsMC4wOTkyIC0wLjAxNzExLDAuMjUgLTAuMDE3MTEsMC45NDcgMCwwLjY5NyAwLjAwNDMxLDAuODQ3OCAwLjAxNzExLDAuOTQ3IDAuMTE4MTUsMC45MTYyIDAuODI0MzcsMS42MzcxIDEuNzIxODMsMS43NTc4IDAuMDk3MjEsMC4wMTMgMC4yNDQ5MiwwLjAxNzQgMC45Mjc3MiwwLjAxNzQgSCA4IFoiIGNsaXAtcnVsZT0iZXZlbm9kZCIgZmlsbC1ydWxlPSJldmVub2RkIi8+PHBhdGggaWQ9InBhdGgxLTQiIGZpbGw9IiMwMDc3ZmYiIGQ9Im0gMC41NzcxMDgsMTguNTU3NTAzIGMgMC4xMjk2NTEsLTEuMDA1MzEgMC42MTMzNDMsLTEuODkzMDggMS4zMTk5OTMsLTIuNTI5NTIgLTAuNzA2NjUsLTAuNjM2NDMgLTEuMTkwMzQyLC0xLjUyNDE1IC0xLjMxOTk5MywtMi41Mjk1NSAtMC4wMzQyMjEsLTAuMjY1MyAtMC4wMzQyMjEsLTAuNTgxNCAtMC4wMzQyMjEsLTEuMjEzNSAwLC0wLjYzMjEgMCwtMC45NDgyIDAuMDM0MjIsLTEuMjEzNSAwLjEyOTY1MSwtMS4wMDU0IDAuNjEzMzQzLC0xLjg5MzEgMS4zMTk5OTMsLTIuNTI5NiBDIDEuMTkwNDUsNy45MDU0MzM0IDAuNzA2NzU4LDcuMDE3NjMzNCAwLjU3NzEwNyw2LjAxMjMzMzQgYyAtMC4wMzQyMiwtMC4yNjUzIC0wLjAzNDIyLC0wLjU4MTQgLTAuMDM0MjIsLTEuMjEzNSAwLC0wLjYzMjEgMCwtMC45NDgyIDAuMDM0MjIsLTEuMjEzNSAwLjIzNjMwOCwtMS44MzI0IDEuNjQ4NzQzLC0zLjI3NDIgMy40NDM2NzMsLTMuNTE1NSAwLjI1OTkzLC0wLjAzNDkgNi41Njk1NSwtMC4wMzQ5IDcuMTg4NzcsLTAuMDM0OSBoIDQuNjQ1ODUgYyAwLjU2Mzc5LDAgMS4wMjA4MywwLjQ1NyAxLjAyMDgzLDEuMDIwOCAwLDAuNTYzOCAtMC40NTcwNCwxLjAyMDkgLTEuMDIwODMsMS4wMjA5IGggLTQuNjQ1ODUgYyAtMC42ODI4LDAgLTYuODMwNTEsMC4wMDQ0IC02LjkyNzcyLDAuMDE3NCAtMC44OTc0NiwwLjEyMDYgLTEuNjAzNjgsMC44NDE2IC0xLjcyMTgzLDEuNzU3NyAtMC4wMTI4LDAuMDk5MyAtMC4wMTcxMSwwLjI1MDEgLTAuMDE3MTEsMC45NDcxIDAsMC42OTcgMC4wMDQzLDAuODQ3OCAwLjAxNzExLDAuOTQ3IDAuMTE4MTUsMC45MTYyIDAuODI0MzcsMS42MzcxIDEuNzIxODMsMS43NTc3IDAuMDk3MjEsMC4wMTMxIDAuMjQ0OTMsMC4wMTc1IDAuOTI3NzIsMC4wMTc1IGggMi42NjY2OCA1IDIuNTk0NCBjIDIuNDkxMSwwIDMuNTc4MiwxLjgzNzA5OTYgMy43MDQ3LDMuNTUwMzk5NiAwLjAzNDIsMC40NjM1IDAuMDM0MiwwLjU4MTQgMC4wMzQyLDEuMjEzNSAwLDAuNjMyMSAwLDAuOTQ4MiAtMC4wMzQyLDEuMjEzNSAtMC4xMjk3LDEuMDA1NCAtMC42MTMzLDEuODkzMTIgLTEuMzIsMi41Mjk1NSAwLjcwNjcsMC42MzY0NCAxLjE5MDMsMS41MjQyMSAxLjMyLDIuNTI5NTIgMC4wMzQyLDAuMjY1MzUgMC4wMzQyLDAuNTgxNDEgMC4wMzQyLDEuMjEzNTQgMCwwLjYzMjEzIDAsMC45NDgxOSAtMC4wMzQyLDEuMjEzNTQgLTAuMjM2MywxLjgzMjMzIC0xLjY0ODcsMy4yNzQxODYgLTMuNDQzNywzLjUxNTQxNyAtMC4yNTk4OTksMC4wMzQ5MyAtMC41Njk0OTksMC4wMzQ5MyAtMS4xODg2OTksMC4wMzQ5MyBoIC05LjMzMzM4IGMgLTAuNjE5MjIsMCAtMC45Mjg4NCwwIC0xLjE4ODc3LC0wLjAzNDkzIC0xLjc5NDkzLC0wLjI0MTIzMSAtMy4yMDczNjUsLTEuNjgzMDg3IC0zLjQ0MzY3MywtMy41MTU0MTcgLTAuMDM0MjIxLC0wLjI2NTM1IC0wLjAzNDIyMSwtMC41ODE0MSAtMC4wMzQyMjEsLTEuMjEzNTQgMCwtMC42MzIxMyAwLC0wLjk0ODE5IDAuMDM0MjIxLC0xLjIxMzU0IHogbSAxMy45NjU4MjMsMy45MzU3NiBoIC05LjMzMzM4IGMgLTAuNjgyNzksMCAtMC44MzA1MSwtMC4wMDQ0IC0wLjkyNzcyLC0wLjAxNzQ2IC0wLjg5NzQ2LC0wLjEyMDYyIC0xLjYwMzY4LC0wLjg0MTU1IC0xLjcyMTgzLC0xLjc1NzcxIC0wLjAxMjgsLTAuMDk5MjMgLTAuMDE3MTEsLTAuMjUwMDMgLTAuMDE3MTEsLTAuOTQ3MDUgMCwtMC42OTcwMiAwLjAwNDMsLTAuODQ3ODIgMC4wMTcxMSwtMC45NDcwNSAwLjExODE1LC0wLjkxNjE2IDAuODI0MzcsLTEuNjM3MDkgMS43MjE4MywtMS43NTc3IDAuMDk3MjEsLTAuMDEzMDcgMC4yNDQ5MiwtMC4wMTc0NyAwLjkyNzcyLC0wLjAxNzQ3IGggOS4zMzMzOCBjIDAuNjgyOCwwIDAuODMwNSwwLjAwNDQgMC45Mjc3LDAuMDE3NDcgMC44OTc0LDAuMTIwNjEgMS42MDM3LDAuODQxNTQgMS43MjE4LDEuNzU3NyAwLjAxMjgsMC4wOTkyMyAwLjAxNzEsMC4yNTAwMyAwLjAxNzEsMC45NDcwNSAwLDAuNjk3MDIgLTAuMDA0MywwLjg0NzgyIC0wLjAxNzEsMC45NDcwNSAtMC4xMTgxLDAuOTE2MTYgLTAuODI0NCwxLjYzNzA5IC0xLjcyMTgsMS43NTc3MSAtMC4wOTcyLDAuMDEzMDYgLTAuMjQ0OSwwLjAxNzQ2IC0wLjkyNzcsMC4wMTc0NiB6IG0gMCwtMTIuOTMwNTMgYyAwLjY4MjgsMCAwLjgzMDUsMC4wMDQ0IDAuOTI3NywwLjAxNzQgMC44OTc0LDAuMTIwNyAxLjYwMzcsMC44NDE2IDEuNzIxOCwxLjc1NzggMC4wMTI4LDAuMDk5MiAwLjAxNzEsMC4yNSAwLjAxNzEsMC45NDcgMCwwLjY5NyAtMC4wMDQzLDAuODQ3OCAtMC4wMTcxLDAuOTQ3IC0wLjExODEsMC45MTYyIC0wLjgyNDQsMS42MzcxNCAtMS43MjE4LDEuNzU3NzUgLTAuMDk3MiwwLjAxMzA3IC0wLjI0NDksMC4wMTc0NyAtMC45Mjc3LDAuMDE3NDcgaCAtOS4zMzMzOCBjIC0wLjY4Mjc5LDAgLTAuODMwNTEsLTAuMDA0NCAtMC45Mjc3MiwtMC4wMTc0NyAtMC44OTc0NiwtMC4xMjA2MSAtMS42MDM2OCwtMC44NDE1NSAtMS43MjE4MywtMS43NTc3NSAtMC4wMTI4LC0wLjA5OTIgLTAuMDE3MTEsLTAuMjUgLTAuMDE3MTEsLTAuOTQ3IDAsLTAuNjk3IDAuMDA0MywtMC44NDc4IDAuMDE3MTEsLTAuOTQ3IDAuMTE4MTUsLTAuOTE2MiAwLjgyNDM3LC0xLjYzNzEgMS43MjE4MywtMS43NTc4IDAuMDk3MjEsLTAuMDEzIDAuMjQ0OTIsLTAuMDE3NCAwLjkyNzcyLC0wLjAxNzQgaCAyLjY2NjY4IHoiIGNsaXAtcnVsZT0iZXZlbm9kZCIgZmlsbC1ydWxlPSJldmVub2RkIi8+PC9nPjwvZz48L2c+PC9zdmc+;fontFamily=VK Sans Display;fontSize=16;" parent="1" vertex="1">
          <mxGeometry x="601.64" y="100" width="43.45" height="40" as="geometry" />
        </mxCell>
        <mxCell id="9j2e3ir7Lk6FHDookw-K-27" value="Servers&#xa;load" style="shape=image;verticalLabelPosition=bottom;labelBackgroundColor=default;verticalAlign=top;imageAspect=0;image=data:image/svg+xml,PHN2ZyB4bWxucz0iaHR0cDovL3d3dy53My5vcmcvMjAwMC9zdmciIGlkPSJzdmcxIiB2ZXJzaW9uPSIxLjEiIGZpbGw9Im5vbmUiIHZpZXdCb3g9IjAgMCAyOCAyOCIgaGVpZ2h0PSIyOCIgd2lkdGg9IjI4Ij4mI3hhOyAgPGRlZnMgaWQ9ImRlZnMxIi8+JiN4YTsgICYjeGE7ICA8cGF0aCBpZD0icGF0aDEiIGZpbGw9IiMyNjg4RUIiIGQ9Ik0xMi4zNTcyIDJIMTIuNEgxNS42SDE1LjY0MjhDMTYuNzI2NiAxLjk5OTk5IDE3LjYwMDcgMS45OTk5OCAxOC4zMDg2IDIuMDU3ODJDMTkuMDM3NSAyLjExNzM3IDE5LjY3NzcgMi4yNDMxOCAyMC4yNyAyLjU0NDk3QzIxLjIxMDggMy4wMjQzNCAyMS45NzU3IDMuNzg5MjQgMjIuNDU1IDQuNzMwMDVDMjIuNzU2OCA1LjMyMjM0IDIyLjg4MjYgNS45NjI1MyAyMi45NDIyIDYuNjkxMzhDMjMgNy4zOTkyMyAyMyA4LjI3MzM0IDIzIDkuMzU3MDZWOS4zNTcxN1Y5LjRWMTguNlYxOC42NDI4VjE4LjY0MjlDMjMgMTkuNzI2NyAyMyAyMC42MDA4IDIyLjk0MjIgMjEuMzA4NkMyMi44ODI2IDIyLjAzNzUgMjIuNzU2OCAyMi42Nzc3IDIyLjQ1NSAyMy4yN0MyMS45NzU3IDI0LjIxMDggMjEuMjEwOCAyNC45NzU3IDIwLjI3IDI1LjQ1NUMxOS42Nzc3IDI1Ljc1NjggMTkuMDM3NSAyNS44ODI2IDE4LjMwODYgMjUuOTQyMkMxNy42MDA4IDI2IDE2LjcyNjcgMjYgMTUuNjQyOSAyNkgxNS42NDI4SDE1LjZIMTIuNEgxMi4zNTcySDEyLjM1NzFDMTEuMjczMyAyNiAxMC4zOTkyIDI2IDkuNjkxMzggMjUuOTQyMkM4Ljk2MjUzIDI1Ljg4MjYgOC4zMjIzNCAyNS43NTY4IDcuNzMwMDUgMjUuNDU1QzYuNzg5MjQgMjQuOTc1NyA2LjAyNDMzIDI0LjIxMDggNS41NDQ5NyAyMy4yN0M1LjI0MzE4IDIyLjY3NzcgNS4xMTczNyAyMi4wMzc1IDUuMDU3ODIgMjEuMzA4NkM0Ljk5OTk4IDIwLjYwMDcgNC45OTk5OSAxOS43MjY2IDUgMTguNjQyOFYxOC42VjkuNFY5LjM1NzE5QzQuOTk5OTkgOC4yNzM0MSA0Ljk5OTk4IDcuMzk5MjYgNS4wNTc4MiA2LjY5MTM4QzUuMTE3MzcgNS45NjI1MyA1LjI0MzE4IDUuMzIyMzQgNS41NDQ5NyA0LjczMDA1QzYuMDI0MzMgMy43ODkyNCA2Ljc4OTI0IDMuMDI0MzQgNy43MzAwNSAyLjU0NDk3QzguMzIyMzQgMi4yNDMxOCA4Ljk2MjUzIDIuMTE3MzcgOS42OTEzOCAyLjA1NzgyQzEwLjM5OTMgMS45OTk5OCAxMS4yNzM0IDEuOTk5OTkgMTIuMzU3MiAySDEyLjM1NzJaTTkuODU0MjQgNC4wNTExOEM5LjI0OTA3IDQuMTAwNjIgOC45MDEzOCA0LjE5Mjc5IDguNjM4MDMgNC4zMjY5OEM4LjA3MzU0IDQuNjE0NiA3LjYxNDYgNS4wNzM1NCA3LjMyNjk4IDUuNjM4MDNDNy4xOTI3OSA1LjkwMTM4IDcuMTAwNjIgNi4yNDkwNyA3LjA1MTE4IDYuODU0MjRDNy4wMDA3OCA3LjQ3MTA4IDcgOC4yNjMzOSA3IDkuNFY5LjVMMjEgOS41VjkuNEMyMSA4LjI2MzM5IDIwLjk5OTIgNy40NzEwOCAyMC45NDg4IDYuODU0MjRDMjAuODk5NCA2LjI0OTA3IDIwLjgwNzIgNS45MDEzOCAyMC42NzMgNS42MzgwM0MyMC4zODU0IDUuMDczNTQgMTkuOTI2NSA0LjYxNDYgMTkuMzYyIDQuMzI2OThDMTkuMDk4NiA0LjE5Mjc5IDE4Ljc1MDkgNC4xMDA2MiAxOC4xNDU4IDQuMDUxMThDMTcuNTI4OSA0LjAwMDc4IDE2LjczNjYgNCAxNS42IDRIMTIuNEMxMS4yNjM0IDQgMTAuNDcxMSA0LjAwMDc4IDkuODU0MjQgNC4wNTExOFpNMjEgMTEuNUg3VjE2LjVMMjEgMTYuNVYxMS41Wk03IDE4LjZWMTguNUgyMVYxOC42QzIxIDE5LjczNjYgMjAuOTk5MiAyMC41Mjg5IDIwLjk0ODggMjEuMTQ1OEMyMC44OTk0IDIxLjc1MDkgMjAuODA3MiAyMi4wOTg2IDIwLjY3MyAyMi4zNjJDMjAuMzg1NCAyMi45MjY1IDE5LjkyNjUgMjMuMzg1NCAxOS4zNjIgMjMuNjczQzE5LjA5ODYgMjMuODA3MiAxOC43NTA5IDIzLjg5OTQgMTguMTQ1OCAyMy45NDg4QzE3LjUyODkgMjMuOTk5MiAxNi43MzY2IDI0IDE1LjYgMjRIMTIuNEMxMS4yNjM0IDI0IDEwLjQ3MTEgMjMuOTk5MiA5Ljg1NDI0IDIzLjk0ODhDOS4yNDkwNyAyMy44OTk0IDguOTAxMzggMjMuODA3MiA4LjYzODAzIDIzLjY3M0M4LjA3MzU0IDIzLjM4NTQgNy42MTQ2IDIyLjkyNjUgNy4zMjY5OCAyMi4zNjJDNy4xOTI3OSAyMi4wOTg2IDcuMTAwNjIgMjEuNzUwOSA3LjA1MTE4IDIxLjE0NThDNy4wMDA3OCAyMC41Mjg5IDcgMTkuNzM2NiA3IDE4LjZaIiBjbGlwLXJ1bGU9ImV2ZW5vZGQiIGZpbGwtcnVsZT0iZXZlbm9kZCIvPiYjeGE7ICA8cGF0aCBpZD0icGF0aDUiIGQ9Ik0gNy4wMTM3NTI1LDE0IFYgMTEuNTI0NTU4IEggMTQgMjAuOTg2MjQ4IFYgMTQgMTYuNDc1NDQyIEggMTQgNy4wMTM3NTI1IFoiIHN0eWxlPSJmaWxsOiNkNmYyZjk7ZmlsbC1vcGFjaXR5OjE7c3Ryb2tlLXdpZHRoOjAuMDU1MDA5OCIvPiYjeGE7ICA8cGF0aCBpZD0icGF0aDYiIGQ9Ik0gOS42NDM3ODI0LDIzLjkwMDk0MyBDIDkuNDQxMzc5NSwyMy44NzY0OTQgOS4xNDQzMjY1LDIzLjgxODE2NSA4Ljk4MzY2NDYsMjMuNzcxMzIyIDguMTc1MTAyNywyMy41MzU1NzkgNy4zODg1NzAyLDIyLjY5Mjk5OCA3LjE4MjYxNTgsMjEuODQxOTMxIDcuMDk0NzY0MiwyMS40Nzg5MDEgNy4wMTgwODQ2LDIwLjMyMTQwMyA3LjAxNTY5MzksMTkuMzIyMiBsIC0wLjAwMTk0LC0wLjgxMTM5NCBIIDE0IDIwLjk4NjI0OCBsIC0wLjAwMTksMC44MTEzOTQgYyAtMC4wMDI0LDAuOTk5MjAzIC0wLjA3OTA3LDIuMTU2NzAxIC0wLjE2NjkyMiwyLjUxOTczMSAtMC4yMjEwNzUsMC45MTM1NTEgLTEuMDQwODc3LDEuNzM1NTY0IC0xLjk4MDI0MiwxLjk4NTU4MiAtMC4zMTc0MTgsMC4wODQ0OCAtMC43ODk4NTcsMC4wOTU0IC00LjU4OTU5OCwwLjEwNjAzIC0yLjMyOTY2NiwwLjAwNjUgLTQuNDAxMzU4NiwtMC4wMDgyIC00LjYwMzc2MTYsLTAuMDMyNiB6IiBzdHlsZT0iZmlsbDojZDZmMmY5O2ZpbGwtb3BhY2l0eToxO3N0cm9rZS13aWR0aDowLjA1NTAwOTgiLz4mI3hhOzwvc3ZnPg==;fontFamily=VK Sans Display;fontSize=16;" parent="1" vertex="1">
          <mxGeometry x="671.36" y="95" width="25" height="40" as="geometry" />
        </mxCell>
        <mxCell id="9j2e3ir7Lk6FHDookw-K-28" value="CDN server" style="shape=image;verticalLabelPosition=bottom;labelBackgroundColor=none;verticalAlign=top;aspect=fixed;imageAspect=0;image=data:image/svg+xml,PHN2ZyB4bWxucz0iaHR0cDovL3d3dy53My5vcmcvMjAwMC9zdmciIHhtbDpzcGFjZT0icHJlc2VydmUiIGlkPSJzdmcxIiB2ZXJzaW9uPSIxLjEiIGZpbGw9Im5vbmUiIHZpZXdCb3g9IjAgMCAyMC4wMjA2OTEgMjguMDgyNTY5IiBoZWlnaHQ9IjI4LjA4MjU2OSIgd2lkdGg9IjIwLjAyMDY5MSI+PGRlZnMgaWQ9ImRlZnMxIi8+PGcgdHJhbnNmb3JtPSJ0cmFuc2xhdGUoLTAuNDgzOTQ4OTcsLTAuMzIxNzA5NjMpIiBpZD0ibGF5ZXIxIj48cGF0aCBpZD0icGF0aDEiIGZpbGw9IiMwMDc3ZmYiIGQ9Im0gMC41MTgxNjk5Nyw2LjI5OTEzOTYgYyAwLjEyOTY1MSwxLjAwNTMxIDAuNjEzMzQzMDMsMS44OTMwOCAxLjMxOTk5MzAzLDIuNTI5NTIgLTAuNzA2NjUsMC42MzY0MyAtMS4xOTAzNDIwMywxLjUyNDE1MDQgLTEuMzE5OTkzMDMsMi41Mjk1NTA0IC0wLjAzNDIyMSwwLjI2NTMgLTAuMDM0MjIxLDAuNTgxNCAtMC4wMzQyMjEsMS4yMTM1IDAsMC42MzIxIDAsMC45NDgyIDAuMDM0MjIxLDEuMjEzNSAwLjEyOTY1MSwxLjAwNTQgMC42MTMzNDMwMywxLjg5MzEgMS4zMTk5OTMwMywyLjUyOTYgLTAuNzA2NjUsMC42MzY0IC0xLjE5MDM0MjAzLDEuNTI0MiAtMS4zMTk5OTMwMywyLjUyOTUgLTAuMDM0MjIxLDAuMjY1MyAtMC4wMzQyMjEsMC41ODE0IC0wLjAzNDIyMSwxLjIxMzUgMCwwLjYzMjEgMCwwLjk0ODIgMC4wMzQyMjEsMS4yMTM1IDAuMjM2MzA4LDEuODMyNCAxLjY0ODc0MzAzLDMuMjc0MiAzLjQ0MzY3MzAzLDMuNTE1NSAwLjI1OTkzLDAuMDM0OSAyLjU2OTU1LDAuMDM0OSAzLjE4ODc3LDAuMDM0OSBoIDAuNjQ1ODUgYyAwLjU2Mzc5LDAgMS4wMjA4MywtMC40NTcgMS4wMjA4MywtMS4wMjA4IDAsLTAuNTYzOCAtMC40NTcwNCwtMS4wMjA5IC0xLjAyMDgzLC0xLjAyMDkgaCAtMC42NDU4NSBjIC0wLjY4MjgsMCAtMi44MzA1MSwtMC4wMDQ0IC0yLjkyNzcyLC0wLjAxNzQgLTAuODk3NDYsLTAuMTIwNiAtMS42MDM2OCwtMC44NDE2IC0xLjcyMTgzLC0xLjc1NzcgLTAuMDEyOCwtMC4wOTkzIC0wLjAxNzExLC0wLjI1MDEgLTAuMDE3MTEsLTAuOTQ3MSAwLC0wLjY5NyAwLjAwNDMxLC0wLjg0NzggMC4wMTcxMSwtMC45NDcgMC4xMTgxNSwtMC45MTYyIDAuODI0MzcsLTEuNjM3MSAxLjcyMTgzLC0xLjc1NzcgMC4wOTcyMSwtMC4wMTMxIDAuMjQ0OTMsLTAuMDE3NSAwLjkyNzcyLC0wLjAxNzUgaCAyLjY2NjY4IDUgMi41OTQ0IGMgMi40OTExLDAgMy41NzgyLC0xLjgzNzEgMy43MDQ3LC0zLjU1MDQgMC4wMzQyLC0wLjQ2MzUgMC4wMzQyLC0wLjU4MTQgMC4wMzQyLC0xLjIxMzUgMCwtMC42MzIxIDAsLTAuOTQ4MiAtMC4wMzQyLC0xLjIxMzUgLTAuMTI5NywtMS4wMDU0IC0wLjYxMzMsLTEuODkzMTIwNCAtMS4zMiwtMi41Mjk1NTA0IDAuNzA2NywtMC42MzY0NCAxLjE5MDMsLTEuNTI0MjEgMS4zMiwtMi41Mjk1MiAwLjAzNDIsLTAuMjY1MzUgMC4wMzQyLC0wLjU4MTQxIDAuMDM0MiwtMS4yMTM1NCAwLC0wLjYzMjEzIDAsLTAuOTQ4MTkgLTAuMDM0MiwtMS4yMTM1NCAtMC4yMzYzLC0xLjgzMjMzIC0xLjY0ODcsLTMuMjc0MTg1OTcgLTMuNDQzNywtMy41MTU0MTY1NyAtMC4yNTk5LC0wLjAzNDkzMzQgLTAuNTY5NSwtMC4wMzQ5MzM0IC0xLjE4ODcsLTAuMDM0OTMzNCBoIC05LjMzMzM4IGMgLTAuNjE5MjIsMCAtMC45Mjg4NCwwIC0xLjE4ODc3LDAuMDM0OTMzNCAtMS43OTQ5MywwLjI0MTIzMDYgLTMuMjA3MzY1MDMsMS42ODMwODY1NyAtMy40NDM2NzMwMywzLjUxNTQxNjU3IC0wLjAzNDIyMSwwLjI2NTM1IC0wLjAzNDIyMSwwLjU4MTQxIC0wLjAzNDIyMSwxLjIxMzU0IDAsMC42MzIxMyAwLDAuOTQ4MTkgMC4wMzQyMjEsMS4yMTM1NCB6IE0gMTQuNDgzOTkzLDIuMzYzMzc5NiBoIC05LjMzMzM4IGMgLTAuNjgyNzksMCAtMC44MzA1MSwwLjAwNDQgLTAuOTI3NzIsMC4wMTc0NiAtMC44OTc0NiwwLjEyMDYyIC0xLjYwMzY4LDAuODQxNTUgLTEuNzIxODMsMS43NTc3MSAtMC4wMTI4LDAuMDk5MjMgLTAuMDE3MTEsMC4yNTAwMyAtMC4wMTcxMSwwLjk0NzA1IDAsMC42OTcwMiAwLjAwNDMxLDAuODQ3ODIgMC4wMTcxMSwwLjk0NzA1IDAuMTE4MTUsMC45MTYxNiAwLjgyNDM3LDEuNjM3MDkgMS43MjE4MywxLjc1NzcgMC4wOTcyMSwwLjAxMzA3IDAuMjQ0OTIsMC4wMTc0NyAwLjkyNzcyLDAuMDE3NDcgaCA5LjMzMzM4IGMgMC42ODI4LDAgMC44MzA1LC0wLjAwNDQgMC45Mjc3LC0wLjAxNzQ3IDAuODk3NCwtMC4xMjA2MSAxLjYwMzcsLTAuODQxNTQgMS43MjE4LC0xLjc1NzcgMC4wMTI4LC0wLjA5OTIzIDAuMDE3MSwtMC4yNTAwMyAwLjAxNzEsLTAuOTQ3MDUgMCwtMC42OTcwMiAtMC4wMDQzLC0wLjg0NzgyIC0wLjAxNzEsLTAuOTQ3MDUgLTAuMTE4MSwtMC45MTYxNiAtMC44MjQ0LC0xLjYzNzA5IC0xLjcyMTgsLTEuNzU3NzEgLTAuMDk3MiwtMC4wMTMwNiAtMC4yNDQ5LC0wLjAxNzQ2IC0wLjkyNzcsLTAuMDE3NDYgeiBtIDAsMTIuOTMwNTMwNCBjIDAuNjgyOCwwIDAuODMwNSwtMC4wMDQ0IDAuOTI3NywtMC4wMTc0IDAuODk3NCwtMC4xMjA3IDEuNjAzNywtMC44NDE2IDEuNzIxOCwtMS43NTc4IDAuMDEyOCwtMC4wOTkyIDAuMDE3MSwtMC4yNSAwLjAxNzEsLTAuOTQ3IDAsLTAuNjk3IC0wLjAwNDMsLTAuODQ3OCAtMC4wMTcxLC0wLjk0NyAtMC4xMTgxLC0wLjkxNjIgLTAuODI0NCwtMS42MzcxNDA0IC0xLjcyMTgsLTEuNzU3NzUwNCAtMC4wOTcyLC0wLjAxMzA3IC0wLjI0NDksLTAuMDE3NDcgLTAuOTI3NywtMC4wMTc0NyBoIC05LjMzMzM4IGMgLTAuNjgyNzksMCAtMC44MzA1MSwwLjAwNDQgLTAuOTI3NzIsMC4wMTc0NyAtMC44OTc0NiwwLjEyMDYxIC0xLjYwMzY4LDAuODQxNTUwNCAtMS43MjE4MywxLjc1Nzc1MDQgLTAuMDEyOCwwLjA5OTIgLTAuMDE3MTEsMC4yNSAtMC4wMTcxMSwwLjk0NyAwLDAuNjk3IDAuMDA0MzEsMC44NDc4IDAuMDE3MTEsMC45NDcgMC4xMTgxNSwwLjkxNjIgMC44MjQzNywxLjYzNzEgMS43MjE4MywxLjc1NzggMC4wOTcyMSwwLjAxMyAwLjI0NDkyLDAuMDE3NCAwLjkyNzcyLDAuMDE3NCBoIDIuNjY2NjggeiIgY2xpcC1ydWxlPSJldmVub2RkIiBmaWxsLXJ1bGU9ImV2ZW5vZGQiLz48ZyB0cmFuc2Zvcm09Im1hdHJpeCgwLjU3Njk2MzYyLDAsMCwwLjU1NDY0MTEsNi42NTc1MTM3LDE1LjY0NzQ5NSkiIGlkPSJnMTkiIHN0eWxlPSJmaWxsOiMwMDc3ZmY7ZmlsbC1vcGFjaXR5OjEiPjxwYXRoIHN0eWxlPSJmaWxsOiMwMDc3ZmY7ZmlsbC1vcGFjaXR5OjEiIGlkPSJwYXRoMS00IiBmaWxsPSIjMjY4OGViIiBkPSJNIDYuODUwMDQsNiBDIDYuNTgyMTksNiA2LjMxNjA3LDYuMDA2OTQgNi4wNTE4Miw2LjAyMDY0IDUuNTAwMjgsNi4wNDkyNCA1LjAyOTk4LDUuNjI1MzEgNS4wMDEzOCw1LjA3Mzc3IDQuOTcyNzgsNC41MjIyMiA1LjM5NjcxLDQuMDUxOTMgNS45NDgyNSw0LjAyMzMzIDYuMjQ2OTgsNC4wMDc4NCA2LjU0NzY0LDQgNi44NTAwNCw0IDE2LjMyMTcsNCAyNCwxMS42NzgzIDI0LDIxLjE1IGMgMCwwLjMwMjQgLTAuMDA3OCwwLjYwMzEgLTAuMDIzMywwLjkwMTggLTAuMDI4NiwwLjU1MTUgLTAuNDk4OSwwLjk3NTUgLTEuMDUwNCwwLjk0NjkgQyAyMi4zNzQ3LDIyLjk3MDEgMjEuOTUwOCwyMi40OTk4IDIxLjk3OTQsMjEuOTQ4MiAyMS45OTMxLDIxLjY4NCAyMiwyMS40MTc4IDIyLDIxLjE1IDIyLDEyLjc4MjkgMTUuMjE3Miw2IDYuODUwMDQsNiBaIi8+PHBhdGggc3R5bGU9ImZpbGw6IzAwNzdmZjtmaWxsLW9wYWNpdHk6MSIgaWQ9InBhdGgyIiBmaWxsPSIjMjY4OGViIiBkPSJNIDYuMTY1NDksMTYuMDY5MiBDIDYuNDM2MjUsMTYuMDIzOCA2LjcxNDk5LDE2IDcuMDAwMDQsMTYgOS43NjE0NiwxNiAxMiwxOC4yMzg2IDEyLDIxIGMgMCwwLjI4NSAtMC4wMjM3LDAuNTYzOCAtMC4wNjkxLDAuODM0NSAtMC4wOTE0LDAuNTQ0NyAwLjI3NiwxLjA2MDMgMC44MjA3LDEuMTUxNyAwLjU0NDcsMC4wOTE0IDEuMDYwMywtMC4yNzYxIDEuMTUxNywtMC44MjA3IEMgMTMuOTY3LDIxLjc4NTggMTQsMjEuMzk2NCAxNCwyMSBjIDAsLTMuODY2IC0zLjEzNCwtNyAtNi45OTk5NiwtNyAtMC4zOTYzOCwwIC0wLjc4NTgsMC4wMzMgLTEuMTY1NDYsMC4wOTY3IC0wLjU0NDY3LDAuMDkxNCAtMC45MTIxNCwwLjYwNyAtMC44MjA3NiwxLjE1MTcgMC4wOTEzOCwwLjU0NDcgMC42MDcsMC45MTIyIDEuMTUxNjcsMC44MjA4IHoiLz48cGF0aCBzdHlsZT0iZmlsbDojMDA3N2ZmO2ZpbGwtb3BhY2l0eToxIiBpZD0icGF0aDMiIGZpbGw9IiMyNjg4ZWIiIGQ9Im0gOS4wMDAwMSwyMSBjIDAsMS4xMDQ2IC0wLjg5NTQzLDIgLTIsMiAtMS4xMDQ1NywwIC0yLC0wLjg5NTQgLTIsLTIgMCwtMS4xMDQ2IDAuODk1NDMsLTIgMiwtMiAxLjEwNDU3LDAgMiwwLjg5NTQgMiwyIHoiLz48cGF0aCBzdHlsZT0iZmlsbDojMDA3N2ZmO2ZpbGwtb3BhY2l0eToxIiBpZD0icGF0aDQiIGZpbGw9IiMyNjg4ZWIiIGQ9Ik0gNi4wODk3OSwxMS4wNDA4IEMgNi4zODkzNSwxMS4wMTM4IDYuNjkyOTUsMTEgNy4wMDAwNCwxMSAxMi41MjI5LDExIDE3LDE1LjQ3NzIgMTcsMjEgYyAwLDAuMzA3MSAtMC4wMTM4LDAuNjEwNyAtMC4wNDA4LDAuOTEwMiAtMC4wNDk1LDAuNTUwMSAwLjM1NjIsMS4wMzYyIDAuOTA2MiwxLjA4NTggMC41NTAxLDAuMDQ5NSAxLjAzNjIsLTAuMzU2MiAxLjA4NTgsLTAuOTA2MiBDIDE4Ljk4MzUsMjEuNzMwNiAxOSwyMS4zNjcxIDE5LDIxIDE5LDE0LjM3MjYgMTMuNjI3NSw5IDcuMDAwMDQsOSA2LjYzMjk0LDkgNi4yNjk0NSw5LjAxNjUxIDUuOTEwMjgsOS4wNDg4OCA1LjM2MDIzLDkuMDk4NDUgNC45NTQ1LDkuNTg0NTQgNS4wMDQwNywxMC4xMzQ2IGMgMC4wNDk1NywwLjU1IDAuNTM1NjYsMC45NTU4IDEuMDg1NzIsMC45MDYyIHoiLz48L2c+PC9nPjxnIHRyYW5zZm9ybT0idHJhbnNsYXRlKC0wLjQ4Mzk0ODk3LC0wLjMyMTcwOTYzKSIgaWQ9ImxheWVyMiIvPjwvc3ZnPg==;fontFamily=VK Sans Display;fontSize=16;" parent="1" vertex="1">
          <mxGeometry x="501.42999999999995" y="140" width="25" height="35" as="geometry" />
        </mxCell>
        <mxCell id="9j2e3ir7Lk6FHDookw-K-29" value="CDN server" style="shape=image;verticalLabelPosition=bottom;labelBackgroundColor=default;verticalAlign=top;aspect=fixed;imageAspect=0;image=data:image/svg+xml,PHN2ZyB4bWxucz0iaHR0cDovL3d3dy53My5vcmcvMjAwMC9zdmciIHhtbDpzcGFjZT0icHJlc2VydmUiIGlkPSJzdmcxIiB2ZXJzaW9uPSIxLjEiIGZpbGw9Im5vbmUiIHZpZXdCb3g9IjAgMCAyMC4wMjA2OTEgMjguMDgyNTY5IiBoZWlnaHQ9IjI4LjA4MjU2OSIgd2lkdGg9IjIwLjAyMDY5MSI+PGRlZnMgaWQ9ImRlZnMxIi8+PGcgdHJhbnNmb3JtPSJ0cmFuc2xhdGUoLTAuNDgzOTQ4OTcsLTAuMzIxNzA5NjMpIiBpZD0ibGF5ZXIxIj48cGF0aCBpZD0icGF0aDEiIGZpbGw9IiMwMDc3ZmYiIGQ9Im0gMC41MTgxNjk5Nyw2LjI5OTEzOTYgYyAwLjEyOTY1MSwxLjAwNTMxIDAuNjEzMzQzMDMsMS44OTMwOCAxLjMxOTk5MzAzLDIuNTI5NTIgLTAuNzA2NjUsMC42MzY0MyAtMS4xOTAzNDIwMywxLjUyNDE1MDQgLTEuMzE5OTkzMDMsMi41Mjk1NTA0IC0wLjAzNDIyMSwwLjI2NTMgLTAuMDM0MjIxLDAuNTgxNCAtMC4wMzQyMjEsMS4yMTM1IDAsMC42MzIxIDAsMC45NDgyIDAuMDM0MjIxLDEuMjEzNSAwLjEyOTY1MSwxLjAwNTQgMC42MTMzNDMwMywxLjg5MzEgMS4zMTk5OTMwMywyLjUyOTYgLTAuNzA2NjUsMC42MzY0IC0xLjE5MDM0MjAzLDEuNTI0MiAtMS4zMTk5OTMwMywyLjUyOTUgLTAuMDM0MjIxLDAuMjY1MyAtMC4wMzQyMjEsMC41ODE0IC0wLjAzNDIyMSwxLjIxMzUgMCwwLjYzMjEgMCwwLjk0ODIgMC4wMzQyMjEsMS4yMTM1IDAuMjM2MzA4LDEuODMyNCAxLjY0ODc0MzAzLDMuMjc0MiAzLjQ0MzY3MzAzLDMuNTE1NSAwLjI1OTkzLDAuMDM0OSAyLjU2OTU1LDAuMDM0OSAzLjE4ODc3LDAuMDM0OSBoIDAuNjQ1ODUgYyAwLjU2Mzc5LDAgMS4wMjA4MywtMC40NTcgMS4wMjA4MywtMS4wMjA4IDAsLTAuNTYzOCAtMC40NTcwNCwtMS4wMjA5IC0xLjAyMDgzLC0xLjAyMDkgaCAtMC42NDU4NSBjIC0wLjY4MjgsMCAtMi44MzA1MSwtMC4wMDQ0IC0yLjkyNzcyLC0wLjAxNzQgLTAuODk3NDYsLTAuMTIwNiAtMS42MDM2OCwtMC44NDE2IC0xLjcyMTgzLC0xLjc1NzcgLTAuMDEyOCwtMC4wOTkzIC0wLjAxNzExLC0wLjI1MDEgLTAuMDE3MTEsLTAuOTQ3MSAwLC0wLjY5NyAwLjAwNDMxLC0wLjg0NzggMC4wMTcxMSwtMC45NDcgMC4xMTgxNSwtMC45MTYyIDAuODI0MzcsLTEuNjM3MSAxLjcyMTgzLC0xLjc1NzcgMC4wOTcyMSwtMC4wMTMxIDAuMjQ0OTMsLTAuMDE3NSAwLjkyNzcyLC0wLjAxNzUgaCAyLjY2NjY4IDUgMi41OTQ0IGMgMi40OTExLDAgMy41NzgyLC0xLjgzNzEgMy43MDQ3LC0zLjU1MDQgMC4wMzQyLC0wLjQ2MzUgMC4wMzQyLC0wLjU4MTQgMC4wMzQyLC0xLjIxMzUgMCwtMC42MzIxIDAsLTAuOTQ4MiAtMC4wMzQyLC0xLjIxMzUgLTAuMTI5NywtMS4wMDU0IC0wLjYxMzMsLTEuODkzMTIwNCAtMS4zMiwtMi41Mjk1NTA0IDAuNzA2NywtMC42MzY0NCAxLjE5MDMsLTEuNTI0MjEgMS4zMiwtMi41Mjk1MiAwLjAzNDIsLTAuMjY1MzUgMC4wMzQyLC0wLjU4MTQxIDAuMDM0MiwtMS4yMTM1NCAwLC0wLjYzMjEzIDAsLTAuOTQ4MTkgLTAuMDM0MiwtMS4yMTM1NCAtMC4yMzYzLC0xLjgzMjMzIC0xLjY0ODcsLTMuMjc0MTg1OTcgLTMuNDQzNywtMy41MTU0MTY1NyAtMC4yNTk5LC0wLjAzNDkzMzQgLTAuNTY5NSwtMC4wMzQ5MzM0IC0xLjE4ODcsLTAuMDM0OTMzNCBoIC05LjMzMzM4IGMgLTAuNjE5MjIsMCAtMC45Mjg4NCwwIC0xLjE4ODc3LDAuMDM0OTMzNCAtMS43OTQ5MywwLjI0MTIzMDYgLTMuMjA3MzY1MDMsMS42ODMwODY1NyAtMy40NDM2NzMwMywzLjUxNTQxNjU3IC0wLjAzNDIyMSwwLjI2NTM1IC0wLjAzNDIyMSwwLjU4MTQxIC0wLjAzNDIyMSwxLjIxMzU0IDAsMC42MzIxMyAwLDAuOTQ4MTkgMC4wMzQyMjEsMS4yMTM1NCB6IE0gMTQuNDgzOTkzLDIuMzYzMzc5NiBoIC05LjMzMzM4IGMgLTAuNjgyNzksMCAtMC44MzA1MSwwLjAwNDQgLTAuOTI3NzIsMC4wMTc0NiAtMC44OTc0NiwwLjEyMDYyIC0xLjYwMzY4LDAuODQxNTUgLTEuNzIxODMsMS43NTc3MSAtMC4wMTI4LDAuMDk5MjMgLTAuMDE3MTEsMC4yNTAwMyAtMC4wMTcxMSwwLjk0NzA1IDAsMC42OTcwMiAwLjAwNDMxLDAuODQ3ODIgMC4wMTcxMSwwLjk0NzA1IDAuMTE4MTUsMC45MTYxNiAwLjgyNDM3LDEuNjM3MDkgMS43MjE4MywxLjc1NzcgMC4wOTcyMSwwLjAxMzA3IDAuMjQ0OTIsMC4wMTc0NyAwLjkyNzcyLDAuMDE3NDcgaCA5LjMzMzM4IGMgMC42ODI4LDAgMC44MzA1LC0wLjAwNDQgMC45Mjc3LC0wLjAxNzQ3IDAuODk3NCwtMC4xMjA2MSAxLjYwMzcsLTAuODQxNTQgMS43MjE4LC0xLjc1NzcgMC4wMTI4LC0wLjA5OTIzIDAuMDE3MSwtMC4yNTAwMyAwLjAxNzEsLTAuOTQ3MDUgMCwtMC42OTcwMiAtMC4wMDQzLC0wLjg0NzgyIC0wLjAxNzEsLTAuOTQ3MDUgLTAuMTE4MSwtMC45MTYxNiAtMC44MjQ0LC0xLjYzNzA5IC0xLjcyMTgsLTEuNzU3NzEgLTAuMDk3MiwtMC4wMTMwNiAtMC4yNDQ5LC0wLjAxNzQ2IC0wLjkyNzcsLTAuMDE3NDYgeiBtIDAsMTIuOTMwNTMwNCBjIDAuNjgyOCwwIDAuODMwNSwtMC4wMDQ0IDAuOTI3NywtMC4wMTc0IDAuODk3NCwtMC4xMjA3IDEuNjAzNywtMC44NDE2IDEuNzIxOCwtMS43NTc4IDAuMDEyOCwtMC4wOTkyIDAuMDE3MSwtMC4yNSAwLjAxNzEsLTAuOTQ3IDAsLTAuNjk3IC0wLjAwNDMsLTAuODQ3OCAtMC4wMTcxLC0wLjk0NyAtMC4xMTgxLC0wLjkxNjIgLTAuODI0NCwtMS42MzcxNDA0IC0xLjcyMTgsLTEuNzU3NzUwNCAtMC4wOTcyLC0wLjAxMzA3IC0wLjI0NDksLTAuMDE3NDcgLTAuOTI3NywtMC4wMTc0NyBoIC05LjMzMzM4IGMgLTAuNjgyNzksMCAtMC44MzA1MSwwLjAwNDQgLTAuOTI3NzIsMC4wMTc0NyAtMC44OTc0NiwwLjEyMDYxIC0xLjYwMzY4LDAuODQxNTUwNCAtMS43MjE4MywxLjc1Nzc1MDQgLTAuMDEyOCwwLjA5OTIgLTAuMDE3MTEsMC4yNSAtMC4wMTcxMSwwLjk0NyAwLDAuNjk3IDAuMDA0MzEsMC44NDc4IDAuMDE3MTEsMC45NDcgMC4xMTgxNSwwLjkxNjIgMC44MjQzNywxLjYzNzEgMS43MjE4MywxLjc1NzggMC4wOTcyMSwwLjAxMyAwLjI0NDkyLDAuMDE3NCAwLjkyNzcyLDAuMDE3NCBoIDIuNjY2NjggeiIgY2xpcC1ydWxlPSJldmVub2RkIiBmaWxsLXJ1bGU9ImV2ZW5vZGQiLz48ZyB0cmFuc2Zvcm09Im1hdHJpeCgwLjU3Njk2MzYyLDAsMCwwLjU1NDY0MTEsNi42NTc1MTM3LDE1LjY0NzQ5NSkiIGlkPSJnMTkiIHN0eWxlPSJmaWxsOiMwMDc3ZmY7ZmlsbC1vcGFjaXR5OjEiPjxwYXRoIHN0eWxlPSJmaWxsOiMwMDc3ZmY7ZmlsbC1vcGFjaXR5OjEiIGlkPSJwYXRoMS00IiBmaWxsPSIjMjY4OGViIiBkPSJNIDYuODUwMDQsNiBDIDYuNTgyMTksNiA2LjMxNjA3LDYuMDA2OTQgNi4wNTE4Miw2LjAyMDY0IDUuNTAwMjgsNi4wNDkyNCA1LjAyOTk4LDUuNjI1MzEgNS4wMDEzOCw1LjA3Mzc3IDQuOTcyNzgsNC41MjIyMiA1LjM5NjcxLDQuMDUxOTMgNS45NDgyNSw0LjAyMzMzIDYuMjQ2OTgsNC4wMDc4NCA2LjU0NzY0LDQgNi44NTAwNCw0IDE2LjMyMTcsNCAyNCwxMS42NzgzIDI0LDIxLjE1IGMgMCwwLjMwMjQgLTAuMDA3OCwwLjYwMzEgLTAuMDIzMywwLjkwMTggLTAuMDI4NiwwLjU1MTUgLTAuNDk4OSwwLjk3NTUgLTEuMDUwNCwwLjk0NjkgQyAyMi4zNzQ3LDIyLjk3MDEgMjEuOTUwOCwyMi40OTk4IDIxLjk3OTQsMjEuOTQ4MiAyMS45OTMxLDIxLjY4NCAyMiwyMS40MTc4IDIyLDIxLjE1IDIyLDEyLjc4MjkgMTUuMjE3Miw2IDYuODUwMDQsNiBaIi8+PHBhdGggc3R5bGU9ImZpbGw6IzAwNzdmZjtmaWxsLW9wYWNpdHk6MSIgaWQ9InBhdGgyIiBmaWxsPSIjMjY4OGViIiBkPSJNIDYuMTY1NDksMTYuMDY5MiBDIDYuNDM2MjUsMTYuMDIzOCA2LjcxNDk5LDE2IDcuMDAwMDQsMTYgOS43NjE0NiwxNiAxMiwxOC4yMzg2IDEyLDIxIGMgMCwwLjI4NSAtMC4wMjM3LDAuNTYzOCAtMC4wNjkxLDAuODM0NSAtMC4wOTE0LDAuNTQ0NyAwLjI3NiwxLjA2MDMgMC44MjA3LDEuMTUxNyAwLjU0NDcsMC4wOTE0IDEuMDYwMywtMC4yNzYxIDEuMTUxNywtMC44MjA3IEMgMTMuOTY3LDIxLjc4NTggMTQsMjEuMzk2NCAxNCwyMSBjIDAsLTMuODY2IC0zLjEzNCwtNyAtNi45OTk5NiwtNyAtMC4zOTYzOCwwIC0wLjc4NTgsMC4wMzMgLTEuMTY1NDYsMC4wOTY3IC0wLjU0NDY3LDAuMDkxNCAtMC45MTIxNCwwLjYwNyAtMC44MjA3NiwxLjE1MTcgMC4wOTEzOCwwLjU0NDcgMC42MDcsMC45MTIyIDEuMTUxNjcsMC44MjA4IHoiLz48cGF0aCBzdHlsZT0iZmlsbDojMDA3N2ZmO2ZpbGwtb3BhY2l0eToxIiBpZD0icGF0aDMiIGZpbGw9IiMyNjg4ZWIiIGQ9Im0gOS4wMDAwMSwyMSBjIDAsMS4xMDQ2IC0wLjg5NTQzLDIgLTIsMiAtMS4xMDQ1NywwIC0yLC0wLjg5NTQgLTIsLTIgMCwtMS4xMDQ2IDAuODk1NDMsLTIgMiwtMiAxLjEwNDU3LDAgMiwwLjg5NTQgMiwyIHoiLz48cGF0aCBzdHlsZT0iZmlsbDojMDA3N2ZmO2ZpbGwtb3BhY2l0eToxIiBpZD0icGF0aDQiIGZpbGw9IiMyNjg4ZWIiIGQ9Ik0gNi4wODk3OSwxMS4wNDA4IEMgNi4zODkzNSwxMS4wMTM4IDYuNjkyOTUsMTEgNy4wMDAwNCwxMSAxMi41MjI5LDExIDE3LDE1LjQ3NzIgMTcsMjEgYyAwLDAuMzA3MSAtMC4wMTM4LDAuNjEwNyAtMC4wNDA4LDAuOTEwMiAtMC4wNDk1LDAuNTUwMSAwLjM1NjIsMS4wMzYyIDAuOTA2MiwxLjA4NTggMC41NTAxLDAuMDQ5NSAxLjAzNjIsLTAuMzU2MiAxLjA4NTgsLTAuOTA2MiBDIDE4Ljk4MzUsMjEuNzMwNiAxOSwyMS4zNjcxIDE5LDIxIDE5LDE0LjM3MjYgMTMuNjI3NSw5IDcuMDAwMDQsOSA2LjYzMjk0LDkgNi4yNjk0NSw5LjAxNjUxIDUuOTEwMjgsOS4wNDg4OCA1LjM2MDIzLDkuMDk4NDUgNC45NTQ1LDkuNTg0NTQgNS4wMDQwNywxMC4xMzQ2IGMgMC4wNDk1NywwLjU1IDAuNTM1NjYsMC45NTU4IDEuMDg1NzIsMC45MDYyIHoiLz48L2c+PC9nPjxnIHRyYW5zZm9ybT0idHJhbnNsYXRlKC0wLjQ4Mzk0ODk3LC0wLjMyMTcwOTYzKSIgaWQ9ImxheWVyMiIvPjwvc3ZnPg==;fontFamily=VK Sans Display;fontSize=16;" parent="1" vertex="1">
          <mxGeometry x="609.08" y="242" width="25" height="35" as="geometry" />
        </mxCell>
        <mxCell id="9j2e3ir7Lk6FHDookw-K-30" value="CDN server" style="shape=image;verticalLabelPosition=bottom;labelBackgroundColor=default;verticalAlign=top;aspect=fixed;imageAspect=0;image=data:image/svg+xml,PHN2ZyB4bWxucz0iaHR0cDovL3d3dy53My5vcmcvMjAwMC9zdmciIHhtbDpzcGFjZT0icHJlc2VydmUiIGlkPSJzdmcxIiB2ZXJzaW9uPSIxLjEiIGZpbGw9Im5vbmUiIHZpZXdCb3g9IjAgMCAyMC4wMjA2OTEgMjguMDgyNTY5IiBoZWlnaHQ9IjI4LjA4MjU2OSIgd2lkdGg9IjIwLjAyMDY5MSI+PGRlZnMgaWQ9ImRlZnMxIi8+PGcgdHJhbnNmb3JtPSJ0cmFuc2xhdGUoLTAuNDgzOTQ4OTcsLTAuMzIxNzA5NjMpIiBpZD0ibGF5ZXIxIj48cGF0aCBpZD0icGF0aDEiIGZpbGw9IiMwMDc3ZmYiIGQ9Im0gMC41MTgxNjk5Nyw2LjI5OTEzOTYgYyAwLjEyOTY1MSwxLjAwNTMxIDAuNjEzMzQzMDMsMS44OTMwOCAxLjMxOTk5MzAzLDIuNTI5NTIgLTAuNzA2NjUsMC42MzY0MyAtMS4xOTAzNDIwMywxLjUyNDE1MDQgLTEuMzE5OTkzMDMsMi41Mjk1NTA0IC0wLjAzNDIyMSwwLjI2NTMgLTAuMDM0MjIxLDAuNTgxNCAtMC4wMzQyMjEsMS4yMTM1IDAsMC42MzIxIDAsMC45NDgyIDAuMDM0MjIxLDEuMjEzNSAwLjEyOTY1MSwxLjAwNTQgMC42MTMzNDMwMywxLjg5MzEgMS4zMTk5OTMwMywyLjUyOTYgLTAuNzA2NjUsMC42MzY0IC0xLjE5MDM0MjAzLDEuNTI0MiAtMS4zMTk5OTMwMywyLjUyOTUgLTAuMDM0MjIxLDAuMjY1MyAtMC4wMzQyMjEsMC41ODE0IC0wLjAzNDIyMSwxLjIxMzUgMCwwLjYzMjEgMCwwLjk0ODIgMC4wMzQyMjEsMS4yMTM1IDAuMjM2MzA4LDEuODMyNCAxLjY0ODc0MzAzLDMuMjc0MiAzLjQ0MzY3MzAzLDMuNTE1NSAwLjI1OTkzLDAuMDM0OSAyLjU2OTU1LDAuMDM0OSAzLjE4ODc3LDAuMDM0OSBoIDAuNjQ1ODUgYyAwLjU2Mzc5LDAgMS4wMjA4MywtMC40NTcgMS4wMjA4MywtMS4wMjA4IDAsLTAuNTYzOCAtMC40NTcwNCwtMS4wMjA5IC0xLjAyMDgzLC0xLjAyMDkgaCAtMC42NDU4NSBjIC0wLjY4MjgsMCAtMi44MzA1MSwtMC4wMDQ0IC0yLjkyNzcyLC0wLjAxNzQgLTAuODk3NDYsLTAuMTIwNiAtMS42MDM2OCwtMC44NDE2IC0xLjcyMTgzLC0xLjc1NzcgLTAuMDEyOCwtMC4wOTkzIC0wLjAxNzExLC0wLjI1MDEgLTAuMDE3MTEsLTAuOTQ3MSAwLC0wLjY5NyAwLjAwNDMxLC0wLjg0NzggMC4wMTcxMSwtMC45NDcgMC4xMTgxNSwtMC45MTYyIDAuODI0MzcsLTEuNjM3MSAxLjcyMTgzLC0xLjc1NzcgMC4wOTcyMSwtMC4wMTMxIDAuMjQ0OTMsLTAuMDE3NSAwLjkyNzcyLC0wLjAxNzUgaCAyLjY2NjY4IDUgMi41OTQ0IGMgMi40OTExLDAgMy41NzgyLC0xLjgzNzEgMy43MDQ3LC0zLjU1MDQgMC4wMzQyLC0wLjQ2MzUgMC4wMzQyLC0wLjU4MTQgMC4wMzQyLC0xLjIxMzUgMCwtMC42MzIxIDAsLTAuOTQ4MiAtMC4wMzQyLC0xLjIxMzUgLTAuMTI5NywtMS4wMDU0IC0wLjYxMzMsLTEuODkzMTIwNCAtMS4zMiwtMi41Mjk1NTA0IDAuNzA2NywtMC42MzY0NCAxLjE5MDMsLTEuNTI0MjEgMS4zMiwtMi41Mjk1MiAwLjAzNDIsLTAuMjY1MzUgMC4wMzQyLC0wLjU4MTQxIDAuMDM0MiwtMS4yMTM1NCAwLC0wLjYzMjEzIDAsLTAuOTQ4MTkgLTAuMDM0MiwtMS4yMTM1NCAtMC4yMzYzLC0xLjgzMjMzIC0xLjY0ODcsLTMuMjc0MTg1OTcgLTMuNDQzNywtMy41MTU0MTY1NyAtMC4yNTk5LC0wLjAzNDkzMzQgLTAuNTY5NSwtMC4wMzQ5MzM0IC0xLjE4ODcsLTAuMDM0OTMzNCBoIC05LjMzMzM4IGMgLTAuNjE5MjIsMCAtMC45Mjg4NCwwIC0xLjE4ODc3LDAuMDM0OTMzNCAtMS43OTQ5MywwLjI0MTIzMDYgLTMuMjA3MzY1MDMsMS42ODMwODY1NyAtMy40NDM2NzMwMywzLjUxNTQxNjU3IC0wLjAzNDIyMSwwLjI2NTM1IC0wLjAzNDIyMSwwLjU4MTQxIC0wLjAzNDIyMSwxLjIxMzU0IDAsMC42MzIxMyAwLDAuOTQ4MTkgMC4wMzQyMjEsMS4yMTM1NCB6IE0gMTQuNDgzOTkzLDIuMzYzMzc5NiBoIC05LjMzMzM4IGMgLTAuNjgyNzksMCAtMC44MzA1MSwwLjAwNDQgLTAuOTI3NzIsMC4wMTc0NiAtMC44OTc0NiwwLjEyMDYyIC0xLjYwMzY4LDAuODQxNTUgLTEuNzIxODMsMS43NTc3MSAtMC4wMTI4LDAuMDk5MjMgLTAuMDE3MTEsMC4yNTAwMyAtMC4wMTcxMSwwLjk0NzA1IDAsMC42OTcwMiAwLjAwNDMxLDAuODQ3ODIgMC4wMTcxMSwwLjk0NzA1IDAuMTE4MTUsMC45MTYxNiAwLjgyNDM3LDEuNjM3MDkgMS43MjE4MywxLjc1NzcgMC4wOTcyMSwwLjAxMzA3IDAuMjQ0OTIsMC4wMTc0NyAwLjkyNzcyLDAuMDE3NDcgaCA5LjMzMzM4IGMgMC42ODI4LDAgMC44MzA1LC0wLjAwNDQgMC45Mjc3LC0wLjAxNzQ3IDAuODk3NCwtMC4xMjA2MSAxLjYwMzcsLTAuODQxNTQgMS43MjE4LC0xLjc1NzcgMC4wMTI4LC0wLjA5OTIzIDAuMDE3MSwtMC4yNTAwMyAwLjAxNzEsLTAuOTQ3MDUgMCwtMC42OTcwMiAtMC4wMDQzLC0wLjg0NzgyIC0wLjAxNzEsLTAuOTQ3MDUgLTAuMTE4MSwtMC45MTYxNiAtMC44MjQ0LC0xLjYzNzA5IC0xLjcyMTgsLTEuNzU3NzEgLTAuMDk3MiwtMC4wMTMwNiAtMC4yNDQ5LC0wLjAxNzQ2IC0wLjkyNzcsLTAuMDE3NDYgeiBtIDAsMTIuOTMwNTMwNCBjIDAuNjgyOCwwIDAuODMwNSwtMC4wMDQ0IDAuOTI3NywtMC4wMTc0IDAuODk3NCwtMC4xMjA3IDEuNjAzNywtMC44NDE2IDEuNzIxOCwtMS43NTc4IDAuMDEyOCwtMC4wOTkyIDAuMDE3MSwtMC4yNSAwLjAxNzEsLTAuOTQ3IDAsLTAuNjk3IC0wLjAwNDMsLTAuODQ3OCAtMC4wMTcxLC0wLjk0NyAtMC4xMTgxLC0wLjkxNjIgLTAuODI0NCwtMS42MzcxNDA0IC0xLjcyMTgsLTEuNzU3NzUwNCAtMC4wOTcyLC0wLjAxMzA3IC0wLjI0NDksLTAuMDE3NDcgLTAuOTI3NywtMC4wMTc0NyBoIC05LjMzMzM4IGMgLTAuNjgyNzksMCAtMC44MzA1MSwwLjAwNDQgLTAuOTI3NzIsMC4wMTc0NyAtMC44OTc0NiwwLjEyMDYxIC0xLjYwMzY4LDAuODQxNTUwNCAtMS43MjE4MywxLjc1Nzc1MDQgLTAuMDEyOCwwLjA5OTIgLTAuMDE3MTEsMC4yNSAtMC4wMTcxMSwwLjk0NyAwLDAuNjk3IDAuMDA0MzEsMC44NDc4IDAuMDE3MTEsMC45NDcgMC4xMTgxNSwwLjkxNjIgMC44MjQzNywxLjYzNzEgMS43MjE4MywxLjc1NzggMC4wOTcyMSwwLjAxMyAwLjI0NDkyLDAuMDE3NCAwLjkyNzcyLDAuMDE3NCBoIDIuNjY2NjggeiIgY2xpcC1ydWxlPSJldmVub2RkIiBmaWxsLXJ1bGU9ImV2ZW5vZGQiLz48ZyB0cmFuc2Zvcm09Im1hdHJpeCgwLjU3Njk2MzYyLDAsMCwwLjU1NDY0MTEsNi42NTc1MTM3LDE1LjY0NzQ5NSkiIGlkPSJnMTkiIHN0eWxlPSJmaWxsOiMwMDc3ZmY7ZmlsbC1vcGFjaXR5OjEiPjxwYXRoIHN0eWxlPSJmaWxsOiMwMDc3ZmY7ZmlsbC1vcGFjaXR5OjEiIGlkPSJwYXRoMS00IiBmaWxsPSIjMjY4OGViIiBkPSJNIDYuODUwMDQsNiBDIDYuNTgyMTksNiA2LjMxNjA3LDYuMDA2OTQgNi4wNTE4Miw2LjAyMDY0IDUuNTAwMjgsNi4wNDkyNCA1LjAyOTk4LDUuNjI1MzEgNS4wMDEzOCw1LjA3Mzc3IDQuOTcyNzgsNC41MjIyMiA1LjM5NjcxLDQuMDUxOTMgNS45NDgyNSw0LjAyMzMzIDYuMjQ2OTgsNC4wMDc4NCA2LjU0NzY0LDQgNi44NTAwNCw0IDE2LjMyMTcsNCAyNCwxMS42NzgzIDI0LDIxLjE1IGMgMCwwLjMwMjQgLTAuMDA3OCwwLjYwMzEgLTAuMDIzMywwLjkwMTggLTAuMDI4NiwwLjU1MTUgLTAuNDk4OSwwLjk3NTUgLTEuMDUwNCwwLjk0NjkgQyAyMi4zNzQ3LDIyLjk3MDEgMjEuOTUwOCwyMi40OTk4IDIxLjk3OTQsMjEuOTQ4MiAyMS45OTMxLDIxLjY4NCAyMiwyMS40MTc4IDIyLDIxLjE1IDIyLDEyLjc4MjkgMTUuMjE3Miw2IDYuODUwMDQsNiBaIi8+PHBhdGggc3R5bGU9ImZpbGw6IzAwNzdmZjtmaWxsLW9wYWNpdHk6MSIgaWQ9InBhdGgyIiBmaWxsPSIjMjY4OGViIiBkPSJNIDYuMTY1NDksMTYuMDY5MiBDIDYuNDM2MjUsMTYuMDIzOCA2LjcxNDk5LDE2IDcuMDAwMDQsMTYgOS43NjE0NiwxNiAxMiwxOC4yMzg2IDEyLDIxIGMgMCwwLjI4NSAtMC4wMjM3LDAuNTYzOCAtMC4wNjkxLDAuODM0NSAtMC4wOTE0LDAuNTQ0NyAwLjI3NiwxLjA2MDMgMC44MjA3LDEuMTUxNyAwLjU0NDcsMC4wOTE0IDEuMDYwMywtMC4yNzYxIDEuMTUxNywtMC44MjA3IEMgMTMuOTY3LDIxLjc4NTggMTQsMjEuMzk2NCAxNCwyMSBjIDAsLTMuODY2IC0zLjEzNCwtNyAtNi45OTk5NiwtNyAtMC4zOTYzOCwwIC0wLjc4NTgsMC4wMzMgLTEuMTY1NDYsMC4wOTY3IC0wLjU0NDY3LDAuMDkxNCAtMC45MTIxNCwwLjYwNyAtMC44MjA3NiwxLjE1MTcgMC4wOTEzOCwwLjU0NDcgMC42MDcsMC45MTIyIDEuMTUxNjcsMC44MjA4IHoiLz48cGF0aCBzdHlsZT0iZmlsbDojMDA3N2ZmO2ZpbGwtb3BhY2l0eToxIiBpZD0icGF0aDMiIGZpbGw9IiMyNjg4ZWIiIGQ9Im0gOS4wMDAwMSwyMSBjIDAsMS4xMDQ2IC0wLjg5NTQzLDIgLTIsMiAtMS4xMDQ1NywwIC0yLC0wLjg5NTQgLTIsLTIgMCwtMS4xMDQ2IDAuODk1NDMsLTIgMiwtMiAxLjEwNDU3LDAgMiwwLjg5NTQgMiwyIHoiLz48cGF0aCBzdHlsZT0iZmlsbDojMDA3N2ZmO2ZpbGwtb3BhY2l0eToxIiBpZD0icGF0aDQiIGZpbGw9IiMyNjg4ZWIiIGQ9Ik0gNi4wODk3OSwxMS4wNDA4IEMgNi4zODkzNSwxMS4wMTM4IDYuNjkyOTUsMTEgNy4wMDAwNCwxMSAxMi41MjI5LDExIDE3LDE1LjQ3NzIgMTcsMjEgYyAwLDAuMzA3MSAtMC4wMTM4LDAuNjEwNyAtMC4wNDA4LDAuOTEwMiAtMC4wNDk1LDAuNTUwMSAwLjM1NjIsMS4wMzYyIDAuOTA2MiwxLjA4NTggMC41NTAxLDAuMDQ5NSAxLjAzNjIsLTAuMzU2MiAxLjA4NTgsLTAuOTA2MiBDIDE4Ljk4MzUsMjEuNzMwNiAxOSwyMS4zNjcxIDE5LDIxIDE5LDE0LjM3MjYgMTMuNjI3NSw5IDcuMDAwMDQsOSA2LjYzMjk0LDkgNi4yNjk0NSw5LjAxNjUxIDUuOTEwMjgsOS4wNDg4OCA1LjM2MDIzLDkuMDk4NDUgNC45NTQ1LDkuNTg0NTQgNS4wMDQwNywxMC4xMzQ2IGMgMC4wNDk1NywwLjU1IDAuNTM1NjYsMC45NTU4IDEuMDg1NzIsMC45MDYyIHoiLz48L2c+PC9nPjxnIHRyYW5zZm9ybT0idHJhbnNsYXRlKC0wLjQ4Mzk0ODk3LC0wLjMyMTcwOTYzKSIgaWQ9ImxheWVyMiIvPjwvc3ZnPg==;fontFamily=VK Sans Display;fontSize=16;" parent="1" vertex="1">
          <mxGeometry x="722" y="349" width="25" height="35" as="geometry" />
        </mxCell>
        <mxCell id="9j2e3ir7Lk6FHDookw-K-31" value="" style="shape=image;verticalLabelPosition=bottom;labelBackgroundColor=default;verticalAlign=top;aspect=fixed;imageAspect=0;image=data:image/svg+xml,PHN2ZyB4bWxucz0iaHR0cDovL3d3dy53My5vcmcvMjAwMC9zdmciIGZpbGw9Im5vbmUiIHZpZXdCb3g9IjAgMCAyOCAyOCIgaGVpZ2h0PSIyOCIgd2lkdGg9IjI4Ij4mI3hhOzxwYXRoIGZpbGw9IiMyNjg4RUIiIGQ9Ik0xNy41IDguNUMxNy41IDYuNTY2MDMgMTUuOTM0IDUgMTQgNUMxMi4wNjYgNSAxMC41IDYuNTY2MDMgMTAuNSA4LjVDMTAuNSAxMC40MzQgMTIuMDY2IDEyIDE0IDEyQzE1LjkzNCAxMiAxNy41IDEwLjQzNCAxNy41IDguNVpNMTkuNSA4LjVDMTkuNSAxMS41Mzg1IDE3LjAzODUgMTQgMTQgMTRDMTAuOTYxNSAxNCA4LjUgMTEuNTM4NSA4LjUgOC41QzguNSA1LjQ2MTQ3IDEwLjk2MTUgMyAxNCAzQzE3LjAzODUgMyAxOS41IDUuNDYxNDcgMTkuNSA4LjVaTTcgMjAuNjQyOUM3IDIxLjU4NjIgNi45MTk4NyAyMS41IDcuNDU1ODggMjEuNUgyMS4wNDQxQzIxLjU4MDEgMjEuNSAyMS41IDIxLjU4NjIgMjEuNSAyMC42NDI5QzIxLjUgMTguMzU0NyAxOC4xOTYgMTcgMTQuMjUgMTdDMTAuMzA0IDE3IDcgMTguMzU0NyA3IDIwLjY0MjlaTTUgMjAuNjQyOUM1IDE2Ljc2MjYgOS4yOTg5MiAxNSAxNC4yNSAxNUMxOS4yMDExIDE1IDIzLjUgMTYuNzYyNiAyMy41IDIwLjY0MjlDMjMuNSAyMi42NTkzIDIyLjcxODkgMjMuNSAyMS4wNDQxIDIzLjVINy40NTU4OEM1Ljc4MTExIDIzLjUgNSAyMi42NTkzIDUgMjAuNjQyOVoiLz4mI3hhOzwvc3ZnPg==;fontFamily=VK Sans Display;spacing=-7;fontColor=#212121;fontSize=16;" parent="1" vertex="1">
          <mxGeometry x="437.42999999999995" y="220" width="40" height="40" as="geometry" />
        </mxCell>
        <mxCell id="9j2e3ir7Lk6FHDookw-K-32" value="" style="shape=image;verticalLabelPosition=bottom;labelBackgroundColor=default;verticalAlign=top;aspect=fixed;imageAspect=0;image=data:image/svg+xml,PHN2ZyB4bWxucz0iaHR0cDovL3d3dy53My5vcmcvMjAwMC9zdmciIGZpbGw9Im5vbmUiIHZpZXdCb3g9IjAgMCAyOCAyOCIgaGVpZ2h0PSIyOCIgd2lkdGg9IjI4Ij4mI3hhOzxwYXRoIGZpbGw9IiMyNjg4RUIiIGQ9Ik0xNy41IDguNUMxNy41IDYuNTY2MDMgMTUuOTM0IDUgMTQgNUMxMi4wNjYgNSAxMC41IDYuNTY2MDMgMTAuNSA4LjVDMTAuNSAxMC40MzQgMTIuMDY2IDEyIDE0IDEyQzE1LjkzNCAxMiAxNy41IDEwLjQzNCAxNy41IDguNVpNMTkuNSA4LjVDMTkuNSAxMS41Mzg1IDE3LjAzODUgMTQgMTQgMTRDMTAuOTYxNSAxNCA4LjUgMTEuNTM4NSA4LjUgOC41QzguNSA1LjQ2MTQ3IDEwLjk2MTUgMyAxNCAzQzE3LjAzODUgMyAxOS41IDUuNDYxNDcgMTkuNSA4LjVaTTcgMjAuNjQyOUM3IDIxLjU4NjIgNi45MTk4NyAyMS41IDcuNDU1ODggMjEuNUgyMS4wNDQxQzIxLjU4MDEgMjEuNSAyMS41IDIxLjU4NjIgMjEuNSAyMC42NDI5QzIxLjUgMTguMzU0NyAxOC4xOTYgMTcgMTQuMjUgMTdDMTAuMzA0IDE3IDcgMTguMzU0NyA3IDIwLjY0MjlaTTUgMjAuNjQyOUM1IDE2Ljc2MjYgOS4yOTg5MiAxNSAxNC4yNSAxNUMxOS4yMDExIDE1IDIzLjUgMTYuNzYyNiAyMy41IDIwLjY0MjlDMjMuNSAyMi42NTkzIDIyLjcxODkgMjMuNSAyMS4wNDQxIDIzLjVINy40NTU4OEM1Ljc4MTExIDIzLjUgNSAyMi42NTkzIDUgMjAuNjQyOVoiLz4mI3hhOzwvc3ZnPg==;fontFamily=VK Sans Display;spacing=-7;fontColor=#212121;fontSize=16;" parent="1" vertex="1">
          <mxGeometry x="536" y="316" width="40" height="40" as="geometry" />
        </mxCell>
        <mxCell id="9j2e3ir7Lk6FHDookw-K-35" value="" style="shape=image;verticalLabelPosition=bottom;labelBackgroundColor=default;verticalAlign=top;aspect=fixed;imageAspect=0;image=data:image/svg+xml,PHN2ZyB4bWxucz0iaHR0cDovL3d3dy53My5vcmcvMjAwMC9zdmciIGZpbGw9Im5vbmUiIHZpZXdCb3g9IjAgMCAyOCAyOCIgaGVpZ2h0PSIyOCIgd2lkdGg9IjI4Ij4mI3hhOzxwYXRoIGZpbGw9IiMyNjg4RUIiIGQ9Ik0xNy41IDguNUMxNy41IDYuNTY2MDMgMTUuOTM0IDUgMTQgNUMxMi4wNjYgNSAxMC41IDYuNTY2MDMgMTAuNSA4LjVDMTAuNSAxMC40MzQgMTIuMDY2IDEyIDE0IDEyQzE1LjkzNCAxMiAxNy41IDEwLjQzNCAxNy41IDguNVpNMTkuNSA4LjVDMTkuNSAxMS41Mzg1IDE3LjAzODUgMTQgMTQgMTRDMTAuOTYxNSAxNCA4LjUgMTEuNTM4NSA4LjUgOC41QzguNSA1LjQ2MTQ3IDEwLjk2MTUgMyAxNCAzQzE3LjAzODUgMyAxOS41IDUuNDYxNDcgMTkuNSA4LjVaTTcgMjAuNjQyOUM3IDIxLjU4NjIgNi45MTk4NyAyMS41IDcuNDU1ODggMjEuNUgyMS4wNDQxQzIxLjU4MDEgMjEuNSAyMS41IDIxLjU4NjIgMjEuNSAyMC42NDI5QzIxLjUgMTguMzU0NyAxOC4xOTYgMTcgMTQuMjUgMTdDMTAuMzA0IDE3IDcgMTguMzU0NyA3IDIwLjY0MjlaTTUgMjAuNjQyOUM1IDE2Ljc2MjYgOS4yOTg5MiAxNSAxNC4yNSAxNUMxOS4yMDExIDE1IDIzLjUgMTYuNzYyNiAyMy41IDIwLjY0MjlDMjMuNSAyMi42NTkzIDIyLjcxODkgMjMuNSAyMS4wNDQxIDIzLjVINy40NTU4OEM1Ljc4MTExIDIzLjUgNSAyMi42NTkzIDUgMjAuNjQyOVoiLz4mI3hhOzwvc3ZnPg==;fontFamily=VK Sans Display;spacing=-7;fontColor=#212121;fontSize=16;" parent="1" vertex="1">
          <mxGeometry x="651" y="429" width="40" height="40" as="geometry" />
        </mxCell>
        <mxCell id="9j2e3ir7Lk6FHDookw-K-40" value="" style="endArrow=open;html=1;fontFamily=VK Sans Display;fontColor=#212121;strokeColor=#7C8A9A;endFill=0;strokeWidth=2;arcSize=8;rounded=1;exitX=0.5;exitY=0;exitDx=0;exitDy=0;entryX=0;entryY=0.5;entryDx=0;entryDy=0;edgeStyle=orthogonalEdgeStyle;dashed=1;" parent="1" source="9j2e3ir7Lk6FHDookw-K-28" target="9j2e3ir7Lk6FHDookw-K-26" edge="1">
          <mxGeometry width="50" height="50" relative="1" as="geometry">
            <mxPoint x="550" y="120.41" as="sourcePoint" />
            <mxPoint x="622" y="120" as="targetPoint" />
          </mxGeometry>
        </mxCell>
        <mxCell id="9j2e3ir7Lk6FHDookw-K-41" value="" style="endArrow=open;html=1;fontFamily=VK Sans Display;fontColor=#212121;strokeColor=#7C8A9A;endFill=0;strokeWidth=2;arcSize=8;rounded=1;exitX=0.5;exitY=0;exitDx=0;exitDy=0;entryX=0;entryY=0.5;entryDx=0;entryDy=0;edgeStyle=orthogonalEdgeStyle;" parent="1" source="9j2e3ir7Lk6FHDookw-K-31" target="9j2e3ir7Lk6FHDookw-K-28" edge="1">
          <mxGeometry width="50" height="50" relative="1" as="geometry">
            <mxPoint x="379" y="90" as="sourcePoint" />
            <mxPoint x="492" y="70" as="targetPoint" />
          </mxGeometry>
        </mxCell>
        <mxCell id="9j2e3ir7Lk6FHDookw-K-45" value="" style="endArrow=open;html=1;fontFamily=VK Sans Display;fontColor=#212121;strokeColor=#7C8A9A;endFill=0;strokeWidth=2;arcSize=8;rounded=1;exitX=0.5;exitY=0;exitDx=0;exitDy=0;entryX=0;entryY=0.5;entryDx=0;entryDy=0;edgeStyle=orthogonalEdgeStyle;" parent="1" source="9j2e3ir7Lk6FHDookw-K-32" target="9j2e3ir7Lk6FHDookw-K-29" edge="1">
          <mxGeometry width="50" height="50" relative="1" as="geometry">
            <mxPoint x="536" y="316" as="sourcePoint" />
            <mxPoint x="589.0799999999999" y="259.5" as="targetPoint" />
          </mxGeometry>
        </mxCell>
        <mxCell id="9j2e3ir7Lk6FHDookw-K-47" value="" style="endArrow=open;html=1;fontFamily=VK Sans Display;fontColor=#212121;strokeColor=#7C8A9A;endFill=0;strokeWidth=2;arcSize=8;rounded=0;exitX=0.5;exitY=0;exitDx=0;exitDy=0;dashed=1;" parent="1" source="9j2e3ir7Lk6FHDookw-K-29" edge="1">
          <mxGeometry width="50" height="50" relative="1" as="geometry">
            <mxPoint x="623" y="258.40999999999997" as="sourcePoint" />
            <mxPoint x="623" y="179" as="targetPoint" />
            <Array as="points" />
          </mxGeometry>
        </mxCell>
        <mxCell id="9j2e3ir7Lk6FHDookw-K-50" value="" style="endArrow=open;html=1;fontFamily=VK Sans Display;fontColor=#212121;strokeColor=#7C8A9A;endFill=0;strokeWidth=2;arcSize=8;rounded=1;exitX=0.5;exitY=0;exitDx=0;exitDy=0;entryX=1;entryY=0.5;entryDx=0;entryDy=0;edgeStyle=orthogonalEdgeStyle;dashed=1;" parent="1" source="9j2e3ir7Lk6FHDookw-K-30" target="9j2e3ir7Lk6FHDookw-K-29" edge="1">
          <mxGeometry width="50" height="50" relative="1" as="geometry">
            <mxPoint x="823.5" y="308" as="sourcePoint" />
            <mxPoint x="839.9300000000001" y="189" as="targetPoint" />
          </mxGeometry>
        </mxCell>
        <mxCell id="9j2e3ir7Lk6FHDookw-K-52" value="" style="endArrow=open;html=1;fontFamily=VK Sans Display;fontColor=#212121;strokeColor=#7C8A9A;endFill=0;strokeWidth=2;arcSize=8;rounded=1;edgeStyle=orthogonalEdgeStyle;exitX=0.5;exitY=0;exitDx=0;exitDy=0;" parent="1" source="9j2e3ir7Lk6FHDookw-K-35" edge="1">
          <mxGeometry width="50" height="50" relative="1" as="geometry">
            <mxPoint x="670.0000000000002" y="427" as="sourcePoint" />
            <mxPoint x="721" y="366" as="targetPoint" />
            <Array as="points">
              <mxPoint x="670" y="366" />
            </Array>
          </mxGeometry>
        </mxCell>
        <mxCell id="f5HX-OZeqhqnF7wZsBNI-3" value="Connection&#xa;quality" style="shape=image;verticalLabelPosition=bottom;labelBackgroundColor=default;verticalAlign=bottom;aspect=fixed;imageAspect=0;image=data:image/svg+xml,PHN2ZyB4bWxucz0iaHR0cDovL3d3dy53My5vcmcvMjAwMC9zdmciIGlkPSJzdmc0IiB2ZXJzaW9uPSIxLjEiIGZpbGw9Im5vbmUiIHZpZXdCb3g9IjAgMCAyOCAyOCIgaGVpZ2h0PSIyOCIgd2lkdGg9IjI4Ij4mI3hhOyAgPGRlZnMgaWQ9ImRlZnM0Ii8+JiN4YTsgICYjeGE7ICA8cGF0aCBzdHlsZT0iZmlsbDojODdkNmU4O2ZpbGwtb3BhY2l0eToxIiBpZD0icGF0aDEiIGZpbGw9IiMyNjg4RUIiIGQ9Ik02Ljg1MDA0IDZDNi41ODIxOSA2IDYuMzE2MDcgNi4wMDY5NCA2LjA1MTgyIDYuMDIwNjRDNS41MDAyOCA2LjA0OTI0IDUuMDI5OTggNS42MjUzMSA1LjAwMTM4IDUuMDczNzdDNC45NzI3OCA0LjUyMjIyIDUuMzk2NzEgNC4wNTE5MyA1Ljk0ODI1IDQuMDIzMzNDNi4yNDY5OCA0LjAwNzg0IDYuNTQ3NjQgNCA2Ljg1MDA0IDRDMTYuMzIxNyA0IDI0IDExLjY3ODMgMjQgMjEuMTVDMjQgMjEuNDUyNCAyMy45OTIyIDIxLjc1MzEgMjMuOTc2NyAyMi4wNTE4QzIzLjk0ODEgMjIuNjAzMyAyMy40Nzc4IDIzLjAyNzMgMjIuOTI2MyAyMi45OTg3QzIyLjM3NDcgMjIuOTcwMSAyMS45NTA4IDIyLjQ5OTggMjEuOTc5NCAyMS45NDgyQzIxLjk5MzEgMjEuNjg0IDIyIDIxLjQxNzggMjIgMjEuMTVDMjIgMTIuNzgyOSAxNS4yMTcyIDYgNi44NTAwNCA2WiIvPiYjeGE7ICA8cGF0aCBzdHlsZT0iZmlsbDojODdkNmU4O2ZpbGwtb3BhY2l0eToxIiBpZD0icGF0aDIiIGZpbGw9IiMyNjg4RUIiIGQ9Ik02LjE2NTQ5IDE2LjA2OTJDNi40MzYyNSAxNi4wMjM4IDYuNzE0OTkgMTYgNy4wMDAwNCAxNkM5Ljc2MTQ2IDE2IDEyIDE4LjIzODYgMTIgMjFDMTIgMjEuMjg1IDExLjk3NjMgMjEuNTYzOCAxMS45MzA5IDIxLjgzNDVDMTEuODM5NSAyMi4zNzkyIDEyLjIwNjkgMjIuODk0OCAxMi43NTE2IDIyLjk4NjJDMTMuMjk2MyAyMy4wNzc2IDEzLjgxMTkgMjIuNzEwMSAxMy45MDMzIDIyLjE2NTVDMTMuOTY3IDIxLjc4NTggMTQgMjEuMzk2NCAxNCAyMUMxNCAxNy4xMzQgMTAuODY2IDE0IDcuMDAwMDQgMTRDNi42MDM2NiAxNCA2LjIxNDI0IDE0LjAzMyA1LjgzNDU4IDE0LjA5NjdDNS4yODk5MSAxNC4xODgxIDQuOTIyNDQgMTQuNzAzNyA1LjAxMzgyIDE1LjI0ODRDNS4xMDUyIDE1Ljc5MzEgNS42MjA4MiAxNi4xNjA2IDYuMTY1NDkgMTYuMDY5MloiLz4mI3hhOyAgPHBhdGggc3R5bGU9ImZpbGw6Izg3ZDZlODtmaWxsLW9wYWNpdHk6MSIgaWQ9InBhdGgzIiBmaWxsPSIjMjY4OEVCIiBkPSJNOS4wMDAwMSAyMUM5LjAwMDAxIDIyLjEwNDYgOC4xMDQ1OCAyMyA3LjAwMDAxIDIzQzUuODk1NDQgMjMgNS4wMDAwMSAyMi4xMDQ2IDUuMDAwMDEgMjFDNS4wMDAwMSAxOS44OTU0IDUuODk1NDQgMTkgNy4wMDAwMSAxOUM4LjEwNDU4IDE5IDkuMDAwMDEgMTkuODk1NCA5LjAwMDAxIDIxWiIvPiYjeGE7ICA8cGF0aCBzdHlsZT0iZmlsbDojODdkNmU4O2ZpbGwtb3BhY2l0eToxIiBpZD0icGF0aDQiIGZpbGw9IiMyNjg4RUIiIGQ9Ik02LjA4OTc5IDExLjA0MDhDNi4zODkzNSAxMS4wMTM4IDYuNjkyOTUgMTEgNy4wMDAwNCAxMUMxMi41MjI5IDExIDE3IDE1LjQ3NzIgMTcgMjFDMTcgMjEuMzA3MSAxNi45ODYyIDIxLjYxMDcgMTYuOTU5MiAyMS45MTAyQzE2LjkwOTcgMjIuNDYwMyAxNy4zMTU0IDIyLjk0NjQgMTcuODY1NCAyMi45OTZDMTguNDE1NSAyMy4wNDU1IDE4LjkwMTYgMjIuNjM5OCAxOC45NTEyIDIyLjA4OThDMTguOTgzNSAyMS43MzA2IDE5IDIxLjM2NzEgMTkgMjFDMTkgMTQuMzcyNiAxMy42Mjc1IDkgNy4wMDAwNCA5QzYuNjMyOTQgOSA2LjI2OTQ1IDkuMDE2NTEgNS45MTAyOCA5LjA0ODg4QzUuMzYwMjMgOS4wOTg0NSA0Ljk1NDUgOS41ODQ1NCA1LjAwNDA3IDEwLjEzNDZDNS4wNTM2NCAxMC42ODQ2IDUuNTM5NzMgMTEuMDkwNCA2LjA4OTc5IDExLjA0MDhaIi8+JiN4YTs8L3N2Zz4=;fontFamily=VK Sans Display;fontSize=16;" vertex="1" parent="1">
          <mxGeometry x="81" y="100" width="40" height="40" as="geometry" />
        </mxCell>
        <mxCell id="f5HX-OZeqhqnF7wZsBNI-4" value="Connection&#xa;quality" style="shape=image;verticalLabelPosition=bottom;labelBackgroundColor=default;verticalAlign=bottom;aspect=fixed;imageAspect=0;image=data:image/svg+xml,PHN2ZyB4bWxucz0iaHR0cDovL3d3dy53My5vcmcvMjAwMC9zdmciIGlkPSJzdmc0IiB2ZXJzaW9uPSIxLjEiIGZpbGw9Im5vbmUiIHZpZXdCb3g9IjAgMCAyOCAyOCIgaGVpZ2h0PSIyOCIgd2lkdGg9IjI4Ij4mI3hhOyAgPGRlZnMgaWQ9ImRlZnM0Ii8+JiN4YTsgICYjeGE7ICA8cGF0aCBzdHlsZT0iZmlsbDojODdkNmU4O2ZpbGwtb3BhY2l0eToxIiBpZD0icGF0aDEiIGZpbGw9IiMyNjg4RUIiIGQ9Ik02Ljg1MDA0IDZDNi41ODIxOSA2IDYuMzE2MDcgNi4wMDY5NCA2LjA1MTgyIDYuMDIwNjRDNS41MDAyOCA2LjA0OTI0IDUuMDI5OTggNS42MjUzMSA1LjAwMTM4IDUuMDczNzdDNC45NzI3OCA0LjUyMjIyIDUuMzk2NzEgNC4wNTE5MyA1Ljk0ODI1IDQuMDIzMzNDNi4yNDY5OCA0LjAwNzg0IDYuNTQ3NjQgNCA2Ljg1MDA0IDRDMTYuMzIxNyA0IDI0IDExLjY3ODMgMjQgMjEuMTVDMjQgMjEuNDUyNCAyMy45OTIyIDIxLjc1MzEgMjMuOTc2NyAyMi4wNTE4QzIzLjk0ODEgMjIuNjAzMyAyMy40Nzc4IDIzLjAyNzMgMjIuOTI2MyAyMi45OTg3QzIyLjM3NDcgMjIuOTcwMSAyMS45NTA4IDIyLjQ5OTggMjEuOTc5NCAyMS45NDgyQzIxLjk5MzEgMjEuNjg0IDIyIDIxLjQxNzggMjIgMjEuMTVDMjIgMTIuNzgyOSAxNS4yMTcyIDYgNi44NTAwNCA2WiIvPiYjeGE7ICA8cGF0aCBzdHlsZT0iZmlsbDojODdkNmU4O2ZpbGwtb3BhY2l0eToxIiBpZD0icGF0aDIiIGZpbGw9IiMyNjg4RUIiIGQ9Ik02LjE2NTQ5IDE2LjA2OTJDNi40MzYyNSAxNi4wMjM4IDYuNzE0OTkgMTYgNy4wMDAwNCAxNkM5Ljc2MTQ2IDE2IDEyIDE4LjIzODYgMTIgMjFDMTIgMjEuMjg1IDExLjk3NjMgMjEuNTYzOCAxMS45MzA5IDIxLjgzNDVDMTEuODM5NSAyMi4zNzkyIDEyLjIwNjkgMjIuODk0OCAxMi43NTE2IDIyLjk4NjJDMTMuMjk2MyAyMy4wNzc2IDEzLjgxMTkgMjIuNzEwMSAxMy45MDMzIDIyLjE2NTVDMTMuOTY3IDIxLjc4NTggMTQgMjEuMzk2NCAxNCAyMUMxNCAxNy4xMzQgMTAuODY2IDE0IDcuMDAwMDQgMTRDNi42MDM2NiAxNCA2LjIxNDI0IDE0LjAzMyA1LjgzNDU4IDE0LjA5NjdDNS4yODk5MSAxNC4xODgxIDQuOTIyNDQgMTQuNzAzNyA1LjAxMzgyIDE1LjI0ODRDNS4xMDUyIDE1Ljc5MzEgNS42MjA4MiAxNi4xNjA2IDYuMTY1NDkgMTYuMDY5MloiLz4mI3hhOyAgPHBhdGggc3R5bGU9ImZpbGw6Izg3ZDZlODtmaWxsLW9wYWNpdHk6MSIgaWQ9InBhdGgzIiBmaWxsPSIjMjY4OEVCIiBkPSJNOS4wMDAwMSAyMUM5LjAwMDAxIDIyLjEwNDYgOC4xMDQ1OCAyMyA3LjAwMDAxIDIzQzUuODk1NDQgMjMgNS4wMDAwMSAyMi4xMDQ2IDUuMDAwMDEgMjFDNS4wMDAwMSAxOS44OTU0IDUuODk1NDQgMTkgNy4wMDAwMSAxOUM4LjEwNDU4IDE5IDkuMDAwMDEgMTkuODk1NCA5LjAwMDAxIDIxWiIvPiYjeGE7ICA8cGF0aCBzdHlsZT0iZmlsbDojODdkNmU4O2ZpbGwtb3BhY2l0eToxIiBpZD0icGF0aDQiIGZpbGw9IiMyNjg4RUIiIGQ9Ik02LjA4OTc5IDExLjA0MDhDNi4zODkzNSAxMS4wMTM4IDYuNjkyOTUgMTEgNy4wMDAwNCAxMUMxMi41MjI5IDExIDE3IDE1LjQ3NzIgMTcgMjFDMTcgMjEuMzA3MSAxNi45ODYyIDIxLjYxMDcgMTYuOTU5MiAyMS45MTAyQzE2LjkwOTcgMjIuNDYwMyAxNy4zMTU0IDIyLjk0NjQgMTcuODY1NCAyMi45OTZDMTguNDE1NSAyMy4wNDU1IDE4LjkwMTYgMjIuNjM5OCAxOC45NTEyIDIyLjA4OThDMTguOTgzNSAyMS43MzA2IDE5IDIxLjM2NzEgMTkgMjFDMTkgMTQuMzcyNiAxMy42Mjc1IDkgNy4wMDAwNCA5QzYuNjMyOTQgOSA2LjI2OTQ1IDkuMDE2NTEgNS45MTAyOCA5LjA0ODg4QzUuMzYwMjMgOS4wOTg0NSA0Ljk1NDUgOS41ODQ1NCA1LjAwNDA3IDEwLjEzNDZDNS4wNTM2NCAxMC42ODQ2IDUuNTM5NzMgMTEuMDkwNCA2LjA4OTc5IDExLjA0MDhaIi8+JiN4YTs8L3N2Zz4=;fontFamily=VK Sans Display;fontSize=16;" vertex="1" parent="1">
          <mxGeometry x="404.43" y="221" width="40" height="40" as="geometry" />
        </mxCell>
        <mxCell id="f5HX-OZeqhqnF7wZsBNI-5" value="" style="shape=image;verticalLabelPosition=bottom;labelBackgroundColor=default;verticalAlign=bottom;aspect=fixed;imageAspect=0;image=data:image/svg+xml,PHN2ZyB4bWxucz0iaHR0cDovL3d3dy53My5vcmcvMjAwMC9zdmciIGlkPSJzdmc0IiB2ZXJzaW9uPSIxLjEiIGZpbGw9Im5vbmUiIHZpZXdCb3g9IjAgMCAyOCAyOCIgaGVpZ2h0PSIyOCIgd2lkdGg9IjI4Ij4mI3hhOyAgPGRlZnMgaWQ9ImRlZnM0Ii8+JiN4YTsgICYjeGE7ICA8cGF0aCBzdHlsZT0iZmlsbDojODdkNmU4O2ZpbGwtb3BhY2l0eToxIiBpZD0icGF0aDEiIGZpbGw9IiMyNjg4RUIiIGQ9Ik02Ljg1MDA0IDZDNi41ODIxOSA2IDYuMzE2MDcgNi4wMDY5NCA2LjA1MTgyIDYuMDIwNjRDNS41MDAyOCA2LjA0OTI0IDUuMDI5OTggNS42MjUzMSA1LjAwMTM4IDUuMDczNzdDNC45NzI3OCA0LjUyMjIyIDUuMzk2NzEgNC4wNTE5MyA1Ljk0ODI1IDQuMDIzMzNDNi4yNDY5OCA0LjAwNzg0IDYuNTQ3NjQgNCA2Ljg1MDA0IDRDMTYuMzIxNyA0IDI0IDExLjY3ODMgMjQgMjEuMTVDMjQgMjEuNDUyNCAyMy45OTIyIDIxLjc1MzEgMjMuOTc2NyAyMi4wNTE4QzIzLjk0ODEgMjIuNjAzMyAyMy40Nzc4IDIzLjAyNzMgMjIuOTI2MyAyMi45OTg3QzIyLjM3NDcgMjIuOTcwMSAyMS45NTA4IDIyLjQ5OTggMjEuOTc5NCAyMS45NDgyQzIxLjk5MzEgMjEuNjg0IDIyIDIxLjQxNzggMjIgMjEuMTVDMjIgMTIuNzgyOSAxNS4yMTcyIDYgNi44NTAwNCA2WiIvPiYjeGE7ICA8cGF0aCBzdHlsZT0iZmlsbDojODdkNmU4O2ZpbGwtb3BhY2l0eToxIiBpZD0icGF0aDIiIGZpbGw9IiMyNjg4RUIiIGQ9Ik02LjE2NTQ5IDE2LjA2OTJDNi40MzYyNSAxNi4wMjM4IDYuNzE0OTkgMTYgNy4wMDAwNCAxNkM5Ljc2MTQ2IDE2IDEyIDE4LjIzODYgMTIgMjFDMTIgMjEuMjg1IDExLjk3NjMgMjEuNTYzOCAxMS45MzA5IDIxLjgzNDVDMTEuODM5NSAyMi4zNzkyIDEyLjIwNjkgMjIuODk0OCAxMi43NTE2IDIyLjk4NjJDMTMuMjk2MyAyMy4wNzc2IDEzLjgxMTkgMjIuNzEwMSAxMy45MDMzIDIyLjE2NTVDMTMuOTY3IDIxLjc4NTggMTQgMjEuMzk2NCAxNCAyMUMxNCAxNy4xMzQgMTAuODY2IDE0IDcuMDAwMDQgMTRDNi42MDM2NiAxNCA2LjIxNDI0IDE0LjAzMyA1LjgzNDU4IDE0LjA5NjdDNS4yODk5MSAxNC4xODgxIDQuOTIyNDQgMTQuNzAzNyA1LjAxMzgyIDE1LjI0ODRDNS4xMDUyIDE1Ljc5MzEgNS42MjA4MiAxNi4xNjA2IDYuMTY1NDkgMTYuMDY5MloiLz4mI3hhOyAgPHBhdGggc3R5bGU9ImZpbGw6Izg3ZDZlODtmaWxsLW9wYWNpdHk6MSIgaWQ9InBhdGgzIiBmaWxsPSIjMjY4OEVCIiBkPSJNOS4wMDAwMSAyMUM5LjAwMDAxIDIyLjEwNDYgOC4xMDQ1OCAyMyA3LjAwMDAxIDIzQzUuODk1NDQgMjMgNS4wMDAwMSAyMi4xMDQ2IDUuMDAwMDEgMjFDNS4wMDAwMSAxOS44OTU0IDUuODk1NDQgMTkgNy4wMDAwMSAxOUM4LjEwNDU4IDE5IDkuMDAwMDEgMTkuODk1NCA5LjAwMDAxIDIxWiIvPiYjeGE7ICA8cGF0aCBzdHlsZT0iZmlsbDojODdkNmU4O2ZpbGwtb3BhY2l0eToxIiBpZD0icGF0aDQiIGZpbGw9IiMyNjg4RUIiIGQ9Ik02LjA4OTc5IDExLjA0MDhDNi4zODkzNSAxMS4wMTM4IDYuNjkyOTUgMTEgNy4wMDAwNCAxMUMxMi41MjI5IDExIDE3IDE1LjQ3NzIgMTcgMjFDMTcgMjEuMzA3MSAxNi45ODYyIDIxLjYxMDcgMTYuOTU5MiAyMS45MTAyQzE2LjkwOTcgMjIuNDYwMyAxNy4zMTU0IDIyLjk0NjQgMTcuODY1NCAyMi45OTZDMTguNDE1NSAyMy4wNDU1IDE4LjkwMTYgMjIuNjM5OCAxOC45NTEyIDIyLjA4OThDMTguOTgzNSAyMS43MzA2IDE5IDIxLjM2NzEgMTkgMjFDMTkgMTQuMzcyNiAxMy42Mjc1IDkgNy4wMDAwNCA5QzYuNjMyOTQgOSA2LjI2OTQ1IDkuMDE2NTEgNS45MTAyOCA5LjA0ODg4QzUuMzYwMjMgOS4wOTg0NSA0Ljk1NDUgOS41ODQ1NCA1LjAwNDA3IDEwLjEzNDZDNS4wNTM2NCAxMC42ODQ2IDUuNTM5NzMgMTEuMDkwNCA2LjA4OTc5IDExLjA0MDhaIi8+JiN4YTs8L3N2Zz4=;fontFamily=VK Sans Display;fontSize=16;" vertex="1" parent="1">
          <mxGeometry x="503.43" y="316" width="40" height="40" as="geometry" />
        </mxCell>
        <mxCell id="f5HX-OZeqhqnF7wZsBNI-6" value="" style="shape=image;verticalLabelPosition=bottom;labelBackgroundColor=default;verticalAlign=bottom;aspect=fixed;imageAspect=0;image=data:image/svg+xml,PHN2ZyB4bWxucz0iaHR0cDovL3d3dy53My5vcmcvMjAwMC9zdmciIGlkPSJzdmc0IiB2ZXJzaW9uPSIxLjEiIGZpbGw9Im5vbmUiIHZpZXdCb3g9IjAgMCAyOCAyOCIgaGVpZ2h0PSIyOCIgd2lkdGg9IjI4Ij4mI3hhOyAgPGRlZnMgaWQ9ImRlZnM0Ii8+JiN4YTsgICYjeGE7ICA8cGF0aCBzdHlsZT0iZmlsbDojODdkNmU4O2ZpbGwtb3BhY2l0eToxIiBpZD0icGF0aDEiIGZpbGw9IiMyNjg4RUIiIGQ9Ik02Ljg1MDA0IDZDNi41ODIxOSA2IDYuMzE2MDcgNi4wMDY5NCA2LjA1MTgyIDYuMDIwNjRDNS41MDAyOCA2LjA0OTI0IDUuMDI5OTggNS42MjUzMSA1LjAwMTM4IDUuMDczNzdDNC45NzI3OCA0LjUyMjIyIDUuMzk2NzEgNC4wNTE5MyA1Ljk0ODI1IDQuMDIzMzNDNi4yNDY5OCA0LjAwNzg0IDYuNTQ3NjQgNCA2Ljg1MDA0IDRDMTYuMzIxNyA0IDI0IDExLjY3ODMgMjQgMjEuMTVDMjQgMjEuNDUyNCAyMy45OTIyIDIxLjc1MzEgMjMuOTc2NyAyMi4wNTE4QzIzLjk0ODEgMjIuNjAzMyAyMy40Nzc4IDIzLjAyNzMgMjIuOTI2MyAyMi45OTg3QzIyLjM3NDcgMjIuOTcwMSAyMS45NTA4IDIyLjQ5OTggMjEuOTc5NCAyMS45NDgyQzIxLjk5MzEgMjEuNjg0IDIyIDIxLjQxNzggMjIgMjEuMTVDMjIgMTIuNzgyOSAxNS4yMTcyIDYgNi44NTAwNCA2WiIvPiYjeGE7ICA8cGF0aCBzdHlsZT0iZmlsbDojODdkNmU4O2ZpbGwtb3BhY2l0eToxIiBpZD0icGF0aDIiIGZpbGw9IiMyNjg4RUIiIGQ9Ik02LjE2NTQ5IDE2LjA2OTJDNi40MzYyNSAxNi4wMjM4IDYuNzE0OTkgMTYgNy4wMDAwNCAxNkM5Ljc2MTQ2IDE2IDEyIDE4LjIzODYgMTIgMjFDMTIgMjEuMjg1IDExLjk3NjMgMjEuNTYzOCAxMS45MzA5IDIxLjgzNDVDMTEuODM5NSAyMi4zNzkyIDEyLjIwNjkgMjIuODk0OCAxMi43NTE2IDIyLjk4NjJDMTMuMjk2MyAyMy4wNzc2IDEzLjgxMTkgMjIuNzEwMSAxMy45MDMzIDIyLjE2NTVDMTMuOTY3IDIxLjc4NTggMTQgMjEuMzk2NCAxNCAyMUMxNCAxNy4xMzQgMTAuODY2IDE0IDcuMDAwMDQgMTRDNi42MDM2NiAxNCA2LjIxNDI0IDE0LjAzMyA1LjgzNDU4IDE0LjA5NjdDNS4yODk5MSAxNC4xODgxIDQuOTIyNDQgMTQuNzAzNyA1LjAxMzgyIDE1LjI0ODRDNS4xMDUyIDE1Ljc5MzEgNS42MjA4MiAxNi4xNjA2IDYuMTY1NDkgMTYuMDY5MloiLz4mI3hhOyAgPHBhdGggc3R5bGU9ImZpbGw6Izg3ZDZlODtmaWxsLW9wYWNpdHk6MSIgaWQ9InBhdGgzIiBmaWxsPSIjMjY4OEVCIiBkPSJNOS4wMDAwMSAyMUM5LjAwMDAxIDIyLjEwNDYgOC4xMDQ1OCAyMyA3LjAwMDAxIDIzQzUuODk1NDQgMjMgNS4wMDAwMSAyMi4xMDQ2IDUuMDAwMDEgMjFDNS4wMDAwMSAxOS44OTU0IDUuODk1NDQgMTkgNy4wMDAwMSAxOUM4LjEwNDU4IDE5IDkuMDAwMDEgMTkuODk1NCA5LjAwMDAxIDIxWiIvPiYjeGE7ICA8cGF0aCBzdHlsZT0iZmlsbDojODdkNmU4O2ZpbGwtb3BhY2l0eToxIiBpZD0icGF0aDQiIGZpbGw9IiMyNjg4RUIiIGQ9Ik02LjA4OTc5IDExLjA0MDhDNi4zODkzNSAxMS4wMTM4IDYuNjkyOTUgMTEgNy4wMDAwNCAxMUMxMi41MjI5IDExIDE3IDE1LjQ3NzIgMTcgMjFDMTcgMjEuMzA3MSAxNi45ODYyIDIxLjYxMDcgMTYuOTU5MiAyMS45MTAyQzE2LjkwOTcgMjIuNDYwMyAxNy4zMTU0IDIyLjk0NjQgMTcuODY1NCAyMi45OTZDMTguNDE1NSAyMy4wNDU1IDE4LjkwMTYgMjIuNjM5OCAxOC45NTEyIDIyLjA4OThDMTguOTgzNSAyMS43MzA2IDE5IDIxLjM2NzEgMTkgMjFDMTkgMTQuMzcyNiAxMy42Mjc1IDkgNy4wMDAwNCA5QzYuNjMyOTQgOSA2LjI2OTQ1IDkuMDE2NTEgNS45MTAyOCA5LjA0ODg4QzUuMzYwMjMgOS4wOTg0NSA0Ljk1NDUgOS41ODQ1NCA1LjAwNDA3IDEwLjEzNDZDNS4wNTM2NCAxMC42ODQ2IDUuNTM5NzMgMTEuMDkwNCA2LjA4OTc5IDExLjA0MDhaIi8+JiN4YTs8L3N2Zz4=;fontFamily=VK Sans Display;fontSize=16;" vertex="1" parent="1">
          <mxGeometry x="618" y="429" width="40" height="40" as="geometry" />
        </mxCell>
      </root>
    </mxGraphModel>
  </diagram>
</mxfile>
